G04 #@! TF.GenerationSoftware,KiCad,Pcbnew,(6.0.10)*
G04 #@! TF.CreationDate,2023-02-13T10:30:41+01:00*
G04 #@! TF.ProjectId,iC880A_Adapter_V1.1,69433838-3041-45f4-9164-61707465725f,rev?*
G04 #@! TF.SameCoordinates,Original*
G04 #@! TF.FileFunction,Copper,L2,Bot*
G04 #@! TF.FilePolarity,Positive*
%FSLAX46Y46*%
G04 Gerber Fmt 4.6, Leading zero omitted, Abs format (unit mm)*
G04 Created by KiCad (PCBNEW (6.0.10)) date 2023-02-13 10:30:41*
%MOMM*%
%LPD*%
G01*
G04 APERTURE LIST*
G04 #@! TA.AperFunction,ComponentPad*
%ADD10R,1.700000X1.700000*%
G04 #@! TD*
G04 #@! TA.AperFunction,ComponentPad*
%ADD11O,1.700000X1.700000*%
G04 #@! TD*
G04 #@! TA.AperFunction,ComponentPad*
%ADD12C,4.700000*%
G04 #@! TD*
G04 #@! TA.AperFunction,Conductor*
%ADD13C,0.500000*%
G04 #@! TD*
G04 #@! TA.AperFunction,Conductor*
%ADD14C,0.250000*%
G04 #@! TD*
G04 APERTURE END LIST*
D10*
X84320400Y-130463600D03*
D11*
X86860400Y-130463600D03*
X89400400Y-130463600D03*
D10*
X127534000Y-130461000D03*
D11*
X130074000Y-130461000D03*
X132614000Y-130461000D03*
D10*
X81767920Y-191786680D03*
D11*
X84307920Y-191786680D03*
X86847920Y-191786680D03*
X89387920Y-191786680D03*
X91927920Y-191786680D03*
X94467920Y-191786680D03*
X97007920Y-191786680D03*
X99547920Y-191786680D03*
X102087920Y-191786680D03*
X104627920Y-191786680D03*
X107167920Y-191786680D03*
X109707920Y-191786680D03*
X112247920Y-191786680D03*
X114787920Y-191786680D03*
X117327920Y-191786680D03*
X119867920Y-191786680D03*
X122407920Y-191786680D03*
X124947920Y-191786680D03*
X127487920Y-191786680D03*
X130027920Y-191786680D03*
D12*
X137479920Y-137206680D03*
X79479920Y-137206680D03*
X137479920Y-186206680D03*
X79479920Y-186206680D03*
D10*
X132567920Y-184928680D03*
D11*
X132567920Y-187468680D03*
X130027920Y-184928680D03*
X130027920Y-187468680D03*
X127487920Y-184928680D03*
X127487920Y-187468680D03*
X124947920Y-184928680D03*
X124947920Y-187468680D03*
X122407920Y-184928680D03*
X122407920Y-187468680D03*
X119867920Y-184928680D03*
X119867920Y-187468680D03*
X117327920Y-184928680D03*
X117327920Y-187468680D03*
X114787920Y-184928680D03*
X114787920Y-187468680D03*
X112247920Y-184928680D03*
X112247920Y-187468680D03*
X109707920Y-184928680D03*
X109707920Y-187468680D03*
X107167920Y-184928680D03*
X107167920Y-187468680D03*
X104627920Y-184928680D03*
X104627920Y-187468680D03*
X102087920Y-184928680D03*
X102087920Y-187468680D03*
X99547920Y-184928680D03*
X99547920Y-187468680D03*
X97007920Y-184928680D03*
X97007920Y-187468680D03*
X94467920Y-184928680D03*
X94467920Y-187468680D03*
X91927920Y-184928680D03*
X91927920Y-187468680D03*
X89387920Y-184928680D03*
X89387920Y-187468680D03*
X86847920Y-184928680D03*
X86847920Y-187468680D03*
X84307920Y-184928680D03*
X84307920Y-187468680D03*
D13*
X132949680Y-180656680D02*
X140329920Y-180656680D01*
X84320400Y-167947160D02*
X95122240Y-178749000D01*
X130027920Y-187468680D02*
X132567920Y-187468680D01*
X141829920Y-182156680D02*
X141829920Y-189406680D01*
X84320400Y-130463600D02*
X84320400Y-167947160D01*
X95122240Y-178749000D02*
X131042000Y-178749000D01*
X134329920Y-190656680D02*
X132567920Y-188894680D01*
X131042000Y-178749000D02*
X132949680Y-180656680D01*
X140579920Y-190656680D02*
X134329920Y-190656680D01*
X141829920Y-189406680D02*
X140579920Y-190656680D01*
X140329920Y-180656680D02*
X141829920Y-182156680D01*
X132567920Y-188894680D02*
X132567920Y-187468680D01*
D14*
X101135200Y-181934160D02*
X102087920Y-182886880D01*
X91927920Y-187468680D02*
X90657700Y-186198460D01*
X91610200Y-181934160D02*
X101135200Y-181934160D01*
X90657700Y-186198460D02*
X90657700Y-182886660D01*
X90657700Y-182886660D02*
X91610200Y-181934160D01*
X102087920Y-182886880D02*
X102087920Y-184928680D01*
X107167920Y-187468680D02*
X108298000Y-188959800D01*
X108298000Y-188959800D02*
X111752400Y-188959800D01*
X111752400Y-188959800D02*
X112191680Y-189399080D01*
X112191680Y-189399080D02*
X112191680Y-191786680D01*
X102075000Y-190407600D02*
X100805000Y-189137600D01*
X97007920Y-183562080D02*
X97007920Y-184928680D01*
X105788840Y-190407600D02*
X102075000Y-190407600D01*
X100805000Y-189137600D02*
X100805000Y-183498800D01*
X100805000Y-183498800D02*
X100576400Y-183270200D01*
X97299800Y-183270200D02*
X97007920Y-183562080D01*
X100576400Y-183270200D02*
X97299800Y-183270200D01*
X107167920Y-191786680D02*
X105788840Y-190407600D01*
X98290400Y-188096200D02*
X98290400Y-186623000D01*
X95720000Y-186216600D02*
X94467920Y-187468680D01*
X98290400Y-186623000D02*
X97884000Y-186216600D01*
X97884000Y-186216600D02*
X95720000Y-186216600D01*
X102087920Y-191786680D02*
X98290400Y-188096200D01*
X89380080Y-189051240D02*
X89387920Y-187468680D01*
X98194240Y-190433000D02*
X90761840Y-190433000D01*
X99547920Y-191786680D02*
X98194240Y-190433000D01*
X90761840Y-190433000D02*
X89380080Y-189051240D01*
X118585000Y-183702000D02*
X118140500Y-183257500D01*
X118585000Y-190503760D02*
X118585000Y-183702000D01*
X118140500Y-183257500D02*
X110139500Y-183257500D01*
X109707920Y-183689080D02*
X109707920Y-184928680D01*
X119867920Y-191786680D02*
X118585000Y-190503760D01*
X110139500Y-183257500D02*
X109707920Y-183689080D01*
X105890440Y-186191200D02*
X112946200Y-186191200D01*
X113505000Y-186750000D02*
X113505000Y-190503760D01*
X104627920Y-184928680D02*
X105890440Y-186191200D01*
X113505000Y-190503760D02*
X114787920Y-191786680D01*
X112946200Y-186191200D02*
X113505000Y-186750000D01*
X103357700Y-186198460D02*
X104627920Y-187468680D01*
X121150400Y-183727400D02*
X119943900Y-182520900D01*
X104526100Y-182520900D02*
X103357700Y-183689300D01*
X122351680Y-191786680D02*
X121150400Y-190585400D01*
X121150400Y-190585400D02*
X121150400Y-183727400D01*
X119943900Y-182520900D02*
X104526100Y-182520900D01*
X103357700Y-183689300D02*
X103357700Y-186198460D01*
G04 #@! TA.AperFunction,Conductor*
G36*
X145463541Y-128185182D02*
G01*
X145510034Y-128238838D01*
X145521420Y-128291180D01*
X145521420Y-194022180D01*
X145501418Y-194090301D01*
X145447762Y-194136794D01*
X145395420Y-194148180D01*
X77164420Y-194148180D01*
X77096299Y-194128178D01*
X77049806Y-194074522D01*
X77038420Y-194022180D01*
X77038420Y-192681349D01*
X80409921Y-192681349D01*
X80410291Y-192688170D01*
X80415815Y-192739032D01*
X80419441Y-192754284D01*
X80464596Y-192874734D01*
X80473134Y-192890329D01*
X80549635Y-192992404D01*
X80562196Y-193004965D01*
X80664271Y-193081466D01*
X80679866Y-193090004D01*
X80800314Y-193135158D01*
X80815569Y-193138785D01*
X80866434Y-193144311D01*
X80873248Y-193144680D01*
X81495805Y-193144680D01*
X81511044Y-193140205D01*
X81512249Y-193138815D01*
X81513920Y-193131132D01*
X81513920Y-193126564D01*
X82021920Y-193126564D01*
X82026395Y-193141803D01*
X82027785Y-193143008D01*
X82035468Y-193144679D01*
X82662589Y-193144679D01*
X82669410Y-193144309D01*
X82720272Y-193138785D01*
X82735524Y-193135159D01*
X82855974Y-193090004D01*
X82871569Y-193081466D01*
X82973644Y-193004965D01*
X82986205Y-192992404D01*
X83062706Y-192890329D01*
X83071244Y-192874734D01*
X83112145Y-192765632D01*
X83154787Y-192708868D01*
X83221348Y-192684168D01*
X83290697Y-192699376D01*
X83325364Y-192727364D01*
X83350785Y-192756711D01*
X83350789Y-192756715D01*
X83354170Y-192760618D01*
X83526046Y-192903312D01*
X83718920Y-193016018D01*
X83927612Y-193095710D01*
X83932680Y-193096741D01*
X83932683Y-193096742D01*
X84027782Y-193116090D01*
X84146517Y-193140247D01*
X84151692Y-193140437D01*
X84151694Y-193140437D01*
X84364593Y-193148244D01*
X84364597Y-193148244D01*
X84369757Y-193148433D01*
X84374877Y-193147777D01*
X84374879Y-193147777D01*
X84586208Y-193120705D01*
X84586209Y-193120705D01*
X84591336Y-193120048D01*
X84596286Y-193118563D01*
X84800349Y-193057341D01*
X84800354Y-193057339D01*
X84805304Y-193055854D01*
X85005914Y-192957576D01*
X85187780Y-192827853D01*
X85346016Y-192670169D01*
X85476373Y-192488757D01*
X85477696Y-192489708D01*
X85524565Y-192446537D01*
X85594500Y-192434305D01*
X85659946Y-192461824D01*
X85687795Y-192493674D01*
X85747907Y-192591768D01*
X85894170Y-192760618D01*
X86066046Y-192903312D01*
X86258920Y-193016018D01*
X86467612Y-193095710D01*
X86472680Y-193096741D01*
X86472683Y-193096742D01*
X86567782Y-193116090D01*
X86686517Y-193140247D01*
X86691692Y-193140437D01*
X86691694Y-193140437D01*
X86904593Y-193148244D01*
X86904597Y-193148244D01*
X86909757Y-193148433D01*
X86914877Y-193147777D01*
X86914879Y-193147777D01*
X87126208Y-193120705D01*
X87126209Y-193120705D01*
X87131336Y-193120048D01*
X87136286Y-193118563D01*
X87340349Y-193057341D01*
X87340354Y-193057339D01*
X87345304Y-193055854D01*
X87545914Y-192957576D01*
X87727780Y-192827853D01*
X87886016Y-192670169D01*
X88016373Y-192488757D01*
X88017696Y-192489708D01*
X88064565Y-192446537D01*
X88134500Y-192434305D01*
X88199946Y-192461824D01*
X88227795Y-192493674D01*
X88287907Y-192591768D01*
X88434170Y-192760618D01*
X88606046Y-192903312D01*
X88798920Y-193016018D01*
X89007612Y-193095710D01*
X89012680Y-193096741D01*
X89012683Y-193096742D01*
X89107782Y-193116090D01*
X89226517Y-193140247D01*
X89231692Y-193140437D01*
X89231694Y-193140437D01*
X89444593Y-193148244D01*
X89444597Y-193148244D01*
X89449757Y-193148433D01*
X89454877Y-193147777D01*
X89454879Y-193147777D01*
X89666208Y-193120705D01*
X89666209Y-193120705D01*
X89671336Y-193120048D01*
X89676286Y-193118563D01*
X89880349Y-193057341D01*
X89880354Y-193057339D01*
X89885304Y-193055854D01*
X90085914Y-192957576D01*
X90267780Y-192827853D01*
X90426016Y-192670169D01*
X90556373Y-192488757D01*
X90557696Y-192489708D01*
X90604565Y-192446537D01*
X90674500Y-192434305D01*
X90739946Y-192461824D01*
X90767795Y-192493674D01*
X90827907Y-192591768D01*
X90974170Y-192760618D01*
X91146046Y-192903312D01*
X91338920Y-193016018D01*
X91547612Y-193095710D01*
X91552680Y-193096741D01*
X91552683Y-193096742D01*
X91647782Y-193116090D01*
X91766517Y-193140247D01*
X91771692Y-193140437D01*
X91771694Y-193140437D01*
X91984593Y-193148244D01*
X91984597Y-193148244D01*
X91989757Y-193148433D01*
X91994877Y-193147777D01*
X91994879Y-193147777D01*
X92206208Y-193120705D01*
X92206209Y-193120705D01*
X92211336Y-193120048D01*
X92216286Y-193118563D01*
X92420349Y-193057341D01*
X92420354Y-193057339D01*
X92425304Y-193055854D01*
X92625914Y-192957576D01*
X92807780Y-192827853D01*
X92966016Y-192670169D01*
X93096373Y-192488757D01*
X93097696Y-192489708D01*
X93144565Y-192446537D01*
X93214500Y-192434305D01*
X93279946Y-192461824D01*
X93307795Y-192493674D01*
X93367907Y-192591768D01*
X93514170Y-192760618D01*
X93686046Y-192903312D01*
X93878920Y-193016018D01*
X94087612Y-193095710D01*
X94092680Y-193096741D01*
X94092683Y-193096742D01*
X94187782Y-193116090D01*
X94306517Y-193140247D01*
X94311692Y-193140437D01*
X94311694Y-193140437D01*
X94524593Y-193148244D01*
X94524597Y-193148244D01*
X94529757Y-193148433D01*
X94534877Y-193147777D01*
X94534879Y-193147777D01*
X94746208Y-193120705D01*
X94746209Y-193120705D01*
X94751336Y-193120048D01*
X94756286Y-193118563D01*
X94960349Y-193057341D01*
X94960354Y-193057339D01*
X94965304Y-193055854D01*
X95165914Y-192957576D01*
X95347780Y-192827853D01*
X95506016Y-192670169D01*
X95636373Y-192488757D01*
X95637696Y-192489708D01*
X95684565Y-192446537D01*
X95754500Y-192434305D01*
X95819946Y-192461824D01*
X95847795Y-192493674D01*
X95907907Y-192591768D01*
X96054170Y-192760618D01*
X96226046Y-192903312D01*
X96418920Y-193016018D01*
X96627612Y-193095710D01*
X96632680Y-193096741D01*
X96632683Y-193096742D01*
X96727782Y-193116090D01*
X96846517Y-193140247D01*
X96851692Y-193140437D01*
X96851694Y-193140437D01*
X97064593Y-193148244D01*
X97064597Y-193148244D01*
X97069757Y-193148433D01*
X97074877Y-193147777D01*
X97074879Y-193147777D01*
X97286208Y-193120705D01*
X97286209Y-193120705D01*
X97291336Y-193120048D01*
X97296286Y-193118563D01*
X97500349Y-193057341D01*
X97500354Y-193057339D01*
X97505304Y-193055854D01*
X97705914Y-192957576D01*
X97887780Y-192827853D01*
X98046016Y-192670169D01*
X98176373Y-192488757D01*
X98177696Y-192489708D01*
X98224565Y-192446537D01*
X98294500Y-192434305D01*
X98359946Y-192461824D01*
X98387795Y-192493674D01*
X98447907Y-192591768D01*
X98594170Y-192760618D01*
X98766046Y-192903312D01*
X98958920Y-193016018D01*
X99167612Y-193095710D01*
X99172680Y-193096741D01*
X99172683Y-193096742D01*
X99267782Y-193116090D01*
X99386517Y-193140247D01*
X99391692Y-193140437D01*
X99391694Y-193140437D01*
X99604593Y-193148244D01*
X99604597Y-193148244D01*
X99609757Y-193148433D01*
X99614877Y-193147777D01*
X99614879Y-193147777D01*
X99826208Y-193120705D01*
X99826209Y-193120705D01*
X99831336Y-193120048D01*
X99836286Y-193118563D01*
X100040349Y-193057341D01*
X100040354Y-193057339D01*
X100045304Y-193055854D01*
X100245914Y-192957576D01*
X100427780Y-192827853D01*
X100586016Y-192670169D01*
X100716373Y-192488757D01*
X100717696Y-192489708D01*
X100764565Y-192446537D01*
X100834500Y-192434305D01*
X100899946Y-192461824D01*
X100927795Y-192493674D01*
X100987907Y-192591768D01*
X101134170Y-192760618D01*
X101306046Y-192903312D01*
X101498920Y-193016018D01*
X101707612Y-193095710D01*
X101712680Y-193096741D01*
X101712683Y-193096742D01*
X101807782Y-193116090D01*
X101926517Y-193140247D01*
X101931692Y-193140437D01*
X101931694Y-193140437D01*
X102144593Y-193148244D01*
X102144597Y-193148244D01*
X102149757Y-193148433D01*
X102154877Y-193147777D01*
X102154879Y-193147777D01*
X102366208Y-193120705D01*
X102366209Y-193120705D01*
X102371336Y-193120048D01*
X102376286Y-193118563D01*
X102580349Y-193057341D01*
X102580354Y-193057339D01*
X102585304Y-193055854D01*
X102785914Y-192957576D01*
X102967780Y-192827853D01*
X103126016Y-192670169D01*
X103256373Y-192488757D01*
X103257696Y-192489708D01*
X103304565Y-192446537D01*
X103374500Y-192434305D01*
X103439946Y-192461824D01*
X103467795Y-192493674D01*
X103527907Y-192591768D01*
X103674170Y-192760618D01*
X103846046Y-192903312D01*
X104038920Y-193016018D01*
X104247612Y-193095710D01*
X104252680Y-193096741D01*
X104252683Y-193096742D01*
X104347782Y-193116090D01*
X104466517Y-193140247D01*
X104471692Y-193140437D01*
X104471694Y-193140437D01*
X104684593Y-193148244D01*
X104684597Y-193148244D01*
X104689757Y-193148433D01*
X104694877Y-193147777D01*
X104694879Y-193147777D01*
X104906208Y-193120705D01*
X104906209Y-193120705D01*
X104911336Y-193120048D01*
X104916286Y-193118563D01*
X105120349Y-193057341D01*
X105120354Y-193057339D01*
X105125304Y-193055854D01*
X105325914Y-192957576D01*
X105507780Y-192827853D01*
X105666016Y-192670169D01*
X105796373Y-192488757D01*
X105797696Y-192489708D01*
X105844565Y-192446537D01*
X105914500Y-192434305D01*
X105979946Y-192461824D01*
X106007795Y-192493674D01*
X106067907Y-192591768D01*
X106214170Y-192760618D01*
X106386046Y-192903312D01*
X106578920Y-193016018D01*
X106787612Y-193095710D01*
X106792680Y-193096741D01*
X106792683Y-193096742D01*
X106887782Y-193116090D01*
X107006517Y-193140247D01*
X107011692Y-193140437D01*
X107011694Y-193140437D01*
X107224593Y-193148244D01*
X107224597Y-193148244D01*
X107229757Y-193148433D01*
X107234877Y-193147777D01*
X107234879Y-193147777D01*
X107446208Y-193120705D01*
X107446209Y-193120705D01*
X107451336Y-193120048D01*
X107456286Y-193118563D01*
X107660349Y-193057341D01*
X107660354Y-193057339D01*
X107665304Y-193055854D01*
X107865914Y-192957576D01*
X108047780Y-192827853D01*
X108206016Y-192670169D01*
X108336373Y-192488757D01*
X108337560Y-192489610D01*
X108384880Y-192446042D01*
X108454817Y-192433825D01*
X108520258Y-192461358D01*
X108548086Y-192493191D01*
X108605614Y-192587068D01*
X108611697Y-192595379D01*
X108751133Y-192756347D01*
X108758500Y-192763563D01*
X108922354Y-192899596D01*
X108930801Y-192905511D01*
X109114676Y-193012959D01*
X109123962Y-193017409D01*
X109322921Y-193093383D01*
X109332819Y-193096259D01*
X109436170Y-193117286D01*
X109450219Y-193116090D01*
X109453920Y-193105745D01*
X109453920Y-190469782D01*
X109450002Y-190456438D01*
X109435726Y-190454451D01*
X109397244Y-190460340D01*
X109387208Y-190462731D01*
X109184788Y-190528892D01*
X109175279Y-190532889D01*
X108986383Y-190631222D01*
X108977658Y-190636716D01*
X108807353Y-190764585D01*
X108799646Y-190771428D01*
X108652510Y-190925397D01*
X108646029Y-190933402D01*
X108541418Y-191086754D01*
X108486507Y-191131756D01*
X108415982Y-191139927D01*
X108352235Y-191108673D01*
X108331538Y-191084189D01*
X108250742Y-190959297D01*
X108250740Y-190959294D01*
X108247934Y-190954957D01*
X108097590Y-190789731D01*
X108093539Y-190786532D01*
X108093535Y-190786528D01*
X107926334Y-190654480D01*
X107926330Y-190654478D01*
X107922279Y-190651278D01*
X107885948Y-190631222D01*
X107870055Y-190622449D01*
X107726709Y-190543318D01*
X107721840Y-190541594D01*
X107721836Y-190541592D01*
X107521007Y-190470475D01*
X107521003Y-190470474D01*
X107516132Y-190468749D01*
X107511039Y-190467842D01*
X107511036Y-190467841D01*
X107301293Y-190430480D01*
X107301287Y-190430479D01*
X107296204Y-190429574D01*
X107222372Y-190428672D01*
X107078001Y-190426908D01*
X107077999Y-190426908D01*
X107072831Y-190426845D01*
X106852011Y-190460635D01*
X106839452Y-190464740D01*
X106768488Y-190466890D01*
X106711214Y-190434069D01*
X106292492Y-190015347D01*
X106284952Y-190007061D01*
X106280840Y-190000582D01*
X106270051Y-189990450D01*
X106231189Y-189953957D01*
X106228347Y-189951202D01*
X106208610Y-189931465D01*
X106205413Y-189928985D01*
X106196391Y-189921280D01*
X106187140Y-189912593D01*
X106164161Y-189891014D01*
X106157215Y-189887195D01*
X106157212Y-189887193D01*
X106146406Y-189881252D01*
X106129887Y-189870401D01*
X106129423Y-189870041D01*
X106113881Y-189857986D01*
X106106612Y-189854841D01*
X106106608Y-189854838D01*
X106073303Y-189840426D01*
X106062653Y-189835209D01*
X106023900Y-189813905D01*
X106004277Y-189808867D01*
X105985574Y-189802463D01*
X105974260Y-189797567D01*
X105974259Y-189797567D01*
X105966985Y-189794419D01*
X105959162Y-189793180D01*
X105959152Y-189793177D01*
X105923316Y-189787501D01*
X105911696Y-189785095D01*
X105876551Y-189776072D01*
X105876550Y-189776072D01*
X105868870Y-189774100D01*
X105848616Y-189774100D01*
X105828905Y-189772549D01*
X105816726Y-189770620D01*
X105808897Y-189769380D01*
X105801005Y-189770126D01*
X105764879Y-189773541D01*
X105753021Y-189774100D01*
X102389595Y-189774100D01*
X102321474Y-189754098D01*
X102300500Y-189737195D01*
X101531914Y-188968609D01*
X101497888Y-188906297D01*
X101502953Y-188835482D01*
X101545500Y-188778646D01*
X101612020Y-188753835D01*
X101665959Y-188761804D01*
X101707612Y-188777710D01*
X101712680Y-188778741D01*
X101712683Y-188778742D01*
X101817524Y-188800072D01*
X101926517Y-188822247D01*
X101931692Y-188822437D01*
X101931694Y-188822437D01*
X102144593Y-188830244D01*
X102144597Y-188830244D01*
X102149757Y-188830433D01*
X102154877Y-188829777D01*
X102154879Y-188829777D01*
X102366208Y-188802705D01*
X102366209Y-188802705D01*
X102371336Y-188802048D01*
X102376286Y-188800563D01*
X102580349Y-188739341D01*
X102580354Y-188739339D01*
X102585304Y-188737854D01*
X102785914Y-188639576D01*
X102967780Y-188509853D01*
X103126016Y-188352169D01*
X103185514Y-188269369D01*
X103256373Y-188170757D01*
X103257696Y-188171708D01*
X103304565Y-188128537D01*
X103374500Y-188116305D01*
X103439946Y-188143824D01*
X103467795Y-188175674D01*
X103527907Y-188273768D01*
X103674170Y-188442618D01*
X103846046Y-188585312D01*
X104038920Y-188698018D01*
X104247612Y-188777710D01*
X104252680Y-188778741D01*
X104252683Y-188778742D01*
X104357524Y-188800072D01*
X104466517Y-188822247D01*
X104471692Y-188822437D01*
X104471694Y-188822437D01*
X104684593Y-188830244D01*
X104684597Y-188830244D01*
X104689757Y-188830433D01*
X104694877Y-188829777D01*
X104694879Y-188829777D01*
X104906208Y-188802705D01*
X104906209Y-188802705D01*
X104911336Y-188802048D01*
X104916286Y-188800563D01*
X105120349Y-188739341D01*
X105120354Y-188739339D01*
X105125304Y-188737854D01*
X105325914Y-188639576D01*
X105507780Y-188509853D01*
X105666016Y-188352169D01*
X105725514Y-188269369D01*
X105796373Y-188170757D01*
X105797696Y-188171708D01*
X105844565Y-188128537D01*
X105914500Y-188116305D01*
X105979946Y-188143824D01*
X106007795Y-188175674D01*
X106067907Y-188273768D01*
X106214170Y-188442618D01*
X106386046Y-188585312D01*
X106578920Y-188698018D01*
X106787612Y-188777710D01*
X106792680Y-188778741D01*
X106792683Y-188778742D01*
X106897524Y-188800072D01*
X107006517Y-188822247D01*
X107011692Y-188822437D01*
X107011694Y-188822437D01*
X107224593Y-188830244D01*
X107224597Y-188830244D01*
X107229757Y-188830433D01*
X107234877Y-188829777D01*
X107234879Y-188829777D01*
X107317201Y-188819231D01*
X107387311Y-188830415D01*
X107433629Y-188868104D01*
X107487339Y-188938973D01*
X107774056Y-189317293D01*
X107780022Y-189325883D01*
X107806000Y-189366818D01*
X107852551Y-189410532D01*
X107856362Y-189414267D01*
X107901005Y-189459922D01*
X107907778Y-189464031D01*
X107912264Y-189467592D01*
X107916903Y-189470962D01*
X107922679Y-189476386D01*
X107947290Y-189489916D01*
X107978626Y-189507143D01*
X107983277Y-189509830D01*
X108037853Y-189542938D01*
X108045439Y-189545234D01*
X108050659Y-189547563D01*
X108055990Y-189549674D01*
X108062940Y-189553495D01*
X108070618Y-189555466D01*
X108070617Y-189555466D01*
X108124789Y-189569375D01*
X108129952Y-189570819D01*
X108191046Y-189589314D01*
X108198967Y-189589652D01*
X108204617Y-189590612D01*
X108210295Y-189591329D01*
X108217970Y-189593300D01*
X108281798Y-189593300D01*
X108287167Y-189593414D01*
X108350960Y-189596135D01*
X108358716Y-189594492D01*
X108366614Y-189593835D01*
X108366664Y-189594439D01*
X108377543Y-189593300D01*
X111432180Y-189593300D01*
X111500301Y-189613302D01*
X111546794Y-189666958D01*
X111558180Y-189719300D01*
X111558180Y-190542709D01*
X111538178Y-190610830D01*
X111507834Y-190643468D01*
X111342885Y-190767315D01*
X111188549Y-190928818D01*
X111081124Y-191086298D01*
X111080818Y-191086746D01*
X111025907Y-191131749D01*
X110955382Y-191139920D01*
X110891635Y-191108666D01*
X110870938Y-191084182D01*
X110790346Y-190959606D01*
X110784056Y-190951437D01*
X110640726Y-190793920D01*
X110633193Y-190786895D01*
X110466059Y-190654902D01*
X110457472Y-190649197D01*
X110271037Y-190546279D01*
X110261625Y-190542049D01*
X110060879Y-190470960D01*
X110050908Y-190468326D01*
X109979757Y-190455652D01*
X109966460Y-190457112D01*
X109961920Y-190471669D01*
X109961920Y-193105197D01*
X109965984Y-193119039D01*
X109979398Y-193121073D01*
X109986104Y-193120214D01*
X109996182Y-193118072D01*
X110200175Y-193056871D01*
X110209762Y-193053113D01*
X110401015Y-192959419D01*
X110409865Y-192954144D01*
X110583248Y-192830472D01*
X110591120Y-192823819D01*
X110741972Y-192673492D01*
X110748650Y-192665645D01*
X110875942Y-192488499D01*
X110877199Y-192489402D01*
X110924293Y-192446042D01*
X110994231Y-192433825D01*
X111059671Y-192461358D01*
X111087499Y-192493191D01*
X111147907Y-192591768D01*
X111294170Y-192760618D01*
X111466046Y-192903312D01*
X111658920Y-193016018D01*
X111867612Y-193095710D01*
X111872680Y-193096741D01*
X111872683Y-193096742D01*
X111967782Y-193116090D01*
X112086517Y-193140247D01*
X112091692Y-193140437D01*
X112091694Y-193140437D01*
X112304593Y-193148244D01*
X112304597Y-193148244D01*
X112309757Y-193148433D01*
X112314877Y-193147777D01*
X112314879Y-193147777D01*
X112526208Y-193120705D01*
X112526209Y-193120705D01*
X112531336Y-193120048D01*
X112536286Y-193118563D01*
X112740349Y-193057341D01*
X112740354Y-193057339D01*
X112745304Y-193055854D01*
X112945914Y-192957576D01*
X113127780Y-192827853D01*
X113286016Y-192670169D01*
X113416373Y-192488757D01*
X113417696Y-192489708D01*
X113464565Y-192446537D01*
X113534500Y-192434305D01*
X113599946Y-192461824D01*
X113627795Y-192493674D01*
X113687907Y-192591768D01*
X113834170Y-192760618D01*
X114006046Y-192903312D01*
X114198920Y-193016018D01*
X114407612Y-193095710D01*
X114412680Y-193096741D01*
X114412683Y-193096742D01*
X114507782Y-193116090D01*
X114626517Y-193140247D01*
X114631692Y-193140437D01*
X114631694Y-193140437D01*
X114844593Y-193148244D01*
X114844597Y-193148244D01*
X114849757Y-193148433D01*
X114854877Y-193147777D01*
X114854879Y-193147777D01*
X115066208Y-193120705D01*
X115066209Y-193120705D01*
X115071336Y-193120048D01*
X115076286Y-193118563D01*
X115280349Y-193057341D01*
X115280354Y-193057339D01*
X115285304Y-193055854D01*
X115485914Y-192957576D01*
X115667780Y-192827853D01*
X115826016Y-192670169D01*
X115956373Y-192488757D01*
X115957696Y-192489708D01*
X116004565Y-192446537D01*
X116074500Y-192434305D01*
X116139946Y-192461824D01*
X116167795Y-192493674D01*
X116227907Y-192591768D01*
X116374170Y-192760618D01*
X116546046Y-192903312D01*
X116738920Y-193016018D01*
X116947612Y-193095710D01*
X116952680Y-193096741D01*
X116952683Y-193096742D01*
X117047782Y-193116090D01*
X117166517Y-193140247D01*
X117171692Y-193140437D01*
X117171694Y-193140437D01*
X117384593Y-193148244D01*
X117384597Y-193148244D01*
X117389757Y-193148433D01*
X117394877Y-193147777D01*
X117394879Y-193147777D01*
X117606208Y-193120705D01*
X117606209Y-193120705D01*
X117611336Y-193120048D01*
X117616286Y-193118563D01*
X117820349Y-193057341D01*
X117820354Y-193057339D01*
X117825304Y-193055854D01*
X118025914Y-192957576D01*
X118207780Y-192827853D01*
X118366016Y-192670169D01*
X118496373Y-192488757D01*
X118497696Y-192489708D01*
X118544565Y-192446537D01*
X118614500Y-192434305D01*
X118679946Y-192461824D01*
X118707795Y-192493674D01*
X118767907Y-192591768D01*
X118914170Y-192760618D01*
X119086046Y-192903312D01*
X119278920Y-193016018D01*
X119487612Y-193095710D01*
X119492680Y-193096741D01*
X119492683Y-193096742D01*
X119587782Y-193116090D01*
X119706517Y-193140247D01*
X119711692Y-193140437D01*
X119711694Y-193140437D01*
X119924593Y-193148244D01*
X119924597Y-193148244D01*
X119929757Y-193148433D01*
X119934877Y-193147777D01*
X119934879Y-193147777D01*
X120146208Y-193120705D01*
X120146209Y-193120705D01*
X120151336Y-193120048D01*
X120156286Y-193118563D01*
X120360349Y-193057341D01*
X120360354Y-193057339D01*
X120365304Y-193055854D01*
X120565914Y-192957576D01*
X120747780Y-192827853D01*
X120906016Y-192670169D01*
X121036373Y-192488757D01*
X121037696Y-192489708D01*
X121084565Y-192446537D01*
X121154500Y-192434305D01*
X121219946Y-192461824D01*
X121247795Y-192493674D01*
X121307907Y-192591768D01*
X121454170Y-192760618D01*
X121626046Y-192903312D01*
X121818920Y-193016018D01*
X122027612Y-193095710D01*
X122032680Y-193096741D01*
X122032683Y-193096742D01*
X122127782Y-193116090D01*
X122246517Y-193140247D01*
X122251692Y-193140437D01*
X122251694Y-193140437D01*
X122464593Y-193148244D01*
X122464597Y-193148244D01*
X122469757Y-193148433D01*
X122474877Y-193147777D01*
X122474879Y-193147777D01*
X122686208Y-193120705D01*
X122686209Y-193120705D01*
X122691336Y-193120048D01*
X122696286Y-193118563D01*
X122900349Y-193057341D01*
X122900354Y-193057339D01*
X122905304Y-193055854D01*
X123105914Y-192957576D01*
X123287780Y-192827853D01*
X123446016Y-192670169D01*
X123576373Y-192488757D01*
X123577696Y-192489708D01*
X123624565Y-192446537D01*
X123694500Y-192434305D01*
X123759946Y-192461824D01*
X123787795Y-192493674D01*
X123847907Y-192591768D01*
X123994170Y-192760618D01*
X124166046Y-192903312D01*
X124358920Y-193016018D01*
X124567612Y-193095710D01*
X124572680Y-193096741D01*
X124572683Y-193096742D01*
X124667782Y-193116090D01*
X124786517Y-193140247D01*
X124791692Y-193140437D01*
X124791694Y-193140437D01*
X125004593Y-193148244D01*
X125004597Y-193148244D01*
X125009757Y-193148433D01*
X125014877Y-193147777D01*
X125014879Y-193147777D01*
X125226208Y-193120705D01*
X125226209Y-193120705D01*
X125231336Y-193120048D01*
X125236286Y-193118563D01*
X125440349Y-193057341D01*
X125440354Y-193057339D01*
X125445304Y-193055854D01*
X125645914Y-192957576D01*
X125827780Y-192827853D01*
X125986016Y-192670169D01*
X126116373Y-192488757D01*
X126117696Y-192489708D01*
X126164565Y-192446537D01*
X126234500Y-192434305D01*
X126299946Y-192461824D01*
X126327795Y-192493674D01*
X126387907Y-192591768D01*
X126534170Y-192760618D01*
X126706046Y-192903312D01*
X126898920Y-193016018D01*
X127107612Y-193095710D01*
X127112680Y-193096741D01*
X127112683Y-193096742D01*
X127207782Y-193116090D01*
X127326517Y-193140247D01*
X127331692Y-193140437D01*
X127331694Y-193140437D01*
X127544593Y-193148244D01*
X127544597Y-193148244D01*
X127549757Y-193148433D01*
X127554877Y-193147777D01*
X127554879Y-193147777D01*
X127766208Y-193120705D01*
X127766209Y-193120705D01*
X127771336Y-193120048D01*
X127776286Y-193118563D01*
X127980349Y-193057341D01*
X127980354Y-193057339D01*
X127985304Y-193055854D01*
X128185914Y-192957576D01*
X128367780Y-192827853D01*
X128526016Y-192670169D01*
X128656373Y-192488757D01*
X128657560Y-192489610D01*
X128704880Y-192446042D01*
X128774817Y-192433825D01*
X128840258Y-192461358D01*
X128868086Y-192493191D01*
X128925614Y-192587068D01*
X128931697Y-192595379D01*
X129071133Y-192756347D01*
X129078500Y-192763563D01*
X129242354Y-192899596D01*
X129250801Y-192905511D01*
X129434676Y-193012959D01*
X129443962Y-193017409D01*
X129642921Y-193093383D01*
X129652819Y-193096259D01*
X129756170Y-193117286D01*
X129770219Y-193116090D01*
X129773920Y-193105745D01*
X129773920Y-193105197D01*
X130281920Y-193105197D01*
X130285984Y-193119039D01*
X130299398Y-193121073D01*
X130306104Y-193120214D01*
X130316182Y-193118072D01*
X130520175Y-193056871D01*
X130529762Y-193053113D01*
X130721015Y-192959419D01*
X130729865Y-192954144D01*
X130903248Y-192830472D01*
X130911120Y-192823819D01*
X131061972Y-192673492D01*
X131068650Y-192665645D01*
X131192923Y-192492700D01*
X131198233Y-192483863D01*
X131292590Y-192292947D01*
X131296389Y-192283352D01*
X131358297Y-192079590D01*
X131360475Y-192069517D01*
X131361906Y-192058642D01*
X131359695Y-192044458D01*
X131346537Y-192040680D01*
X130300035Y-192040680D01*
X130284796Y-192045155D01*
X130283591Y-192046545D01*
X130281920Y-192054228D01*
X130281920Y-193105197D01*
X129773920Y-193105197D01*
X129773920Y-191514565D01*
X130281920Y-191514565D01*
X130286395Y-191529804D01*
X130287785Y-191531009D01*
X130295468Y-191532680D01*
X131346264Y-191532680D01*
X131359795Y-191528707D01*
X131361100Y-191519627D01*
X131319134Y-191352555D01*
X131315814Y-191342804D01*
X131230892Y-191147494D01*
X131226025Y-191138419D01*
X131110346Y-190959606D01*
X131104056Y-190951437D01*
X130960726Y-190793920D01*
X130953193Y-190786895D01*
X130786059Y-190654902D01*
X130777472Y-190649197D01*
X130591037Y-190546279D01*
X130581625Y-190542049D01*
X130380879Y-190470960D01*
X130370908Y-190468326D01*
X130299757Y-190455652D01*
X130286460Y-190457112D01*
X130281920Y-190471669D01*
X130281920Y-191514565D01*
X129773920Y-191514565D01*
X129773920Y-190469782D01*
X129770002Y-190456438D01*
X129755726Y-190454451D01*
X129717244Y-190460340D01*
X129707208Y-190462731D01*
X129504788Y-190528892D01*
X129495279Y-190532889D01*
X129306383Y-190631222D01*
X129297658Y-190636716D01*
X129127353Y-190764585D01*
X129119646Y-190771428D01*
X128972510Y-190925397D01*
X128966029Y-190933402D01*
X128861418Y-191086754D01*
X128806507Y-191131756D01*
X128735982Y-191139927D01*
X128672235Y-191108673D01*
X128651538Y-191084189D01*
X128570742Y-190959297D01*
X128570740Y-190959294D01*
X128567934Y-190954957D01*
X128417590Y-190789731D01*
X128413539Y-190786532D01*
X128413535Y-190786528D01*
X128246334Y-190654480D01*
X128246330Y-190654478D01*
X128242279Y-190651278D01*
X128205948Y-190631222D01*
X128190055Y-190622449D01*
X128046709Y-190543318D01*
X128041840Y-190541594D01*
X128041836Y-190541592D01*
X127841007Y-190470475D01*
X127841003Y-190470474D01*
X127836132Y-190468749D01*
X127831039Y-190467842D01*
X127831036Y-190467841D01*
X127621293Y-190430480D01*
X127621287Y-190430479D01*
X127616204Y-190429574D01*
X127542372Y-190428672D01*
X127398001Y-190426908D01*
X127397999Y-190426908D01*
X127392831Y-190426845D01*
X127172011Y-190460635D01*
X126959676Y-190530037D01*
X126761527Y-190633187D01*
X126757394Y-190636290D01*
X126757391Y-190636292D01*
X126674370Y-190698626D01*
X126582885Y-190767315D01*
X126428549Y-190928818D01*
X126321121Y-191086301D01*
X126266213Y-191131301D01*
X126195688Y-191139472D01*
X126131941Y-191108218D01*
X126111244Y-191083734D01*
X126030742Y-190959297D01*
X126030740Y-190959294D01*
X126027934Y-190954957D01*
X125877590Y-190789731D01*
X125873539Y-190786532D01*
X125873535Y-190786528D01*
X125706334Y-190654480D01*
X125706330Y-190654478D01*
X125702279Y-190651278D01*
X125665948Y-190631222D01*
X125650055Y-190622449D01*
X125506709Y-190543318D01*
X125501840Y-190541594D01*
X125501836Y-190541592D01*
X125301007Y-190470475D01*
X125301003Y-190470474D01*
X125296132Y-190468749D01*
X125291039Y-190467842D01*
X125291036Y-190467841D01*
X125081293Y-190430480D01*
X125081287Y-190430479D01*
X125076204Y-190429574D01*
X125002372Y-190428672D01*
X124858001Y-190426908D01*
X124857999Y-190426908D01*
X124852831Y-190426845D01*
X124632011Y-190460635D01*
X124419676Y-190530037D01*
X124221527Y-190633187D01*
X124217394Y-190636290D01*
X124217391Y-190636292D01*
X124134370Y-190698626D01*
X124042885Y-190767315D01*
X123888549Y-190928818D01*
X123781121Y-191086301D01*
X123726213Y-191131301D01*
X123655688Y-191139472D01*
X123591941Y-191108218D01*
X123571244Y-191083734D01*
X123490742Y-190959297D01*
X123490740Y-190959294D01*
X123487934Y-190954957D01*
X123337590Y-190789731D01*
X123333539Y-190786532D01*
X123333535Y-190786528D01*
X123166334Y-190654480D01*
X123166330Y-190654478D01*
X123162279Y-190651278D01*
X123125948Y-190631222D01*
X123110055Y-190622449D01*
X122966709Y-190543318D01*
X122961840Y-190541594D01*
X122961836Y-190541592D01*
X122761007Y-190470475D01*
X122761003Y-190470474D01*
X122756132Y-190468749D01*
X122751039Y-190467842D01*
X122751036Y-190467841D01*
X122541293Y-190430480D01*
X122541287Y-190430479D01*
X122536204Y-190429574D01*
X122462372Y-190428672D01*
X122318001Y-190426908D01*
X122317999Y-190426908D01*
X122312831Y-190426845D01*
X122092011Y-190460635D01*
X122045286Y-190475907D01*
X122037068Y-190478593D01*
X121966104Y-190480744D01*
X121908828Y-190447923D01*
X121820805Y-190359900D01*
X121786779Y-190297588D01*
X121783900Y-190270805D01*
X121783900Y-188867634D01*
X121803902Y-188799513D01*
X121857558Y-188753020D01*
X121927832Y-188742916D01*
X121954850Y-188749925D01*
X122022774Y-188775863D01*
X122022779Y-188775864D01*
X122027612Y-188777710D01*
X122032680Y-188778741D01*
X122032683Y-188778742D01*
X122137524Y-188800072D01*
X122246517Y-188822247D01*
X122251692Y-188822437D01*
X122251694Y-188822437D01*
X122464593Y-188830244D01*
X122464597Y-188830244D01*
X122469757Y-188830433D01*
X122474877Y-188829777D01*
X122474879Y-188829777D01*
X122686208Y-188802705D01*
X122686209Y-188802705D01*
X122691336Y-188802048D01*
X122696286Y-188800563D01*
X122900349Y-188739341D01*
X122900354Y-188739339D01*
X122905304Y-188737854D01*
X123105914Y-188639576D01*
X123287780Y-188509853D01*
X123446016Y-188352169D01*
X123505514Y-188269369D01*
X123576373Y-188170757D01*
X123577696Y-188171708D01*
X123624565Y-188128537D01*
X123694500Y-188116305D01*
X123759946Y-188143824D01*
X123787795Y-188175674D01*
X123847907Y-188273768D01*
X123994170Y-188442618D01*
X124166046Y-188585312D01*
X124358920Y-188698018D01*
X124567612Y-188777710D01*
X124572680Y-188778741D01*
X124572683Y-188778742D01*
X124677524Y-188800072D01*
X124786517Y-188822247D01*
X124791692Y-188822437D01*
X124791694Y-188822437D01*
X125004593Y-188830244D01*
X125004597Y-188830244D01*
X125009757Y-188830433D01*
X125014877Y-188829777D01*
X125014879Y-188829777D01*
X125226208Y-188802705D01*
X125226209Y-188802705D01*
X125231336Y-188802048D01*
X125236286Y-188800563D01*
X125440349Y-188739341D01*
X125440354Y-188739339D01*
X125445304Y-188737854D01*
X125645914Y-188639576D01*
X125827780Y-188509853D01*
X125986016Y-188352169D01*
X126045514Y-188269369D01*
X126116373Y-188170757D01*
X126117560Y-188171610D01*
X126164880Y-188128042D01*
X126234817Y-188115825D01*
X126300258Y-188143358D01*
X126328086Y-188175191D01*
X126385614Y-188269068D01*
X126391697Y-188277379D01*
X126531133Y-188438347D01*
X126538500Y-188445563D01*
X126702354Y-188581596D01*
X126710801Y-188587511D01*
X126894676Y-188694959D01*
X126903962Y-188699409D01*
X127102921Y-188775383D01*
X127112819Y-188778259D01*
X127216170Y-188799286D01*
X127230219Y-188798090D01*
X127233920Y-188787745D01*
X127233920Y-187340680D01*
X127253922Y-187272559D01*
X127307578Y-187226066D01*
X127359920Y-187214680D01*
X127615920Y-187214680D01*
X127684041Y-187234682D01*
X127730534Y-187288338D01*
X127741920Y-187340680D01*
X127741920Y-188787197D01*
X127745984Y-188801039D01*
X127759398Y-188803073D01*
X127766104Y-188802214D01*
X127776182Y-188800072D01*
X127980175Y-188738871D01*
X127989762Y-188735113D01*
X128181015Y-188641419D01*
X128189865Y-188636144D01*
X128363248Y-188512472D01*
X128371120Y-188505819D01*
X128521972Y-188355492D01*
X128528650Y-188347645D01*
X128655942Y-188170499D01*
X128657199Y-188171402D01*
X128704293Y-188128042D01*
X128774231Y-188115825D01*
X128839671Y-188143358D01*
X128867499Y-188175191D01*
X128927907Y-188273768D01*
X129074170Y-188442618D01*
X129246046Y-188585312D01*
X129438920Y-188698018D01*
X129647612Y-188777710D01*
X129652680Y-188778741D01*
X129652683Y-188778742D01*
X129757524Y-188800072D01*
X129866517Y-188822247D01*
X129871692Y-188822437D01*
X129871694Y-188822437D01*
X130084593Y-188830244D01*
X130084597Y-188830244D01*
X130089757Y-188830433D01*
X130094877Y-188829777D01*
X130094879Y-188829777D01*
X130306208Y-188802705D01*
X130306209Y-188802705D01*
X130311336Y-188802048D01*
X130316286Y-188800563D01*
X130520349Y-188739341D01*
X130520354Y-188739339D01*
X130525304Y-188737854D01*
X130725914Y-188639576D01*
X130907780Y-188509853D01*
X131066016Y-188352169D01*
X131118123Y-188279654D01*
X131174118Y-188236006D01*
X131220446Y-188227180D01*
X131370411Y-188227180D01*
X131438532Y-188247182D01*
X131467322Y-188274275D01*
X131467907Y-188273768D01*
X131614170Y-188442618D01*
X131723406Y-188533307D01*
X131763905Y-188566930D01*
X131803540Y-188625832D01*
X131809420Y-188663874D01*
X131809420Y-188827610D01*
X131807987Y-188846560D01*
X131806257Y-188857935D01*
X131804721Y-188868029D01*
X131805314Y-188875321D01*
X131805314Y-188875324D01*
X131809005Y-188920698D01*
X131809420Y-188930913D01*
X131809420Y-188938973D01*
X131809845Y-188942617D01*
X131812709Y-188967187D01*
X131813142Y-188971562D01*
X131814348Y-188986383D01*
X131819060Y-189044317D01*
X131821316Y-189051281D01*
X131822507Y-189057240D01*
X131823891Y-189063095D01*
X131824738Y-189070361D01*
X131849655Y-189139007D01*
X131851072Y-189143135D01*
X131873569Y-189212579D01*
X131877365Y-189218834D01*
X131879871Y-189224308D01*
X131882590Y-189229738D01*
X131885087Y-189236617D01*
X131889100Y-189242737D01*
X131889100Y-189242738D01*
X131925106Y-189297656D01*
X131927443Y-189301360D01*
X131965325Y-189363787D01*
X131969041Y-189367995D01*
X131969042Y-189367996D01*
X131972723Y-189372164D01*
X131972696Y-189372188D01*
X131975349Y-189375180D01*
X131978052Y-189378413D01*
X131982064Y-189384532D01*
X132036158Y-189435776D01*
X132038303Y-189437808D01*
X132040745Y-189440186D01*
X133746150Y-191145591D01*
X133758536Y-191160003D01*
X133767069Y-191171598D01*
X133767074Y-191171603D01*
X133771412Y-191177498D01*
X133776990Y-191182237D01*
X133776993Y-191182240D01*
X133811688Y-191211715D01*
X133819204Y-191218645D01*
X133824899Y-191224340D01*
X133827781Y-191226620D01*
X133847171Y-191241961D01*
X133850575Y-191244752D01*
X133900623Y-191287271D01*
X133906205Y-191292013D01*
X133912721Y-191295341D01*
X133917770Y-191298708D01*
X133922899Y-191301875D01*
X133928636Y-191306414D01*
X133994795Y-191337335D01*
X133998689Y-191339238D01*
X134063728Y-191372449D01*
X134070836Y-191374188D01*
X134076479Y-191376287D01*
X134082242Y-191378204D01*
X134088870Y-191381302D01*
X134096032Y-191382792D01*
X134096033Y-191382792D01*
X134160332Y-191396166D01*
X134164616Y-191397136D01*
X134235530Y-191414488D01*
X134241132Y-191414836D01*
X134241135Y-191414836D01*
X134246684Y-191415180D01*
X134246682Y-191415216D01*
X134250675Y-191415455D01*
X134254867Y-191415829D01*
X134262035Y-191417320D01*
X134339440Y-191415226D01*
X134342848Y-191415180D01*
X140512850Y-191415180D01*
X140531800Y-191416613D01*
X140546035Y-191418779D01*
X140546039Y-191418779D01*
X140553269Y-191419879D01*
X140560561Y-191419286D01*
X140560564Y-191419286D01*
X140605938Y-191415595D01*
X140616153Y-191415180D01*
X140624213Y-191415180D01*
X140641600Y-191413153D01*
X140652427Y-191411891D01*
X140656802Y-191411458D01*
X140722259Y-191406134D01*
X140722262Y-191406133D01*
X140729557Y-191405540D01*
X140736521Y-191403284D01*
X140742480Y-191402093D01*
X140748335Y-191400709D01*
X140755601Y-191399862D01*
X140824247Y-191374945D01*
X140828375Y-191373528D01*
X140890856Y-191353287D01*
X140890858Y-191353286D01*
X140897819Y-191351031D01*
X140904074Y-191347235D01*
X140909548Y-191344729D01*
X140914978Y-191342010D01*
X140921857Y-191339513D01*
X140957743Y-191315985D01*
X140982896Y-191299494D01*
X140986600Y-191297157D01*
X141049027Y-191259275D01*
X141057404Y-191251877D01*
X141057428Y-191251904D01*
X141060420Y-191249251D01*
X141063653Y-191246548D01*
X141069772Y-191242536D01*
X141123048Y-191186297D01*
X141125426Y-191183855D01*
X142318831Y-189990450D01*
X142333243Y-189978064D01*
X142344838Y-189969531D01*
X142344843Y-189969526D01*
X142350738Y-189965188D01*
X142355477Y-189959610D01*
X142355480Y-189959607D01*
X142384955Y-189924912D01*
X142391885Y-189917396D01*
X142397580Y-189911701D01*
X142409653Y-189896441D01*
X142415201Y-189889429D01*
X142417992Y-189886025D01*
X142460511Y-189835977D01*
X142460512Y-189835975D01*
X142465253Y-189830395D01*
X142468581Y-189823879D01*
X142471948Y-189818830D01*
X142475115Y-189813701D01*
X142479654Y-189807964D01*
X142510575Y-189741805D01*
X142512481Y-189737905D01*
X142521981Y-189719300D01*
X142545689Y-189672872D01*
X142547428Y-189665764D01*
X142549527Y-189660121D01*
X142551444Y-189654358D01*
X142554542Y-189647730D01*
X142569407Y-189576263D01*
X142570377Y-189571979D01*
X142570660Y-189570822D01*
X142587728Y-189501070D01*
X142588420Y-189489916D01*
X142588456Y-189489918D01*
X142588695Y-189485925D01*
X142589069Y-189481733D01*
X142590560Y-189474565D01*
X142588466Y-189397159D01*
X142588420Y-189393752D01*
X142588420Y-182223743D01*
X142589853Y-182204794D01*
X142592017Y-182190566D01*
X142593118Y-182183331D01*
X142588835Y-182130670D01*
X142588420Y-182120457D01*
X142588420Y-182112387D01*
X142587998Y-182108767D01*
X142587997Y-182108749D01*
X142585128Y-182084141D01*
X142584695Y-182079766D01*
X142579374Y-182014341D01*
X142579373Y-182014338D01*
X142578780Y-182007043D01*
X142576524Y-182000079D01*
X142575333Y-181994120D01*
X142573949Y-181988265D01*
X142573102Y-181980999D01*
X142548185Y-181912353D01*
X142546768Y-181908225D01*
X142526527Y-181845744D01*
X142526526Y-181845742D01*
X142524271Y-181838781D01*
X142520475Y-181832526D01*
X142517969Y-181827052D01*
X142515250Y-181821622D01*
X142512753Y-181814743D01*
X142472729Y-181753696D01*
X142470392Y-181749992D01*
X142435429Y-181692373D01*
X142435425Y-181692368D01*
X142432515Y-181687572D01*
X142425117Y-181679196D01*
X142425143Y-181679173D01*
X142422494Y-181676183D01*
X142419786Y-181672944D01*
X142415776Y-181666828D01*
X142410469Y-181661801D01*
X142410466Y-181661797D01*
X142359537Y-181613552D01*
X142357095Y-181611174D01*
X140913690Y-180167769D01*
X140901304Y-180153357D01*
X140892771Y-180141762D01*
X140892766Y-180141757D01*
X140888428Y-180135862D01*
X140882850Y-180131123D01*
X140882847Y-180131120D01*
X140848152Y-180101645D01*
X140840636Y-180094715D01*
X140834941Y-180089020D01*
X140828800Y-180084162D01*
X140812669Y-180071399D01*
X140809265Y-180068608D01*
X140759217Y-180026089D01*
X140759215Y-180026088D01*
X140753635Y-180021347D01*
X140747119Y-180018019D01*
X140742070Y-180014652D01*
X140736941Y-180011485D01*
X140731204Y-180006946D01*
X140665045Y-179976025D01*
X140661145Y-179974119D01*
X140596112Y-179940911D01*
X140589004Y-179939172D01*
X140583361Y-179937073D01*
X140577598Y-179935156D01*
X140570970Y-179932058D01*
X140499503Y-179917193D01*
X140495219Y-179916223D01*
X140424310Y-179898872D01*
X140418708Y-179898524D01*
X140418705Y-179898524D01*
X140413156Y-179898180D01*
X140413158Y-179898144D01*
X140409165Y-179897905D01*
X140404973Y-179897531D01*
X140397805Y-179896040D01*
X140331595Y-179897831D01*
X140320399Y-179898134D01*
X140316992Y-179898180D01*
X133316051Y-179898180D01*
X133247930Y-179878178D01*
X133226956Y-179861275D01*
X131625770Y-178260089D01*
X131613384Y-178245677D01*
X131604851Y-178234082D01*
X131604846Y-178234077D01*
X131600508Y-178228182D01*
X131594930Y-178223443D01*
X131594927Y-178223440D01*
X131560232Y-178193965D01*
X131552716Y-178187035D01*
X131547021Y-178181340D01*
X131540880Y-178176482D01*
X131524749Y-178163719D01*
X131521345Y-178160928D01*
X131471297Y-178118409D01*
X131471295Y-178118408D01*
X131465715Y-178113667D01*
X131459199Y-178110339D01*
X131454150Y-178106972D01*
X131449021Y-178103805D01*
X131443284Y-178099266D01*
X131377125Y-178068345D01*
X131373225Y-178066439D01*
X131308192Y-178033231D01*
X131301084Y-178031492D01*
X131295441Y-178029393D01*
X131289678Y-178027476D01*
X131283050Y-178024378D01*
X131211583Y-178009513D01*
X131207299Y-178008543D01*
X131136390Y-177991192D01*
X131130788Y-177990844D01*
X131130785Y-177990844D01*
X131125236Y-177990500D01*
X131125238Y-177990464D01*
X131121245Y-177990225D01*
X131117053Y-177989851D01*
X131109885Y-177988360D01*
X131043675Y-177990151D01*
X131032479Y-177990454D01*
X131029072Y-177990500D01*
X95488610Y-177990500D01*
X95420489Y-177970498D01*
X95399515Y-177953595D01*
X85115805Y-167669884D01*
X85081779Y-167607572D01*
X85078900Y-167580789D01*
X85078900Y-139402172D01*
X135649969Y-139402172D01*
X135649987Y-139402425D01*
X135655901Y-139411168D01*
X135675592Y-139429085D01*
X135681224Y-139433646D01*
X135942982Y-139621738D01*
X135949112Y-139625628D01*
X136230751Y-139782386D01*
X136237271Y-139785538D01*
X136535071Y-139908891D01*
X136541922Y-139911277D01*
X136851909Y-139999579D01*
X136858998Y-140001164D01*
X137177091Y-140053254D01*
X137184297Y-140054011D01*
X137506272Y-140069195D01*
X137513522Y-140069119D01*
X137835098Y-140047197D01*
X137842307Y-140046286D01*
X138159239Y-139987546D01*
X138166269Y-139985819D01*
X138474365Y-139891036D01*
X138481142Y-139888516D01*
X138776309Y-139758947D01*
X138782749Y-139755666D01*
X139061063Y-139593032D01*
X139067096Y-139589023D01*
X139301609Y-139412946D01*
X139310063Y-139401619D01*
X139303318Y-139389289D01*
X137492730Y-137578700D01*
X137478789Y-137571088D01*
X137476954Y-137571219D01*
X137470340Y-137575470D01*
X135657583Y-139388228D01*
X135649969Y-139402172D01*
X85078900Y-139402172D01*
X85078900Y-137120388D01*
X134618585Y-137120388D01*
X134627022Y-137442612D01*
X134627628Y-137449828D01*
X134673046Y-137768944D01*
X134674480Y-137776055D01*
X134756276Y-138087844D01*
X134758513Y-138094727D01*
X134875599Y-138395038D01*
X134878619Y-138401636D01*
X135029452Y-138686511D01*
X135033198Y-138692696D01*
X135215776Y-138958348D01*
X135220211Y-138964067D01*
X135274981Y-139026850D01*
X135288153Y-139035253D01*
X135298004Y-139029385D01*
X137107900Y-137219490D01*
X137114277Y-137207811D01*
X137844328Y-137207811D01*
X137844459Y-137209646D01*
X137848710Y-137216260D01*
X139659696Y-139027245D01*
X139673050Y-139034537D01*
X139683022Y-139027483D01*
X139775933Y-138916361D01*
X139780249Y-138910550D01*
X139957228Y-138641127D01*
X139960842Y-138634865D01*
X140105679Y-138346888D01*
X140108552Y-138340250D01*
X140219327Y-138037544D01*
X140221423Y-138030603D01*
X140296671Y-137717175D01*
X140297955Y-137710036D01*
X140336778Y-137389218D01*
X140337202Y-137383648D01*
X140342675Y-137209477D01*
X140342602Y-137203884D01*
X140323999Y-136881253D01*
X140323167Y-136874063D01*
X140267748Y-136556520D01*
X140266093Y-136549465D01*
X140174547Y-136240413D01*
X140172090Y-136233588D01*
X140045626Y-135937097D01*
X140042405Y-135930608D01*
X139882693Y-135650604D01*
X139878761Y-135644549D01*
X139687923Y-135384755D01*
X139686680Y-135383253D01*
X139673957Y-135375687D01*
X139673351Y-135375708D01*
X139664871Y-135380940D01*
X137851940Y-137193870D01*
X137844328Y-137207811D01*
X137114277Y-137207811D01*
X137115512Y-137205549D01*
X137115381Y-137203714D01*
X137111130Y-137197100D01*
X135299138Y-135385109D01*
X135286345Y-135378123D01*
X135275591Y-135385988D01*
X135131339Y-135569960D01*
X135127204Y-135575909D01*
X134958776Y-135850758D01*
X134955365Y-135857119D01*
X134819644Y-136149506D01*
X134816976Y-136156244D01*
X134715765Y-136462276D01*
X134713889Y-136469280D01*
X134648524Y-136784917D01*
X134647467Y-136792078D01*
X134618813Y-137113135D01*
X134618585Y-137120388D01*
X85078900Y-137120388D01*
X85078900Y-135014442D01*
X135651766Y-135014442D01*
X135658161Y-135025710D01*
X137467110Y-136834660D01*
X137481051Y-136842272D01*
X137482886Y-136842141D01*
X137489500Y-136837890D01*
X139300595Y-135026794D01*
X139307987Y-135013257D01*
X139301199Y-135003555D01*
X139213557Y-134928702D01*
X139207769Y-134924309D01*
X138940234Y-134744532D01*
X138934011Y-134740852D01*
X138647563Y-134593005D01*
X138640952Y-134590062D01*
X138339427Y-134476125D01*
X138332501Y-134473954D01*
X138019877Y-134395429D01*
X138012770Y-134394073D01*
X137693193Y-134351999D01*
X137685951Y-134351468D01*
X137363679Y-134346405D01*
X137356417Y-134346709D01*
X137035681Y-134378723D01*
X137028533Y-134379855D01*
X136713590Y-134448524D01*
X136706612Y-134450472D01*
X136401647Y-134554885D01*
X136394953Y-134557617D01*
X136104010Y-134696390D01*
X136097655Y-134699884D01*
X135824614Y-134871162D01*
X135818686Y-134875374D01*
X135660236Y-135002316D01*
X135651766Y-135014442D01*
X85078900Y-135014442D01*
X85078900Y-131948100D01*
X85098902Y-131879979D01*
X85152558Y-131833486D01*
X85204900Y-131822100D01*
X85218534Y-131822100D01*
X85280716Y-131815345D01*
X85417105Y-131764215D01*
X85533661Y-131676861D01*
X85621015Y-131560305D01*
X85665198Y-131442448D01*
X85707840Y-131385684D01*
X85774401Y-131360984D01*
X85843750Y-131376192D01*
X85878417Y-131404180D01*
X85903618Y-131433273D01*
X85910980Y-131440483D01*
X86074834Y-131576516D01*
X86083281Y-131582431D01*
X86267156Y-131689879D01*
X86276442Y-131694329D01*
X86475401Y-131770303D01*
X86485299Y-131773179D01*
X86588650Y-131794206D01*
X86602699Y-131793010D01*
X86606400Y-131782665D01*
X86606400Y-131782117D01*
X87114400Y-131782117D01*
X87118464Y-131795959D01*
X87131878Y-131797993D01*
X87138584Y-131797134D01*
X87148662Y-131794992D01*
X87352655Y-131733791D01*
X87362242Y-131730033D01*
X87553495Y-131636339D01*
X87562345Y-131631064D01*
X87735728Y-131507392D01*
X87743600Y-131500739D01*
X87894452Y-131350412D01*
X87901130Y-131342565D01*
X88028422Y-131165419D01*
X88029679Y-131166322D01*
X88076773Y-131122962D01*
X88146711Y-131110745D01*
X88212151Y-131138278D01*
X88239979Y-131170111D01*
X88300387Y-131268688D01*
X88446650Y-131437538D01*
X88618526Y-131580232D01*
X88811400Y-131692938D01*
X89020092Y-131772630D01*
X89025160Y-131773661D01*
X89025163Y-131773662D01*
X89119638Y-131792883D01*
X89238997Y-131817167D01*
X89244172Y-131817357D01*
X89244174Y-131817357D01*
X89457073Y-131825164D01*
X89457077Y-131825164D01*
X89462237Y-131825353D01*
X89467357Y-131824697D01*
X89467359Y-131824697D01*
X89678688Y-131797625D01*
X89678689Y-131797625D01*
X89683816Y-131796968D01*
X89688766Y-131795483D01*
X89892829Y-131734261D01*
X89892834Y-131734259D01*
X89897784Y-131732774D01*
X90098394Y-131634496D01*
X90280260Y-131504773D01*
X90350340Y-131434938D01*
X90427057Y-131358488D01*
X90429886Y-131355669D01*
X126176001Y-131355669D01*
X126176371Y-131362490D01*
X126181895Y-131413352D01*
X126185521Y-131428604D01*
X126230676Y-131549054D01*
X126239214Y-131564649D01*
X126315715Y-131666724D01*
X126328276Y-131679285D01*
X126430351Y-131755786D01*
X126445946Y-131764324D01*
X126566394Y-131809478D01*
X126581649Y-131813105D01*
X126632514Y-131818631D01*
X126639328Y-131819000D01*
X127261885Y-131819000D01*
X127277124Y-131814525D01*
X127278329Y-131813135D01*
X127280000Y-131805452D01*
X127280000Y-131800884D01*
X127788000Y-131800884D01*
X127792475Y-131816123D01*
X127793865Y-131817328D01*
X127801548Y-131818999D01*
X128428669Y-131818999D01*
X128435490Y-131818629D01*
X128486352Y-131813105D01*
X128501604Y-131809479D01*
X128622054Y-131764324D01*
X128637649Y-131755786D01*
X128739724Y-131679285D01*
X128752285Y-131666724D01*
X128828786Y-131564649D01*
X128837324Y-131549054D01*
X128878225Y-131439952D01*
X128920867Y-131383188D01*
X128987428Y-131358488D01*
X129056777Y-131373696D01*
X129091444Y-131401684D01*
X129116865Y-131431031D01*
X129116869Y-131431035D01*
X129120250Y-131434938D01*
X129292126Y-131577632D01*
X129485000Y-131690338D01*
X129489825Y-131692180D01*
X129489826Y-131692181D01*
X129495451Y-131694329D01*
X129693692Y-131770030D01*
X129698760Y-131771061D01*
X129698763Y-131771062D01*
X129806017Y-131792883D01*
X129912597Y-131814567D01*
X129917772Y-131814757D01*
X129917774Y-131814757D01*
X130130673Y-131822564D01*
X130130677Y-131822564D01*
X130135837Y-131822753D01*
X130140957Y-131822097D01*
X130140959Y-131822097D01*
X130352288Y-131795025D01*
X130352289Y-131795025D01*
X130357416Y-131794368D01*
X130396424Y-131782665D01*
X130566429Y-131731661D01*
X130566434Y-131731659D01*
X130571384Y-131730174D01*
X130771994Y-131631896D01*
X130953860Y-131502173D01*
X131112096Y-131344489D01*
X131242453Y-131163077D01*
X131243776Y-131164028D01*
X131290645Y-131120857D01*
X131360580Y-131108625D01*
X131426026Y-131136144D01*
X131453875Y-131167994D01*
X131513987Y-131266088D01*
X131660250Y-131434938D01*
X131832126Y-131577632D01*
X132025000Y-131690338D01*
X132029825Y-131692180D01*
X132029826Y-131692181D01*
X132035451Y-131694329D01*
X132233692Y-131770030D01*
X132238760Y-131771061D01*
X132238763Y-131771062D01*
X132346017Y-131792883D01*
X132452597Y-131814567D01*
X132457772Y-131814757D01*
X132457774Y-131814757D01*
X132670673Y-131822564D01*
X132670677Y-131822564D01*
X132675837Y-131822753D01*
X132680957Y-131822097D01*
X132680959Y-131822097D01*
X132892288Y-131795025D01*
X132892289Y-131795025D01*
X132897416Y-131794368D01*
X132936424Y-131782665D01*
X133106429Y-131731661D01*
X133106434Y-131731659D01*
X133111384Y-131730174D01*
X133311994Y-131631896D01*
X133493860Y-131502173D01*
X133652096Y-131344489D01*
X133782453Y-131163077D01*
X133794710Y-131138278D01*
X133879136Y-130967453D01*
X133879137Y-130967451D01*
X133881430Y-130962811D01*
X133946370Y-130749069D01*
X133975529Y-130527590D01*
X133977156Y-130461000D01*
X133958852Y-130238361D01*
X133904431Y-130021702D01*
X133815354Y-129816840D01*
X133694014Y-129629277D01*
X133543670Y-129464051D01*
X133539619Y-129460852D01*
X133539615Y-129460848D01*
X133372414Y-129328800D01*
X133372410Y-129328798D01*
X133368359Y-129325598D01*
X133336738Y-129308142D01*
X133316136Y-129296769D01*
X133172789Y-129217638D01*
X133167920Y-129215914D01*
X133167916Y-129215912D01*
X132967087Y-129144795D01*
X132967083Y-129144794D01*
X132962212Y-129143069D01*
X132957119Y-129142162D01*
X132957116Y-129142161D01*
X132747373Y-129104800D01*
X132747367Y-129104799D01*
X132742284Y-129103894D01*
X132668452Y-129102992D01*
X132524081Y-129101228D01*
X132524079Y-129101228D01*
X132518911Y-129101165D01*
X132298091Y-129134955D01*
X132085756Y-129204357D01*
X131887607Y-129307507D01*
X131883474Y-129310610D01*
X131883471Y-129310612D01*
X131818080Y-129359709D01*
X131708965Y-129441635D01*
X131554629Y-129603138D01*
X131447201Y-129760621D01*
X131392293Y-129805621D01*
X131321768Y-129813792D01*
X131258021Y-129782538D01*
X131237324Y-129758054D01*
X131156822Y-129633617D01*
X131156820Y-129633614D01*
X131154014Y-129629277D01*
X131003670Y-129464051D01*
X130999619Y-129460852D01*
X130999615Y-129460848D01*
X130832414Y-129328800D01*
X130832410Y-129328798D01*
X130828359Y-129325598D01*
X130796738Y-129308142D01*
X130776136Y-129296769D01*
X130632789Y-129217638D01*
X130627920Y-129215914D01*
X130627916Y-129215912D01*
X130427087Y-129144795D01*
X130427083Y-129144794D01*
X130422212Y-129143069D01*
X130417119Y-129142162D01*
X130417116Y-129142161D01*
X130207373Y-129104800D01*
X130207367Y-129104799D01*
X130202284Y-129103894D01*
X130128452Y-129102992D01*
X129984081Y-129101228D01*
X129984079Y-129101228D01*
X129978911Y-129101165D01*
X129758091Y-129134955D01*
X129545756Y-129204357D01*
X129347607Y-129307507D01*
X129343474Y-129310610D01*
X129343471Y-129310612D01*
X129278080Y-129359709D01*
X129168965Y-129441635D01*
X129165393Y-129445373D01*
X129087898Y-129526466D01*
X129026374Y-129561895D01*
X128955462Y-129558438D01*
X128897676Y-129517192D01*
X128878823Y-129483644D01*
X128837324Y-129372946D01*
X128828786Y-129357351D01*
X128752285Y-129255276D01*
X128739724Y-129242715D01*
X128637649Y-129166214D01*
X128622054Y-129157676D01*
X128501606Y-129112522D01*
X128486351Y-129108895D01*
X128435486Y-129103369D01*
X128428672Y-129103000D01*
X127806115Y-129103000D01*
X127790876Y-129107475D01*
X127789671Y-129108865D01*
X127788000Y-129116548D01*
X127788000Y-131800884D01*
X127280000Y-131800884D01*
X127280000Y-130733115D01*
X127275525Y-130717876D01*
X127274135Y-130716671D01*
X127266452Y-130715000D01*
X126194116Y-130715000D01*
X126178877Y-130719475D01*
X126177672Y-130720865D01*
X126176001Y-130728548D01*
X126176001Y-131355669D01*
X90429886Y-131355669D01*
X90438496Y-131347089D01*
X90499863Y-131261688D01*
X90565835Y-131169877D01*
X90568853Y-131165677D01*
X90582395Y-131138278D01*
X90665536Y-130970053D01*
X90665537Y-130970051D01*
X90667830Y-130965411D01*
X90732770Y-130751669D01*
X90761929Y-130530190D01*
X90762011Y-130526840D01*
X90763474Y-130466965D01*
X90763474Y-130466961D01*
X90763556Y-130463600D01*
X90745252Y-130240961D01*
X90732171Y-130188885D01*
X126176000Y-130188885D01*
X126180475Y-130204124D01*
X126181865Y-130205329D01*
X126189548Y-130207000D01*
X127261885Y-130207000D01*
X127277124Y-130202525D01*
X127278329Y-130201135D01*
X127280000Y-130193452D01*
X127280000Y-129121116D01*
X127275525Y-129105877D01*
X127274135Y-129104672D01*
X127266452Y-129103001D01*
X126639331Y-129103001D01*
X126632510Y-129103371D01*
X126581648Y-129108895D01*
X126566396Y-129112521D01*
X126445946Y-129157676D01*
X126430351Y-129166214D01*
X126328276Y-129242715D01*
X126315715Y-129255276D01*
X126239214Y-129357351D01*
X126230676Y-129372946D01*
X126185522Y-129493394D01*
X126181895Y-129508649D01*
X126176369Y-129559514D01*
X126176000Y-129566328D01*
X126176000Y-130188885D01*
X90732171Y-130188885D01*
X90690831Y-130024302D01*
X90601754Y-129819440D01*
X90480414Y-129631877D01*
X90330070Y-129466651D01*
X90326019Y-129463452D01*
X90326015Y-129463448D01*
X90158814Y-129331400D01*
X90158810Y-129331398D01*
X90154759Y-129328198D01*
X90118428Y-129308142D01*
X90102536Y-129299369D01*
X89959189Y-129220238D01*
X89954320Y-129218514D01*
X89954316Y-129218512D01*
X89753487Y-129147395D01*
X89753483Y-129147394D01*
X89748612Y-129145669D01*
X89743519Y-129144762D01*
X89743516Y-129144761D01*
X89533773Y-129107400D01*
X89533767Y-129107399D01*
X89528684Y-129106494D01*
X89454852Y-129105592D01*
X89310481Y-129103828D01*
X89310479Y-129103828D01*
X89305311Y-129103765D01*
X89084491Y-129137555D01*
X88872156Y-129206957D01*
X88803466Y-129242715D01*
X88679002Y-129307507D01*
X88674007Y-129310107D01*
X88669874Y-129313210D01*
X88669871Y-129313212D01*
X88502963Y-129438530D01*
X88495365Y-129444235D01*
X88341029Y-129605738D01*
X88338115Y-129610010D01*
X88338114Y-129610011D01*
X88233298Y-129763666D01*
X88178387Y-129808669D01*
X88107862Y-129816840D01*
X88044115Y-129785586D01*
X88023418Y-129761102D01*
X87942826Y-129636526D01*
X87936536Y-129628357D01*
X87793206Y-129470840D01*
X87785673Y-129463815D01*
X87618539Y-129331822D01*
X87609952Y-129326117D01*
X87423517Y-129223199D01*
X87414105Y-129218969D01*
X87213359Y-129147880D01*
X87203388Y-129145246D01*
X87132237Y-129132572D01*
X87118940Y-129134032D01*
X87114400Y-129148589D01*
X87114400Y-131782117D01*
X86606400Y-131782117D01*
X86606400Y-129146702D01*
X86602482Y-129133358D01*
X86588206Y-129131371D01*
X86549724Y-129137260D01*
X86539688Y-129139651D01*
X86337268Y-129205812D01*
X86327759Y-129209809D01*
X86138863Y-129308142D01*
X86130138Y-129313636D01*
X85959833Y-129441505D01*
X85952126Y-129448348D01*
X85874878Y-129529184D01*
X85813354Y-129564614D01*
X85742442Y-129561157D01*
X85684655Y-129519911D01*
X85665802Y-129486363D01*
X85624167Y-129375303D01*
X85621015Y-129366895D01*
X85533661Y-129250339D01*
X85417105Y-129162985D01*
X85280716Y-129111855D01*
X85218534Y-129105100D01*
X83422266Y-129105100D01*
X83360084Y-129111855D01*
X83223695Y-129162985D01*
X83107139Y-129250339D01*
X83019785Y-129366895D01*
X82968655Y-129503284D01*
X82961900Y-129565466D01*
X82961900Y-131361734D01*
X82968655Y-131423916D01*
X83019785Y-131560305D01*
X83107139Y-131676861D01*
X83223695Y-131764215D01*
X83360084Y-131815345D01*
X83422266Y-131822100D01*
X83435900Y-131822100D01*
X83504021Y-131842102D01*
X83550514Y-131895758D01*
X83561900Y-131948100D01*
X83561900Y-167880090D01*
X83560467Y-167899040D01*
X83557201Y-167920509D01*
X83557794Y-167927801D01*
X83557794Y-167927804D01*
X83561485Y-167973178D01*
X83561900Y-167983393D01*
X83561900Y-167991453D01*
X83562325Y-167995097D01*
X83565189Y-168019667D01*
X83565622Y-168024042D01*
X83571540Y-168096797D01*
X83573796Y-168103761D01*
X83574987Y-168109720D01*
X83576371Y-168115575D01*
X83577218Y-168122841D01*
X83602135Y-168191487D01*
X83603552Y-168195615D01*
X83626049Y-168265059D01*
X83629845Y-168271314D01*
X83632351Y-168276788D01*
X83635070Y-168282218D01*
X83637567Y-168289097D01*
X83641580Y-168295217D01*
X83641580Y-168295218D01*
X83677586Y-168350136D01*
X83679923Y-168353840D01*
X83717805Y-168416267D01*
X83721521Y-168420475D01*
X83721522Y-168420476D01*
X83725203Y-168424644D01*
X83725176Y-168424668D01*
X83727829Y-168427660D01*
X83730532Y-168430893D01*
X83734544Y-168437012D01*
X83739856Y-168442044D01*
X83790783Y-168490288D01*
X83793225Y-168492666D01*
X94538470Y-179237911D01*
X94550856Y-179252323D01*
X94559389Y-179263918D01*
X94559394Y-179263923D01*
X94563732Y-179269818D01*
X94569310Y-179274557D01*
X94569313Y-179274560D01*
X94604008Y-179304035D01*
X94611524Y-179310965D01*
X94617220Y-179316661D01*
X94620081Y-179318924D01*
X94620086Y-179318929D01*
X94639496Y-179334285D01*
X94642898Y-179337074D01*
X94698525Y-179384333D01*
X94705042Y-179387661D01*
X94710090Y-179391027D01*
X94715212Y-179394190D01*
X94720956Y-179398735D01*
X94787135Y-179429664D01*
X94791019Y-179431563D01*
X94856048Y-179464769D01*
X94863163Y-179466510D01*
X94868818Y-179468613D01*
X94874557Y-179470522D01*
X94881190Y-179473622D01*
X94952675Y-179488491D01*
X94956941Y-179489457D01*
X95027850Y-179506808D01*
X95033452Y-179507156D01*
X95033455Y-179507156D01*
X95039004Y-179507500D01*
X95039002Y-179507535D01*
X95042974Y-179507775D01*
X95047195Y-179508152D01*
X95054355Y-179509641D01*
X95131782Y-179507546D01*
X95135190Y-179507500D01*
X130675629Y-179507500D01*
X130743750Y-179527502D01*
X130764724Y-179544405D01*
X132365910Y-181145591D01*
X132378296Y-181160003D01*
X132386829Y-181171598D01*
X132386834Y-181171603D01*
X132391172Y-181177498D01*
X132396750Y-181182237D01*
X132396753Y-181182240D01*
X132431448Y-181211715D01*
X132438964Y-181218645D01*
X132444659Y-181224340D01*
X132447541Y-181226620D01*
X132466931Y-181241961D01*
X132470335Y-181244752D01*
X132520383Y-181287271D01*
X132525965Y-181292013D01*
X132532481Y-181295341D01*
X132537530Y-181298708D01*
X132542659Y-181301875D01*
X132548396Y-181306414D01*
X132614555Y-181337335D01*
X132618449Y-181339238D01*
X132683488Y-181372449D01*
X132690596Y-181374188D01*
X132696239Y-181376287D01*
X132702002Y-181378204D01*
X132708630Y-181381302D01*
X132715792Y-181382792D01*
X132715793Y-181382792D01*
X132780092Y-181396166D01*
X132784376Y-181397136D01*
X132855290Y-181414488D01*
X132860892Y-181414836D01*
X132860895Y-181414836D01*
X132866444Y-181415180D01*
X132866442Y-181415216D01*
X132870435Y-181415455D01*
X132874627Y-181415829D01*
X132881795Y-181417320D01*
X132959200Y-181415226D01*
X132962608Y-181415180D01*
X139963549Y-181415180D01*
X140031670Y-181435182D01*
X140052644Y-181452085D01*
X141034515Y-182433956D01*
X141068541Y-182496268D01*
X141071420Y-182523051D01*
X141071420Y-189040309D01*
X141051418Y-189108430D01*
X141034515Y-189129404D01*
X140302644Y-189861275D01*
X140240332Y-189895301D01*
X140213549Y-189898180D01*
X134696291Y-189898180D01*
X134628170Y-189878178D01*
X134607196Y-189861275D01*
X133440305Y-188694384D01*
X133406279Y-188632072D01*
X133411344Y-188561257D01*
X133447239Y-188510239D01*
X133447780Y-188509853D01*
X133555838Y-188402172D01*
X135649969Y-188402172D01*
X135649987Y-188402425D01*
X135655901Y-188411168D01*
X135675592Y-188429085D01*
X135681224Y-188433646D01*
X135942982Y-188621738D01*
X135949112Y-188625628D01*
X136230751Y-188782386D01*
X136237271Y-188785538D01*
X136535071Y-188908891D01*
X136541922Y-188911277D01*
X136851909Y-188999579D01*
X136858998Y-189001164D01*
X137177091Y-189053254D01*
X137184297Y-189054011D01*
X137506272Y-189069195D01*
X137513522Y-189069119D01*
X137835098Y-189047197D01*
X137842307Y-189046286D01*
X138159239Y-188987546D01*
X138166269Y-188985819D01*
X138474365Y-188891036D01*
X138481142Y-188888516D01*
X138776309Y-188758947D01*
X138782749Y-188755666D01*
X139061063Y-188593032D01*
X139067096Y-188589023D01*
X139301609Y-188412946D01*
X139310063Y-188401619D01*
X139303318Y-188389289D01*
X137492730Y-186578700D01*
X137478789Y-186571088D01*
X137476954Y-186571219D01*
X137470340Y-186575470D01*
X135657583Y-188388228D01*
X135649969Y-188402172D01*
X133555838Y-188402172D01*
X133606016Y-188352169D01*
X133665514Y-188269369D01*
X133733355Y-188174957D01*
X133736373Y-188170757D01*
X133746406Y-188150458D01*
X133833056Y-187975133D01*
X133833057Y-187975131D01*
X133835350Y-187970491D01*
X133900290Y-187756749D01*
X133929449Y-187535270D01*
X133931076Y-187468680D01*
X133912772Y-187246041D01*
X133858351Y-187029382D01*
X133769274Y-186824520D01*
X133695211Y-186710036D01*
X133650742Y-186641297D01*
X133650738Y-186641292D01*
X133647934Y-186636957D01*
X133644452Y-186633130D01*
X133500718Y-186475168D01*
X133469666Y-186411322D01*
X133478061Y-186340823D01*
X133523237Y-186286055D01*
X133549681Y-186272386D01*
X133656217Y-186232447D01*
X133664625Y-186229295D01*
X133781181Y-186141941D01*
X133797334Y-186120388D01*
X134618585Y-186120388D01*
X134627022Y-186442612D01*
X134627628Y-186449828D01*
X134673046Y-186768944D01*
X134674480Y-186776055D01*
X134756276Y-187087844D01*
X134758513Y-187094727D01*
X134875599Y-187395038D01*
X134878619Y-187401636D01*
X135029452Y-187686511D01*
X135033198Y-187692696D01*
X135215776Y-187958348D01*
X135220211Y-187964067D01*
X135274981Y-188026850D01*
X135288153Y-188035253D01*
X135298004Y-188029385D01*
X137107900Y-186219490D01*
X137114277Y-186207811D01*
X137844328Y-186207811D01*
X137844459Y-186209646D01*
X137848710Y-186216260D01*
X139659696Y-188027245D01*
X139673050Y-188034537D01*
X139683022Y-188027483D01*
X139775933Y-187916361D01*
X139780249Y-187910550D01*
X139957228Y-187641127D01*
X139960842Y-187634865D01*
X140105679Y-187346888D01*
X140108552Y-187340250D01*
X140219327Y-187037544D01*
X140221423Y-187030603D01*
X140296671Y-186717175D01*
X140297955Y-186710036D01*
X140336778Y-186389218D01*
X140337202Y-186383648D01*
X140342675Y-186209477D01*
X140342602Y-186203884D01*
X140323999Y-185881253D01*
X140323167Y-185874063D01*
X140267748Y-185556520D01*
X140266093Y-185549465D01*
X140174547Y-185240413D01*
X140172090Y-185233588D01*
X140045626Y-184937097D01*
X140042405Y-184930608D01*
X139882693Y-184650604D01*
X139878761Y-184644549D01*
X139687923Y-184384755D01*
X139686680Y-184383253D01*
X139673957Y-184375687D01*
X139673351Y-184375708D01*
X139664871Y-184380940D01*
X137851940Y-186193870D01*
X137844328Y-186207811D01*
X137114277Y-186207811D01*
X137115512Y-186205549D01*
X137115381Y-186203714D01*
X137111130Y-186197100D01*
X135299138Y-184385109D01*
X135286345Y-184378123D01*
X135275591Y-184385988D01*
X135131339Y-184569960D01*
X135127204Y-184575909D01*
X134958776Y-184850758D01*
X134955365Y-184857119D01*
X134819644Y-185149506D01*
X134816976Y-185156244D01*
X134715765Y-185462276D01*
X134713889Y-185469280D01*
X134648524Y-185784917D01*
X134647467Y-185792078D01*
X134618813Y-186113135D01*
X134618585Y-186120388D01*
X133797334Y-186120388D01*
X133868535Y-186025385D01*
X133919665Y-185888996D01*
X133926420Y-185826814D01*
X133926420Y-184030546D01*
X133924671Y-184014442D01*
X135651766Y-184014442D01*
X135658161Y-184025710D01*
X137467110Y-185834660D01*
X137481051Y-185842272D01*
X137482886Y-185842141D01*
X137489500Y-185837890D01*
X139300595Y-184026794D01*
X139307987Y-184013257D01*
X139301199Y-184003555D01*
X139213557Y-183928702D01*
X139207769Y-183924309D01*
X138940234Y-183744532D01*
X138934011Y-183740852D01*
X138647563Y-183593005D01*
X138640952Y-183590062D01*
X138339427Y-183476125D01*
X138332501Y-183473954D01*
X138019877Y-183395429D01*
X138012770Y-183394073D01*
X137693193Y-183351999D01*
X137685951Y-183351468D01*
X137363679Y-183346405D01*
X137356417Y-183346709D01*
X137035681Y-183378723D01*
X137028533Y-183379855D01*
X136713590Y-183448524D01*
X136706612Y-183450472D01*
X136401647Y-183554885D01*
X136394953Y-183557617D01*
X136104010Y-183696390D01*
X136097655Y-183699884D01*
X135824614Y-183871162D01*
X135818686Y-183875374D01*
X135660236Y-184002316D01*
X135651766Y-184014442D01*
X133924671Y-184014442D01*
X133919665Y-183968364D01*
X133868535Y-183831975D01*
X133781181Y-183715419D01*
X133664625Y-183628065D01*
X133528236Y-183576935D01*
X133472360Y-183570865D01*
X133469451Y-183570549D01*
X133466054Y-183570180D01*
X131669786Y-183570180D01*
X131666389Y-183570549D01*
X131663480Y-183570865D01*
X131607604Y-183576935D01*
X131471215Y-183628065D01*
X131354659Y-183715419D01*
X131267305Y-183831975D01*
X131264153Y-183840383D01*
X131222839Y-183950587D01*
X131180197Y-184007351D01*
X131113636Y-184032051D01*
X131044287Y-184016843D01*
X131011663Y-183991156D01*
X130961071Y-183935555D01*
X130961062Y-183935546D01*
X130957590Y-183931731D01*
X130953539Y-183928532D01*
X130953535Y-183928528D01*
X130786334Y-183796480D01*
X130786330Y-183796478D01*
X130782279Y-183793278D01*
X130745948Y-183773222D01*
X130687309Y-183740852D01*
X130586709Y-183685318D01*
X130581840Y-183683594D01*
X130581836Y-183683592D01*
X130381007Y-183612475D01*
X130381003Y-183612474D01*
X130376132Y-183610749D01*
X130371039Y-183609842D01*
X130371036Y-183609841D01*
X130161293Y-183572480D01*
X130161287Y-183572479D01*
X130156204Y-183571574D01*
X130082372Y-183570672D01*
X129938001Y-183568908D01*
X129937999Y-183568908D01*
X129932831Y-183568845D01*
X129712011Y-183602635D01*
X129499676Y-183672037D01*
X129426677Y-183710038D01*
X129323342Y-183763831D01*
X129301527Y-183775187D01*
X129297394Y-183778290D01*
X129297391Y-183778292D01*
X129173700Y-183871162D01*
X129122885Y-183909315D01*
X129097461Y-183935920D01*
X129029200Y-184007351D01*
X128968549Y-184070818D01*
X128861121Y-184228301D01*
X128806213Y-184273301D01*
X128735688Y-184281472D01*
X128671941Y-184250218D01*
X128651244Y-184225734D01*
X128570742Y-184101297D01*
X128570740Y-184101294D01*
X128567934Y-184096957D01*
X128417590Y-183931731D01*
X128413539Y-183928532D01*
X128413535Y-183928528D01*
X128246334Y-183796480D01*
X128246330Y-183796478D01*
X128242279Y-183793278D01*
X128205948Y-183773222D01*
X128147309Y-183740852D01*
X128046709Y-183685318D01*
X128041840Y-183683594D01*
X128041836Y-183683592D01*
X127841007Y-183612475D01*
X127841003Y-183612474D01*
X127836132Y-183610749D01*
X127831039Y-183609842D01*
X127831036Y-183609841D01*
X127621293Y-183572480D01*
X127621287Y-183572479D01*
X127616204Y-183571574D01*
X127542372Y-183570672D01*
X127398001Y-183568908D01*
X127397999Y-183568908D01*
X127392831Y-183568845D01*
X127172011Y-183602635D01*
X126959676Y-183672037D01*
X126886677Y-183710038D01*
X126783342Y-183763831D01*
X126761527Y-183775187D01*
X126757394Y-183778290D01*
X126757391Y-183778292D01*
X126633700Y-183871162D01*
X126582885Y-183909315D01*
X126557461Y-183935920D01*
X126489200Y-184007351D01*
X126428549Y-184070818D01*
X126321121Y-184228301D01*
X126266213Y-184273301D01*
X126195688Y-184281472D01*
X126131941Y-184250218D01*
X126111244Y-184225734D01*
X126030742Y-184101297D01*
X126030740Y-184101294D01*
X126027934Y-184096957D01*
X125877590Y-183931731D01*
X125873539Y-183928532D01*
X125873535Y-183928528D01*
X125706334Y-183796480D01*
X125706330Y-183796478D01*
X125702279Y-183793278D01*
X125665948Y-183773222D01*
X125607309Y-183740852D01*
X125506709Y-183685318D01*
X125501840Y-183683594D01*
X125501836Y-183683592D01*
X125301007Y-183612475D01*
X125301003Y-183612474D01*
X125296132Y-183610749D01*
X125291039Y-183609842D01*
X125291036Y-183609841D01*
X125081293Y-183572480D01*
X125081287Y-183572479D01*
X125076204Y-183571574D01*
X125002372Y-183570672D01*
X124858001Y-183568908D01*
X124857999Y-183568908D01*
X124852831Y-183568845D01*
X124632011Y-183602635D01*
X124419676Y-183672037D01*
X124346677Y-183710038D01*
X124243342Y-183763831D01*
X124221527Y-183775187D01*
X124217394Y-183778290D01*
X124217391Y-183778292D01*
X124093700Y-183871162D01*
X124042885Y-183909315D01*
X124017461Y-183935920D01*
X123949200Y-184007351D01*
X123888549Y-184070818D01*
X123885640Y-184075083D01*
X123885634Y-184075091D01*
X123867547Y-184101606D01*
X123781124Y-184228298D01*
X123780818Y-184228746D01*
X123725907Y-184273749D01*
X123655382Y-184281920D01*
X123591635Y-184250666D01*
X123570938Y-184226182D01*
X123490346Y-184101606D01*
X123484056Y-184093437D01*
X123340726Y-183935920D01*
X123333193Y-183928895D01*
X123166059Y-183796902D01*
X123157472Y-183791197D01*
X122971037Y-183688279D01*
X122961625Y-183684049D01*
X122760879Y-183612960D01*
X122750908Y-183610326D01*
X122679757Y-183597652D01*
X122666460Y-183599112D01*
X122661920Y-183613669D01*
X122661920Y-185056680D01*
X122641918Y-185124801D01*
X122588262Y-185171294D01*
X122535920Y-185182680D01*
X122279920Y-185182680D01*
X122211799Y-185162678D01*
X122165306Y-185109022D01*
X122153920Y-185056680D01*
X122153920Y-183611782D01*
X122150002Y-183598438D01*
X122135726Y-183596451D01*
X122097244Y-183602340D01*
X122087208Y-183604731D01*
X121928892Y-183656476D01*
X121857928Y-183658627D01*
X121797066Y-183622071D01*
X121769136Y-183570679D01*
X121768874Y-183568603D01*
X121765741Y-183560689D01*
X121752600Y-183527498D01*
X121748755Y-183516268D01*
X121738630Y-183481417D01*
X121738630Y-183481416D01*
X121736419Y-183473807D01*
X121729257Y-183461696D01*
X121726105Y-183456366D01*
X121717408Y-183438613D01*
X121712872Y-183427158D01*
X121709952Y-183419783D01*
X121683963Y-183384012D01*
X121677447Y-183374092D01*
X121658978Y-183342863D01*
X121654942Y-183336038D01*
X121640621Y-183321717D01*
X121627780Y-183306683D01*
X121622123Y-183298897D01*
X121615872Y-183290293D01*
X121581795Y-183262102D01*
X121573016Y-183254112D01*
X120447552Y-182128647D01*
X120440012Y-182120361D01*
X120435900Y-182113882D01*
X120386248Y-182067256D01*
X120383407Y-182064502D01*
X120363670Y-182044765D01*
X120360473Y-182042285D01*
X120351451Y-182034580D01*
X120338022Y-182021969D01*
X120319221Y-182004314D01*
X120312275Y-182000495D01*
X120312272Y-182000493D01*
X120301466Y-181994552D01*
X120284947Y-181983701D01*
X120281463Y-181980999D01*
X120268941Y-181971286D01*
X120261672Y-181968141D01*
X120261668Y-181968138D01*
X120228363Y-181953726D01*
X120217713Y-181948509D01*
X120178960Y-181927205D01*
X120159337Y-181922167D01*
X120140634Y-181915763D01*
X120129320Y-181910867D01*
X120129319Y-181910867D01*
X120122045Y-181907719D01*
X120114222Y-181906480D01*
X120114212Y-181906477D01*
X120078376Y-181900801D01*
X120066756Y-181898395D01*
X120031611Y-181889372D01*
X120031610Y-181889372D01*
X120023930Y-181887400D01*
X120003676Y-181887400D01*
X119983965Y-181885849D01*
X119971786Y-181883920D01*
X119963957Y-181882680D01*
X119934686Y-181885447D01*
X119919939Y-181886841D01*
X119908081Y-181887400D01*
X104604867Y-181887400D01*
X104593684Y-181886873D01*
X104586191Y-181885198D01*
X104578265Y-181885447D01*
X104578264Y-181885447D01*
X104518114Y-181887338D01*
X104514155Y-181887400D01*
X104486244Y-181887400D01*
X104482310Y-181887897D01*
X104482309Y-181887897D01*
X104482244Y-181887905D01*
X104470407Y-181888838D01*
X104438590Y-181889838D01*
X104434129Y-181889978D01*
X104426210Y-181890227D01*
X104408554Y-181895356D01*
X104406758Y-181895878D01*
X104387406Y-181899886D01*
X104380335Y-181900780D01*
X104367303Y-181902426D01*
X104359934Y-181905343D01*
X104359932Y-181905344D01*
X104326197Y-181918700D01*
X104314969Y-181922545D01*
X104272507Y-181934882D01*
X104265684Y-181938917D01*
X104265682Y-181938918D01*
X104255072Y-181945193D01*
X104237324Y-181953888D01*
X104218483Y-181961348D01*
X104212067Y-181966010D01*
X104212066Y-181966010D01*
X104182713Y-181987336D01*
X104172793Y-181993852D01*
X104141565Y-182012320D01*
X104141562Y-182012322D01*
X104134738Y-182016358D01*
X104120417Y-182030679D01*
X104105384Y-182043519D01*
X104088993Y-182055428D01*
X104060802Y-182089505D01*
X104052812Y-182098284D01*
X102965447Y-183185648D01*
X102957161Y-183193188D01*
X102950682Y-183197300D01*
X102945257Y-183203077D01*
X102904057Y-183246951D01*
X102901302Y-183249793D01*
X102881565Y-183269530D01*
X102879085Y-183272727D01*
X102871382Y-183281747D01*
X102841114Y-183313979D01*
X102837295Y-183320925D01*
X102837293Y-183320928D01*
X102831352Y-183331734D01*
X102820501Y-183348253D01*
X102808086Y-183364259D01*
X102804941Y-183371528D01*
X102804938Y-183371532D01*
X102790526Y-183404837D01*
X102785309Y-183415487D01*
X102764005Y-183454240D01*
X102762034Y-183461915D01*
X102762034Y-183461916D01*
X102758967Y-183473862D01*
X102752563Y-183492566D01*
X102750830Y-183496572D01*
X102744519Y-183511155D01*
X102743280Y-183518978D01*
X102743277Y-183518988D01*
X102737601Y-183554824D01*
X102735194Y-183566449D01*
X102733973Y-183571204D01*
X102697657Y-183632209D01*
X102634124Y-183663896D01*
X102569872Y-183658639D01*
X102440879Y-183612960D01*
X102430908Y-183610326D01*
X102359757Y-183597652D01*
X102346460Y-183599112D01*
X102341920Y-183613669D01*
X102341920Y-185056680D01*
X102321918Y-185124801D01*
X102268262Y-185171294D01*
X102215920Y-185182680D01*
X101959920Y-185182680D01*
X101891799Y-185162678D01*
X101845306Y-185109022D01*
X101833920Y-185056680D01*
X101833920Y-183611782D01*
X101830002Y-183598438D01*
X101815726Y-183596451D01*
X101777244Y-183602340D01*
X101767208Y-183604731D01*
X101605250Y-183657667D01*
X101534286Y-183659818D01*
X101473424Y-183623262D01*
X101441988Y-183559604D01*
X101440167Y-183541862D01*
X101438562Y-183490815D01*
X101438500Y-183486855D01*
X101438500Y-183458944D01*
X101437995Y-183454944D01*
X101437062Y-183443101D01*
X101437015Y-183441581D01*
X101435673Y-183398910D01*
X101430022Y-183379458D01*
X101426014Y-183360106D01*
X101424467Y-183347863D01*
X101423474Y-183340003D01*
X101420200Y-183331734D01*
X101407200Y-183298897D01*
X101403355Y-183287670D01*
X101398993Y-183272656D01*
X101391018Y-183245207D01*
X101386984Y-183238385D01*
X101386981Y-183238379D01*
X101380706Y-183227768D01*
X101372010Y-183210018D01*
X101367472Y-183198556D01*
X101367469Y-183198551D01*
X101364552Y-183191183D01*
X101338573Y-183155425D01*
X101332057Y-183145507D01*
X101313575Y-183114257D01*
X101309542Y-183107437D01*
X101295218Y-183093113D01*
X101282376Y-183078078D01*
X101270472Y-183061693D01*
X101236406Y-183033511D01*
X101227627Y-183025522D01*
X101080052Y-182877947D01*
X101072512Y-182869661D01*
X101068400Y-182863182D01*
X101018748Y-182816556D01*
X101015907Y-182813802D01*
X100996170Y-182794065D01*
X100992973Y-182791585D01*
X100983951Y-182783880D01*
X100979798Y-182779980D01*
X100951721Y-182753614D01*
X100944775Y-182749795D01*
X100944772Y-182749793D01*
X100933966Y-182743852D01*
X100917447Y-182733001D01*
X100916983Y-182732641D01*
X100901441Y-182720586D01*
X100894172Y-182717441D01*
X100894168Y-182717438D01*
X100860863Y-182703026D01*
X100850213Y-182697809D01*
X100811460Y-182676505D01*
X100791837Y-182671467D01*
X100773134Y-182665063D01*
X100761820Y-182660167D01*
X100761819Y-182660167D01*
X100754545Y-182657019D01*
X100746722Y-182655780D01*
X100746712Y-182655777D01*
X100710876Y-182650101D01*
X100699256Y-182647695D01*
X100664111Y-182638672D01*
X100664110Y-182638672D01*
X100656430Y-182636700D01*
X100636176Y-182636700D01*
X100616465Y-182635149D01*
X100604286Y-182633220D01*
X100596457Y-182631980D01*
X100567186Y-182634747D01*
X100552439Y-182636141D01*
X100540581Y-182636700D01*
X97378568Y-182636700D01*
X97367385Y-182636173D01*
X97359892Y-182634498D01*
X97351966Y-182634747D01*
X97351965Y-182634747D01*
X97291802Y-182636638D01*
X97287844Y-182636700D01*
X97259944Y-182636700D01*
X97255954Y-182637204D01*
X97244120Y-182638136D01*
X97199911Y-182639526D01*
X97192295Y-182641739D01*
X97192293Y-182641739D01*
X97180452Y-182645179D01*
X97161093Y-182649188D01*
X97159783Y-182649354D01*
X97141003Y-182651726D01*
X97133637Y-182654642D01*
X97133631Y-182654644D01*
X97099898Y-182668000D01*
X97088668Y-182671845D01*
X97072628Y-182676505D01*
X97046207Y-182684181D01*
X97039384Y-182688216D01*
X97028766Y-182694495D01*
X97011013Y-182703192D01*
X97003368Y-182706219D01*
X96992183Y-182710648D01*
X96978505Y-182720586D01*
X96956412Y-182736637D01*
X96946495Y-182743151D01*
X96908438Y-182765658D01*
X96902833Y-182771262D01*
X96894115Y-182779980D01*
X96879082Y-182792820D01*
X96862693Y-182804728D01*
X96857641Y-182810835D01*
X96834512Y-182838793D01*
X96826522Y-182847574D01*
X96615662Y-183058433D01*
X96607383Y-183065967D01*
X96600902Y-183070080D01*
X96579273Y-183093113D01*
X96554276Y-183119732D01*
X96551521Y-183122574D01*
X96531785Y-183142310D01*
X96529305Y-183145507D01*
X96521602Y-183154527D01*
X96491334Y-183186759D01*
X96487515Y-183193705D01*
X96487513Y-183193708D01*
X96481572Y-183204514D01*
X96470721Y-183221033D01*
X96458306Y-183237039D01*
X96455161Y-183244308D01*
X96455158Y-183244312D01*
X96440746Y-183277617D01*
X96435529Y-183288267D01*
X96414225Y-183327020D01*
X96412254Y-183334695D01*
X96412254Y-183334696D01*
X96409187Y-183346642D01*
X96402783Y-183365346D01*
X96394739Y-183383935D01*
X96393500Y-183391758D01*
X96393497Y-183391768D01*
X96387821Y-183427604D01*
X96385415Y-183439224D01*
X96378288Y-183466984D01*
X96374420Y-183482050D01*
X96374420Y-183502304D01*
X96372869Y-183522014D01*
X96369700Y-183542023D01*
X96370446Y-183549915D01*
X96373861Y-183586041D01*
X96374420Y-183597899D01*
X96374420Y-183650372D01*
X96354418Y-183718493D01*
X96306603Y-183762133D01*
X96281527Y-183775187D01*
X96277394Y-183778290D01*
X96277391Y-183778292D01*
X96153700Y-183871162D01*
X96102885Y-183909315D01*
X96077461Y-183935920D01*
X96009200Y-184007351D01*
X95948549Y-184070818D01*
X95841121Y-184228301D01*
X95786213Y-184273301D01*
X95715688Y-184281472D01*
X95651941Y-184250218D01*
X95631244Y-184225734D01*
X95550742Y-184101297D01*
X95550740Y-184101294D01*
X95547934Y-184096957D01*
X95397590Y-183931731D01*
X95393539Y-183928532D01*
X95393535Y-183928528D01*
X95226334Y-183796480D01*
X95226330Y-183796478D01*
X95222279Y-183793278D01*
X95185948Y-183773222D01*
X95127309Y-183740852D01*
X95026709Y-183685318D01*
X95021840Y-183683594D01*
X95021836Y-183683592D01*
X94821007Y-183612475D01*
X94821003Y-183612474D01*
X94816132Y-183610749D01*
X94811039Y-183609842D01*
X94811036Y-183609841D01*
X94601293Y-183572480D01*
X94601287Y-183572479D01*
X94596204Y-183571574D01*
X94522372Y-183570672D01*
X94378001Y-183568908D01*
X94377999Y-183568908D01*
X94372831Y-183568845D01*
X94152011Y-183602635D01*
X93939676Y-183672037D01*
X93866677Y-183710038D01*
X93763342Y-183763831D01*
X93741527Y-183775187D01*
X93737394Y-183778290D01*
X93737391Y-183778292D01*
X93613700Y-183871162D01*
X93562885Y-183909315D01*
X93537461Y-183935920D01*
X93469200Y-184007351D01*
X93408549Y-184070818D01*
X93301121Y-184228301D01*
X93246213Y-184273301D01*
X93175688Y-184281472D01*
X93111941Y-184250218D01*
X93091244Y-184225734D01*
X93010742Y-184101297D01*
X93010740Y-184101294D01*
X93007934Y-184096957D01*
X92857590Y-183931731D01*
X92853539Y-183928532D01*
X92853535Y-183928528D01*
X92686334Y-183796480D01*
X92686330Y-183796478D01*
X92682279Y-183793278D01*
X92645948Y-183773222D01*
X92587309Y-183740852D01*
X92486709Y-183685318D01*
X92481840Y-183683594D01*
X92481836Y-183683592D01*
X92281007Y-183612475D01*
X92281003Y-183612474D01*
X92276132Y-183610749D01*
X92271039Y-183609842D01*
X92271036Y-183609841D01*
X92061293Y-183572480D01*
X92061287Y-183572479D01*
X92056204Y-183571574D01*
X91982372Y-183570672D01*
X91838001Y-183568908D01*
X91837999Y-183568908D01*
X91832831Y-183568845D01*
X91612011Y-183602635D01*
X91399676Y-183672037D01*
X91326677Y-183710038D01*
X91223342Y-183763831D01*
X91201527Y-183775187D01*
X91197394Y-183778290D01*
X91197391Y-183778292D01*
X91073700Y-183871162D01*
X91022885Y-183909315D01*
X90997461Y-183935920D01*
X90929200Y-184007351D01*
X90868549Y-184070818D01*
X90761121Y-184228301D01*
X90706213Y-184273301D01*
X90635688Y-184281472D01*
X90571941Y-184250218D01*
X90551244Y-184225734D01*
X90470742Y-184101297D01*
X90470740Y-184101294D01*
X90467934Y-184096957D01*
X90317590Y-183931731D01*
X90313539Y-183928532D01*
X90313535Y-183928528D01*
X90146334Y-183796480D01*
X90146330Y-183796478D01*
X90142279Y-183793278D01*
X90105948Y-183773222D01*
X90047309Y-183740852D01*
X89946709Y-183685318D01*
X89941840Y-183683594D01*
X89941836Y-183683592D01*
X89741007Y-183612475D01*
X89741003Y-183612474D01*
X89736132Y-183610749D01*
X89731039Y-183609842D01*
X89731036Y-183609841D01*
X89521293Y-183572480D01*
X89521287Y-183572479D01*
X89516204Y-183571574D01*
X89442372Y-183570672D01*
X89298001Y-183568908D01*
X89297999Y-183568908D01*
X89292831Y-183568845D01*
X89072011Y-183602635D01*
X88859676Y-183672037D01*
X88786677Y-183710038D01*
X88683342Y-183763831D01*
X88661527Y-183775187D01*
X88657394Y-183778290D01*
X88657391Y-183778292D01*
X88533700Y-183871162D01*
X88482885Y-183909315D01*
X88457461Y-183935920D01*
X88389200Y-184007351D01*
X88328549Y-184070818D01*
X88221121Y-184228301D01*
X88166213Y-184273301D01*
X88095688Y-184281472D01*
X88031941Y-184250218D01*
X88011244Y-184225734D01*
X87930742Y-184101297D01*
X87930740Y-184101294D01*
X87927934Y-184096957D01*
X87777590Y-183931731D01*
X87773539Y-183928532D01*
X87773535Y-183928528D01*
X87606334Y-183796480D01*
X87606330Y-183796478D01*
X87602279Y-183793278D01*
X87565948Y-183773222D01*
X87507309Y-183740852D01*
X87406709Y-183685318D01*
X87401840Y-183683594D01*
X87401836Y-183683592D01*
X87201007Y-183612475D01*
X87201003Y-183612474D01*
X87196132Y-183610749D01*
X87191039Y-183609842D01*
X87191036Y-183609841D01*
X86981293Y-183572480D01*
X86981287Y-183572479D01*
X86976204Y-183571574D01*
X86902372Y-183570672D01*
X86758001Y-183568908D01*
X86757999Y-183568908D01*
X86752831Y-183568845D01*
X86532011Y-183602635D01*
X86319676Y-183672037D01*
X86246677Y-183710038D01*
X86143342Y-183763831D01*
X86121527Y-183775187D01*
X86117394Y-183778290D01*
X86117391Y-183778292D01*
X85993700Y-183871162D01*
X85942885Y-183909315D01*
X85917461Y-183935920D01*
X85849200Y-184007351D01*
X85788549Y-184070818D01*
X85785640Y-184075083D01*
X85785634Y-184075091D01*
X85767547Y-184101606D01*
X85681124Y-184228298D01*
X85680818Y-184228746D01*
X85625907Y-184273749D01*
X85555382Y-184281920D01*
X85491635Y-184250666D01*
X85470938Y-184226182D01*
X85390346Y-184101606D01*
X85384056Y-184093437D01*
X85240726Y-183935920D01*
X85233193Y-183928895D01*
X85066059Y-183796902D01*
X85057472Y-183791197D01*
X84871037Y-183688279D01*
X84861625Y-183684049D01*
X84660879Y-183612960D01*
X84650908Y-183610326D01*
X84579757Y-183597652D01*
X84566460Y-183599112D01*
X84561920Y-183613669D01*
X84561920Y-185056680D01*
X84541918Y-185124801D01*
X84488262Y-185171294D01*
X84435920Y-185182680D01*
X82991145Y-185182680D01*
X82977614Y-185186653D01*
X82976177Y-185196646D01*
X83006485Y-185331126D01*
X83009565Y-185340955D01*
X83089690Y-185538283D01*
X83094333Y-185547474D01*
X83205614Y-185729068D01*
X83211697Y-185737379D01*
X83351133Y-185898347D01*
X83358500Y-185905563D01*
X83522354Y-186041596D01*
X83530801Y-186047511D01*
X83599889Y-186087883D01*
X83648613Y-186139522D01*
X83661684Y-186209305D01*
X83634953Y-186275076D01*
X83594504Y-186308432D01*
X83581527Y-186315187D01*
X83577394Y-186318290D01*
X83577391Y-186318292D01*
X83407020Y-186446210D01*
X83402885Y-186449315D01*
X83248549Y-186610818D01*
X83245640Y-186615083D01*
X83245634Y-186615091D01*
X83194413Y-186690178D01*
X83122663Y-186795360D01*
X83028608Y-186997985D01*
X82968909Y-187213250D01*
X82945171Y-187435375D01*
X82945468Y-187440528D01*
X82945468Y-187440531D01*
X82950931Y-187535270D01*
X82958030Y-187658395D01*
X82959167Y-187663441D01*
X82959168Y-187663447D01*
X82964366Y-187686511D01*
X83007142Y-187876319D01*
X83091186Y-188083296D01*
X83132343Y-188150458D01*
X83205211Y-188269368D01*
X83207907Y-188273768D01*
X83354170Y-188442618D01*
X83526046Y-188585312D01*
X83718920Y-188698018D01*
X83927612Y-188777710D01*
X83932680Y-188778741D01*
X83932683Y-188778742D01*
X84037524Y-188800072D01*
X84146517Y-188822247D01*
X84151692Y-188822437D01*
X84151694Y-188822437D01*
X84364593Y-188830244D01*
X84364597Y-188830244D01*
X84369757Y-188830433D01*
X84374877Y-188829777D01*
X84374879Y-188829777D01*
X84586208Y-188802705D01*
X84586209Y-188802705D01*
X84591336Y-188802048D01*
X84596286Y-188800563D01*
X84800349Y-188739341D01*
X84800354Y-188739339D01*
X84805304Y-188737854D01*
X85005914Y-188639576D01*
X85187780Y-188509853D01*
X85346016Y-188352169D01*
X85405514Y-188269369D01*
X85476373Y-188170757D01*
X85477696Y-188171708D01*
X85524565Y-188128537D01*
X85594500Y-188116305D01*
X85659946Y-188143824D01*
X85687795Y-188175674D01*
X85747907Y-188273768D01*
X85894170Y-188442618D01*
X86066046Y-188585312D01*
X86258920Y-188698018D01*
X86467612Y-188777710D01*
X86472680Y-188778741D01*
X86472683Y-188778742D01*
X86577524Y-188800072D01*
X86686517Y-188822247D01*
X86691692Y-188822437D01*
X86691694Y-188822437D01*
X86904593Y-188830244D01*
X86904597Y-188830244D01*
X86909757Y-188830433D01*
X86914877Y-188829777D01*
X86914879Y-188829777D01*
X87126208Y-188802705D01*
X87126209Y-188802705D01*
X87131336Y-188802048D01*
X87136286Y-188800563D01*
X87340349Y-188739341D01*
X87340354Y-188739339D01*
X87345304Y-188737854D01*
X87545914Y-188639576D01*
X87727780Y-188509853D01*
X87886016Y-188352169D01*
X87945514Y-188269369D01*
X88016373Y-188170757D01*
X88017696Y-188171708D01*
X88064565Y-188128537D01*
X88134500Y-188116305D01*
X88199946Y-188143824D01*
X88227795Y-188175674D01*
X88287907Y-188273768D01*
X88434170Y-188442618D01*
X88606046Y-188585312D01*
X88658513Y-188615971D01*
X88685680Y-188631846D01*
X88734404Y-188683484D01*
X88748108Y-188741257D01*
X88747168Y-188930913D01*
X88746980Y-188968845D01*
X88746423Y-188980081D01*
X88746108Y-188983407D01*
X88744378Y-188991149D01*
X88746456Y-189057240D01*
X88746459Y-189057347D01*
X88746519Y-189061907D01*
X88746390Y-189087957D01*
X88746866Y-189091884D01*
X88746867Y-189091894D01*
X88747103Y-189093838D01*
X88747959Y-189105055D01*
X88749407Y-189151129D01*
X88751619Y-189158743D01*
X88751620Y-189158748D01*
X88754530Y-189168765D01*
X88758616Y-189188743D01*
X88759212Y-189193652D01*
X88760827Y-189206971D01*
X88763709Y-189214356D01*
X88763710Y-189214361D01*
X88777587Y-189249923D01*
X88781203Y-189260570D01*
X88794062Y-189304833D01*
X88803413Y-189320645D01*
X88812335Y-189338974D01*
X88816129Y-189348698D01*
X88816132Y-189348704D01*
X88819011Y-189356081D01*
X88823635Y-189362512D01*
X88823636Y-189362514D01*
X88845922Y-189393509D01*
X88852071Y-189402921D01*
X88875538Y-189442602D01*
X88888517Y-189455581D01*
X88901723Y-189471120D01*
X88912448Y-189486036D01*
X88918528Y-189491116D01*
X88918530Y-189491119D01*
X88947829Y-189515602D01*
X88956118Y-189523182D01*
X89654131Y-190221195D01*
X89688155Y-190283506D01*
X89683090Y-190354322D01*
X89640543Y-190411157D01*
X89574023Y-190435968D01*
X89542938Y-190434336D01*
X89521293Y-190430480D01*
X89521287Y-190430479D01*
X89516204Y-190429574D01*
X89442372Y-190428672D01*
X89298001Y-190426908D01*
X89297999Y-190426908D01*
X89292831Y-190426845D01*
X89072011Y-190460635D01*
X88859676Y-190530037D01*
X88661527Y-190633187D01*
X88657394Y-190636290D01*
X88657391Y-190636292D01*
X88574370Y-190698626D01*
X88482885Y-190767315D01*
X88328549Y-190928818D01*
X88221121Y-191086301D01*
X88166213Y-191131301D01*
X88095688Y-191139472D01*
X88031941Y-191108218D01*
X88011244Y-191083734D01*
X87930742Y-190959297D01*
X87930740Y-190959294D01*
X87927934Y-190954957D01*
X87777590Y-190789731D01*
X87773539Y-190786532D01*
X87773535Y-190786528D01*
X87606334Y-190654480D01*
X87606330Y-190654478D01*
X87602279Y-190651278D01*
X87565948Y-190631222D01*
X87550055Y-190622449D01*
X87406709Y-190543318D01*
X87401840Y-190541594D01*
X87401836Y-190541592D01*
X87201007Y-190470475D01*
X87201003Y-190470474D01*
X87196132Y-190468749D01*
X87191039Y-190467842D01*
X87191036Y-190467841D01*
X86981293Y-190430480D01*
X86981287Y-190430479D01*
X86976204Y-190429574D01*
X86902372Y-190428672D01*
X86758001Y-190426908D01*
X86757999Y-190426908D01*
X86752831Y-190426845D01*
X86532011Y-190460635D01*
X86319676Y-190530037D01*
X86121527Y-190633187D01*
X86117394Y-190636290D01*
X86117391Y-190636292D01*
X86034370Y-190698626D01*
X85942885Y-190767315D01*
X85788549Y-190928818D01*
X85681121Y-191086301D01*
X85626213Y-191131301D01*
X85555688Y-191139472D01*
X85491941Y-191108218D01*
X85471244Y-191083734D01*
X85390742Y-190959297D01*
X85390740Y-190959294D01*
X85387934Y-190954957D01*
X85237590Y-190789731D01*
X85233539Y-190786532D01*
X85233535Y-190786528D01*
X85066334Y-190654480D01*
X85066330Y-190654478D01*
X85062279Y-190651278D01*
X85025948Y-190631222D01*
X85010055Y-190622449D01*
X84866709Y-190543318D01*
X84861840Y-190541594D01*
X84861836Y-190541592D01*
X84661007Y-190470475D01*
X84661003Y-190470474D01*
X84656132Y-190468749D01*
X84651039Y-190467842D01*
X84651036Y-190467841D01*
X84441293Y-190430480D01*
X84441287Y-190430479D01*
X84436204Y-190429574D01*
X84362372Y-190428672D01*
X84218001Y-190426908D01*
X84217999Y-190426908D01*
X84212831Y-190426845D01*
X83992011Y-190460635D01*
X83779676Y-190530037D01*
X83581527Y-190633187D01*
X83577394Y-190636290D01*
X83577391Y-190636292D01*
X83494370Y-190698626D01*
X83402885Y-190767315D01*
X83399313Y-190771053D01*
X83321818Y-190852146D01*
X83260294Y-190887575D01*
X83189382Y-190884118D01*
X83131596Y-190842872D01*
X83112743Y-190809324D01*
X83071244Y-190698626D01*
X83062706Y-190683031D01*
X82986205Y-190580956D01*
X82973644Y-190568395D01*
X82871569Y-190491894D01*
X82855974Y-190483356D01*
X82735526Y-190438202D01*
X82720271Y-190434575D01*
X82669406Y-190429049D01*
X82662592Y-190428680D01*
X82040035Y-190428680D01*
X82024796Y-190433155D01*
X82023591Y-190434545D01*
X82021920Y-190442228D01*
X82021920Y-193126564D01*
X81513920Y-193126564D01*
X81513920Y-192058795D01*
X81509445Y-192043556D01*
X81508055Y-192042351D01*
X81500372Y-192040680D01*
X80428036Y-192040680D01*
X80412797Y-192045155D01*
X80411592Y-192046545D01*
X80409921Y-192054228D01*
X80409921Y-192681349D01*
X77038420Y-192681349D01*
X77038420Y-191514565D01*
X80409920Y-191514565D01*
X80414395Y-191529804D01*
X80415785Y-191531009D01*
X80423468Y-191532680D01*
X81495805Y-191532680D01*
X81511044Y-191528205D01*
X81512249Y-191526815D01*
X81513920Y-191519132D01*
X81513920Y-190446796D01*
X81509445Y-190431557D01*
X81508055Y-190430352D01*
X81500372Y-190428681D01*
X80873251Y-190428681D01*
X80866430Y-190429051D01*
X80815568Y-190434575D01*
X80800316Y-190438201D01*
X80679866Y-190483356D01*
X80664271Y-190491894D01*
X80562196Y-190568395D01*
X80549635Y-190580956D01*
X80473134Y-190683031D01*
X80464596Y-190698626D01*
X80419442Y-190819074D01*
X80415815Y-190834329D01*
X80410289Y-190885194D01*
X80409920Y-190892008D01*
X80409920Y-191514565D01*
X77038420Y-191514565D01*
X77038420Y-188402172D01*
X77649969Y-188402172D01*
X77649987Y-188402425D01*
X77655901Y-188411168D01*
X77675592Y-188429085D01*
X77681224Y-188433646D01*
X77942982Y-188621738D01*
X77949112Y-188625628D01*
X78230751Y-188782386D01*
X78237271Y-188785538D01*
X78535071Y-188908891D01*
X78541922Y-188911277D01*
X78851909Y-188999579D01*
X78858998Y-189001164D01*
X79177091Y-189053254D01*
X79184297Y-189054011D01*
X79506272Y-189069195D01*
X79513522Y-189069119D01*
X79835098Y-189047197D01*
X79842307Y-189046286D01*
X80159239Y-188987546D01*
X80166269Y-188985819D01*
X80474365Y-188891036D01*
X80481142Y-188888516D01*
X80776309Y-188758947D01*
X80782749Y-188755666D01*
X81061063Y-188593032D01*
X81067096Y-188589023D01*
X81301609Y-188412946D01*
X81310063Y-188401619D01*
X81303318Y-188389289D01*
X79492730Y-186578700D01*
X79478789Y-186571088D01*
X79476954Y-186571219D01*
X79470340Y-186575470D01*
X77657583Y-188388228D01*
X77649969Y-188402172D01*
X77038420Y-188402172D01*
X77038420Y-188091784D01*
X77058422Y-188023663D01*
X77112078Y-187977170D01*
X77182352Y-187967066D01*
X77246932Y-187996560D01*
X77259368Y-188008954D01*
X77274978Y-188026848D01*
X77288153Y-188035253D01*
X77298004Y-188029385D01*
X79107900Y-186219490D01*
X79114277Y-186207811D01*
X79844328Y-186207811D01*
X79844459Y-186209646D01*
X79848710Y-186216260D01*
X81659696Y-188027245D01*
X81673050Y-188034537D01*
X81683022Y-188027483D01*
X81775933Y-187916361D01*
X81780249Y-187910550D01*
X81957228Y-187641127D01*
X81960842Y-187634865D01*
X82105679Y-187346888D01*
X82108552Y-187340250D01*
X82219327Y-187037544D01*
X82221423Y-187030603D01*
X82296671Y-186717175D01*
X82297955Y-186710036D01*
X82336778Y-186389218D01*
X82337202Y-186383648D01*
X82342675Y-186209477D01*
X82342602Y-186203884D01*
X82323999Y-185881253D01*
X82323167Y-185874063D01*
X82267748Y-185556520D01*
X82266093Y-185549465D01*
X82174547Y-185240413D01*
X82172090Y-185233588D01*
X82045626Y-184937097D01*
X82042405Y-184930608D01*
X81889685Y-184662863D01*
X82972309Y-184662863D01*
X82973832Y-184671287D01*
X82986212Y-184674680D01*
X84035805Y-184674680D01*
X84051044Y-184670205D01*
X84052249Y-184668815D01*
X84053920Y-184661132D01*
X84053920Y-183611782D01*
X84050002Y-183598438D01*
X84035726Y-183596451D01*
X83997244Y-183602340D01*
X83987208Y-183604731D01*
X83784788Y-183670892D01*
X83775279Y-183674889D01*
X83586383Y-183773222D01*
X83577658Y-183778716D01*
X83407353Y-183906585D01*
X83399646Y-183913428D01*
X83252510Y-184067397D01*
X83246024Y-184075407D01*
X83126018Y-184251329D01*
X83120920Y-184260303D01*
X83031258Y-184453463D01*
X83027695Y-184463150D01*
X82972309Y-184662863D01*
X81889685Y-184662863D01*
X81882693Y-184650604D01*
X81878761Y-184644549D01*
X81687923Y-184384755D01*
X81686680Y-184383253D01*
X81673957Y-184375687D01*
X81673351Y-184375708D01*
X81664871Y-184380940D01*
X79851940Y-186193870D01*
X79844328Y-186207811D01*
X79114277Y-186207811D01*
X79115512Y-186205549D01*
X79115381Y-186203714D01*
X79111130Y-186197100D01*
X77299138Y-184385109D01*
X77286345Y-184378123D01*
X77275591Y-184385988D01*
X77263574Y-184401314D01*
X77205801Y-184442579D01*
X77134890Y-184446059D01*
X77073354Y-184410649D01*
X77040731Y-184347591D01*
X77038420Y-184323568D01*
X77038420Y-184014442D01*
X77651766Y-184014442D01*
X77658161Y-184025710D01*
X79467110Y-185834660D01*
X79481051Y-185842272D01*
X79482886Y-185842141D01*
X79489500Y-185837890D01*
X81300595Y-184026794D01*
X81307987Y-184013257D01*
X81301199Y-184003555D01*
X81213557Y-183928702D01*
X81207769Y-183924309D01*
X80940234Y-183744532D01*
X80934011Y-183740852D01*
X80647563Y-183593005D01*
X80640952Y-183590062D01*
X80339427Y-183476125D01*
X80332501Y-183473954D01*
X80019877Y-183395429D01*
X80012770Y-183394073D01*
X79693193Y-183351999D01*
X79685951Y-183351468D01*
X79363679Y-183346405D01*
X79356417Y-183346709D01*
X79035681Y-183378723D01*
X79028533Y-183379855D01*
X78713590Y-183448524D01*
X78706612Y-183450472D01*
X78401647Y-183554885D01*
X78394953Y-183557617D01*
X78104010Y-183696390D01*
X78097655Y-183699884D01*
X77824614Y-183871162D01*
X77818686Y-183875374D01*
X77660236Y-184002316D01*
X77651766Y-184014442D01*
X77038420Y-184014442D01*
X77038420Y-139402172D01*
X77649969Y-139402172D01*
X77649987Y-139402425D01*
X77655901Y-139411168D01*
X77675592Y-139429085D01*
X77681224Y-139433646D01*
X77942982Y-139621738D01*
X77949112Y-139625628D01*
X78230751Y-139782386D01*
X78237271Y-139785538D01*
X78535071Y-139908891D01*
X78541922Y-139911277D01*
X78851909Y-139999579D01*
X78858998Y-140001164D01*
X79177091Y-140053254D01*
X79184297Y-140054011D01*
X79506272Y-140069195D01*
X79513522Y-140069119D01*
X79835098Y-140047197D01*
X79842307Y-140046286D01*
X80159239Y-139987546D01*
X80166269Y-139985819D01*
X80474365Y-139891036D01*
X80481142Y-139888516D01*
X80776309Y-139758947D01*
X80782749Y-139755666D01*
X81061063Y-139593032D01*
X81067096Y-139589023D01*
X81301609Y-139412946D01*
X81310063Y-139401619D01*
X81303318Y-139389289D01*
X79492730Y-137578700D01*
X79478789Y-137571088D01*
X79476954Y-137571219D01*
X79470340Y-137575470D01*
X77657583Y-139388228D01*
X77649969Y-139402172D01*
X77038420Y-139402172D01*
X77038420Y-139091784D01*
X77058422Y-139023663D01*
X77112078Y-138977170D01*
X77182352Y-138967066D01*
X77246932Y-138996560D01*
X77259368Y-139008954D01*
X77274978Y-139026848D01*
X77288153Y-139035253D01*
X77298004Y-139029385D01*
X79107900Y-137219490D01*
X79114277Y-137207811D01*
X79844328Y-137207811D01*
X79844459Y-137209646D01*
X79848710Y-137216260D01*
X81659696Y-139027245D01*
X81673050Y-139034537D01*
X81683022Y-139027483D01*
X81775933Y-138916361D01*
X81780249Y-138910550D01*
X81957228Y-138641127D01*
X81960842Y-138634865D01*
X82105679Y-138346888D01*
X82108552Y-138340250D01*
X82219327Y-138037544D01*
X82221423Y-138030603D01*
X82296671Y-137717175D01*
X82297955Y-137710036D01*
X82336778Y-137389218D01*
X82337202Y-137383648D01*
X82342675Y-137209477D01*
X82342602Y-137203884D01*
X82323999Y-136881253D01*
X82323167Y-136874063D01*
X82267748Y-136556520D01*
X82266093Y-136549465D01*
X82174547Y-136240413D01*
X82172090Y-136233588D01*
X82045626Y-135937097D01*
X82042405Y-135930608D01*
X81882693Y-135650604D01*
X81878761Y-135644549D01*
X81687923Y-135384755D01*
X81686680Y-135383253D01*
X81673957Y-135375687D01*
X81673351Y-135375708D01*
X81664871Y-135380940D01*
X79851940Y-137193870D01*
X79844328Y-137207811D01*
X79114277Y-137207811D01*
X79115512Y-137205549D01*
X79115381Y-137203714D01*
X79111130Y-137197100D01*
X77299138Y-135385109D01*
X77286345Y-135378123D01*
X77275591Y-135385988D01*
X77263574Y-135401314D01*
X77205801Y-135442579D01*
X77134890Y-135446059D01*
X77073354Y-135410649D01*
X77040731Y-135347591D01*
X77038420Y-135323568D01*
X77038420Y-135014442D01*
X77651766Y-135014442D01*
X77658161Y-135025710D01*
X79467110Y-136834660D01*
X79481051Y-136842272D01*
X79482886Y-136842141D01*
X79489500Y-136837890D01*
X81300595Y-135026794D01*
X81307987Y-135013257D01*
X81301199Y-135003555D01*
X81213557Y-134928702D01*
X81207769Y-134924309D01*
X80940234Y-134744532D01*
X80934011Y-134740852D01*
X80647563Y-134593005D01*
X80640952Y-134590062D01*
X80339427Y-134476125D01*
X80332501Y-134473954D01*
X80019877Y-134395429D01*
X80012770Y-134394073D01*
X79693193Y-134351999D01*
X79685951Y-134351468D01*
X79363679Y-134346405D01*
X79356417Y-134346709D01*
X79035681Y-134378723D01*
X79028533Y-134379855D01*
X78713590Y-134448524D01*
X78706612Y-134450472D01*
X78401647Y-134554885D01*
X78394953Y-134557617D01*
X78104010Y-134696390D01*
X78097655Y-134699884D01*
X77824614Y-134871162D01*
X77818686Y-134875374D01*
X77660236Y-135002316D01*
X77651766Y-135014442D01*
X77038420Y-135014442D01*
X77038420Y-128291180D01*
X77058422Y-128223059D01*
X77112078Y-128176566D01*
X77164420Y-128165180D01*
X145395420Y-128165180D01*
X145463541Y-128185182D01*
G37*
G04 #@! TD.AperFunction*
G04 #@! TA.AperFunction,Conductor*
G36*
X117524041Y-187234682D02*
G01*
X117570534Y-187288338D01*
X117581920Y-187340680D01*
X117581920Y-188787197D01*
X117585984Y-188801039D01*
X117599398Y-188803073D01*
X117606104Y-188802214D01*
X117616182Y-188800072D01*
X117789292Y-188748136D01*
X117860288Y-188747719D01*
X117920238Y-188785752D01*
X117950110Y-188850158D01*
X117951500Y-188868822D01*
X117951500Y-190387976D01*
X117931498Y-190456097D01*
X117877842Y-190502590D01*
X117807568Y-190512694D01*
X117783443Y-190506750D01*
X117703931Y-190478593D01*
X117681007Y-190470475D01*
X117681003Y-190470474D01*
X117676132Y-190468749D01*
X117671039Y-190467842D01*
X117671036Y-190467841D01*
X117461293Y-190430480D01*
X117461287Y-190430479D01*
X117456204Y-190429574D01*
X117382372Y-190428672D01*
X117238001Y-190426908D01*
X117237999Y-190426908D01*
X117232831Y-190426845D01*
X117012011Y-190460635D01*
X116799676Y-190530037D01*
X116601527Y-190633187D01*
X116597394Y-190636290D01*
X116597391Y-190636292D01*
X116514370Y-190698626D01*
X116422885Y-190767315D01*
X116268549Y-190928818D01*
X116161121Y-191086301D01*
X116106213Y-191131301D01*
X116035688Y-191139472D01*
X115971941Y-191108218D01*
X115951244Y-191083734D01*
X115870742Y-190959297D01*
X115870740Y-190959294D01*
X115867934Y-190954957D01*
X115717590Y-190789731D01*
X115713539Y-190786532D01*
X115713535Y-190786528D01*
X115546334Y-190654480D01*
X115546330Y-190654478D01*
X115542279Y-190651278D01*
X115505948Y-190631222D01*
X115490055Y-190622449D01*
X115346709Y-190543318D01*
X115341840Y-190541594D01*
X115341836Y-190541592D01*
X115141007Y-190470475D01*
X115141003Y-190470474D01*
X115136132Y-190468749D01*
X115131039Y-190467842D01*
X115131036Y-190467841D01*
X114921293Y-190430480D01*
X114921287Y-190430479D01*
X114916204Y-190429574D01*
X114842372Y-190428672D01*
X114698001Y-190426908D01*
X114697999Y-190426908D01*
X114692831Y-190426845D01*
X114472011Y-190460635D01*
X114459452Y-190464740D01*
X114388488Y-190466890D01*
X114331214Y-190434069D01*
X114175405Y-190278260D01*
X114141379Y-190215948D01*
X114138500Y-190189165D01*
X114138500Y-188857935D01*
X114158502Y-188789814D01*
X114212158Y-188743321D01*
X114282432Y-188733217D01*
X114309448Y-188740225D01*
X114407612Y-188777710D01*
X114412680Y-188778741D01*
X114412683Y-188778742D01*
X114517524Y-188800072D01*
X114626517Y-188822247D01*
X114631692Y-188822437D01*
X114631694Y-188822437D01*
X114844593Y-188830244D01*
X114844597Y-188830244D01*
X114849757Y-188830433D01*
X114854877Y-188829777D01*
X114854879Y-188829777D01*
X115066208Y-188802705D01*
X115066209Y-188802705D01*
X115071336Y-188802048D01*
X115076286Y-188800563D01*
X115280349Y-188739341D01*
X115280354Y-188739339D01*
X115285304Y-188737854D01*
X115485914Y-188639576D01*
X115667780Y-188509853D01*
X115826016Y-188352169D01*
X115885514Y-188269369D01*
X115956373Y-188170757D01*
X115957560Y-188171610D01*
X116004880Y-188128042D01*
X116074817Y-188115825D01*
X116140258Y-188143358D01*
X116168086Y-188175191D01*
X116225614Y-188269068D01*
X116231697Y-188277379D01*
X116371133Y-188438347D01*
X116378500Y-188445563D01*
X116542354Y-188581596D01*
X116550801Y-188587511D01*
X116734676Y-188694959D01*
X116743962Y-188699409D01*
X116942921Y-188775383D01*
X116952819Y-188778259D01*
X117056170Y-188799286D01*
X117070219Y-188798090D01*
X117073920Y-188787745D01*
X117073920Y-187340680D01*
X117093922Y-187272559D01*
X117147578Y-187226066D01*
X117199920Y-187214680D01*
X117455920Y-187214680D01*
X117524041Y-187234682D01*
G37*
G04 #@! TD.AperFunction*
G04 #@! TA.AperFunction,Conductor*
G36*
X92124041Y-187234682D02*
G01*
X92170534Y-187288338D01*
X92181920Y-187340680D01*
X92181920Y-188787197D01*
X92185984Y-188801039D01*
X92199398Y-188803073D01*
X92206104Y-188802214D01*
X92216182Y-188800072D01*
X92420175Y-188738871D01*
X92429762Y-188735113D01*
X92621015Y-188641419D01*
X92629865Y-188636144D01*
X92803248Y-188512472D01*
X92811120Y-188505819D01*
X92961972Y-188355492D01*
X92968650Y-188347645D01*
X93095942Y-188170499D01*
X93097199Y-188171402D01*
X93144293Y-188128042D01*
X93214231Y-188115825D01*
X93279671Y-188143358D01*
X93307499Y-188175191D01*
X93367907Y-188273768D01*
X93514170Y-188442618D01*
X93686046Y-188585312D01*
X93878920Y-188698018D01*
X94087612Y-188777710D01*
X94092680Y-188778741D01*
X94092683Y-188778742D01*
X94197524Y-188800072D01*
X94306517Y-188822247D01*
X94311692Y-188822437D01*
X94311694Y-188822437D01*
X94524593Y-188830244D01*
X94524597Y-188830244D01*
X94529757Y-188830433D01*
X94534877Y-188829777D01*
X94534879Y-188829777D01*
X94746208Y-188802705D01*
X94746209Y-188802705D01*
X94751336Y-188802048D01*
X94756286Y-188800563D01*
X94960349Y-188739341D01*
X94960354Y-188739339D01*
X94965304Y-188737854D01*
X95165914Y-188639576D01*
X95347780Y-188509853D01*
X95506016Y-188352169D01*
X95565514Y-188269369D01*
X95636373Y-188170757D01*
X95637560Y-188171610D01*
X95684880Y-188128042D01*
X95754817Y-188115825D01*
X95820258Y-188143358D01*
X95848086Y-188175191D01*
X95905614Y-188269068D01*
X95911697Y-188277379D01*
X96051133Y-188438347D01*
X96058500Y-188445563D01*
X96222354Y-188581596D01*
X96230801Y-188587511D01*
X96414676Y-188694959D01*
X96423962Y-188699409D01*
X96622921Y-188775383D01*
X96632819Y-188778259D01*
X96736170Y-188799286D01*
X96750219Y-188798090D01*
X96753920Y-188787745D01*
X96753920Y-187340680D01*
X96773922Y-187272559D01*
X96827578Y-187226066D01*
X96879920Y-187214680D01*
X97135920Y-187214680D01*
X97204041Y-187234682D01*
X97250534Y-187288338D01*
X97261920Y-187340680D01*
X97261920Y-188787197D01*
X97265984Y-188801039D01*
X97279398Y-188803073D01*
X97286104Y-188802214D01*
X97296182Y-188800072D01*
X97500175Y-188738871D01*
X97509762Y-188735113D01*
X97701015Y-188641419D01*
X97709867Y-188636142D01*
X97755275Y-188603753D01*
X97822349Y-188580479D01*
X97891357Y-188597162D01*
X97916255Y-188615969D01*
X98422999Y-189108430D01*
X99557217Y-190210678D01*
X99592129Y-190272498D01*
X99588077Y-190343379D01*
X99546347Y-190400817D01*
X99480188Y-190426576D01*
X99467869Y-190427029D01*
X99460726Y-190426941D01*
X99457999Y-190426908D01*
X99457997Y-190426908D01*
X99452831Y-190426845D01*
X99232011Y-190460635D01*
X99219452Y-190464740D01*
X99148488Y-190466890D01*
X99091214Y-190434069D01*
X98697892Y-190040747D01*
X98690352Y-190032461D01*
X98686240Y-190025982D01*
X98668265Y-190009102D01*
X98636589Y-189979357D01*
X98633747Y-189976602D01*
X98614010Y-189956865D01*
X98610813Y-189954385D01*
X98601791Y-189946680D01*
X98582955Y-189928992D01*
X98569561Y-189916414D01*
X98562615Y-189912595D01*
X98562612Y-189912593D01*
X98551806Y-189906652D01*
X98535287Y-189895801D01*
X98529115Y-189891014D01*
X98519281Y-189883386D01*
X98512012Y-189880241D01*
X98512008Y-189880238D01*
X98478703Y-189865826D01*
X98468053Y-189860609D01*
X98429300Y-189839305D01*
X98409677Y-189834267D01*
X98390974Y-189827863D01*
X98379660Y-189822967D01*
X98379659Y-189822967D01*
X98372385Y-189819819D01*
X98364562Y-189818580D01*
X98364552Y-189818577D01*
X98328716Y-189812901D01*
X98317096Y-189810495D01*
X98281951Y-189801472D01*
X98281950Y-189801472D01*
X98274270Y-189799500D01*
X98254016Y-189799500D01*
X98234305Y-189797949D01*
X98222126Y-189796020D01*
X98214297Y-189794780D01*
X98206405Y-189795526D01*
X98170279Y-189798941D01*
X98158421Y-189799500D01*
X91076434Y-189799500D01*
X91008313Y-189779498D01*
X90987339Y-189762595D01*
X90521966Y-189297222D01*
X90061219Y-188836474D01*
X90027194Y-188774164D01*
X90032259Y-188703349D01*
X90074806Y-188646513D01*
X90083122Y-188640944D01*
X90085914Y-188639576D01*
X90090123Y-188636574D01*
X90090126Y-188636572D01*
X90186022Y-188568170D01*
X90267780Y-188509853D01*
X90426016Y-188352169D01*
X90485514Y-188269369D01*
X90556373Y-188170757D01*
X90557560Y-188171610D01*
X90604880Y-188128042D01*
X90674817Y-188115825D01*
X90740258Y-188143358D01*
X90768086Y-188175191D01*
X90825614Y-188269068D01*
X90831697Y-188277379D01*
X90971133Y-188438347D01*
X90978500Y-188445563D01*
X91142354Y-188581596D01*
X91150801Y-188587511D01*
X91334676Y-188694959D01*
X91343962Y-188699409D01*
X91542921Y-188775383D01*
X91552819Y-188778259D01*
X91656170Y-188799286D01*
X91670219Y-188798090D01*
X91673920Y-188787745D01*
X91673920Y-187340680D01*
X91693922Y-187272559D01*
X91747578Y-187226066D01*
X91799920Y-187214680D01*
X92055920Y-187214680D01*
X92124041Y-187234682D01*
G37*
G04 #@! TD.AperFunction*
G04 #@! TA.AperFunction,Conductor*
G36*
X90739946Y-185603824D02*
G01*
X90767795Y-185635674D01*
X90827907Y-185733768D01*
X90974170Y-185902618D01*
X91146046Y-186045312D01*
X91218898Y-186087883D01*
X91219875Y-186088454D01*
X91268599Y-186140092D01*
X91281670Y-186209875D01*
X91254939Y-186275647D01*
X91214482Y-186309007D01*
X91206377Y-186313226D01*
X91197658Y-186318716D01*
X91027353Y-186446585D01*
X91019646Y-186453428D01*
X90872510Y-186607397D01*
X90866029Y-186615402D01*
X90761418Y-186768754D01*
X90706507Y-186813756D01*
X90635982Y-186821927D01*
X90572235Y-186790673D01*
X90551538Y-186766189D01*
X90470742Y-186641297D01*
X90470738Y-186641292D01*
X90467934Y-186636957D01*
X90317590Y-186471731D01*
X90313539Y-186468532D01*
X90313535Y-186468528D01*
X90146334Y-186336480D01*
X90146330Y-186336478D01*
X90142279Y-186333278D01*
X90100973Y-186310476D01*
X90051004Y-186260044D01*
X90036232Y-186190601D01*
X90061348Y-186124196D01*
X90088700Y-186097589D01*
X90132523Y-186066330D01*
X90267780Y-185969853D01*
X90426016Y-185812169D01*
X90440005Y-185792702D01*
X90556373Y-185630757D01*
X90557696Y-185631708D01*
X90604565Y-185588537D01*
X90674500Y-185576305D01*
X90739946Y-185603824D01*
G37*
G04 #@! TD.AperFunction*
M02*
