G04 #@! TF.GenerationSoftware,KiCad,Pcbnew,(6.0.10)*
G04 #@! TF.CreationDate,2023-02-13T10:30:41+01:00*
G04 #@! TF.ProjectId,iC880A_Adapter_V1.1,69433838-3041-45f4-9164-61707465725f,rev?*
G04 #@! TF.SameCoordinates,Original*
G04 #@! TF.FileFunction,Legend,Bot*
G04 #@! TF.FilePolarity,Positive*
%FSLAX46Y46*%
G04 Gerber Fmt 4.6, Leading zero omitted, Abs format (unit mm)*
G04 Created by KiCad (PCBNEW (6.0.10)) date 2023-02-13 10:30:41*
%MOMM*%
%LPD*%
G01*
G04 APERTURE LIST*
G04 Aperture macros list*
%AMRoundRect*
0 Rectangle with rounded corners*
0 $1 Rounding radius*
0 $2 $3 $4 $5 $6 $7 $8 $9 X,Y pos of 4 corners*
0 Add a 4 corners polygon primitive as box body*
4,1,4,$2,$3,$4,$5,$6,$7,$8,$9,$2,$3,0*
0 Add four circle primitives for the rounded corners*
1,1,$1+$1,$2,$3*
1,1,$1+$1,$4,$5*
1,1,$1+$1,$6,$7*
1,1,$1+$1,$8,$9*
0 Add four rect primitives between the rounded corners*
20,1,$1+$1,$2,$3,$4,$5,0*
20,1,$1+$1,$4,$5,$6,$7,0*
20,1,$1+$1,$6,$7,$8,$9,0*
20,1,$1+$1,$8,$9,$2,$3,0*%
G04 Aperture macros list end*
%ADD10C,0.200000*%
%ADD11C,0.300000*%
%ADD12C,0.120000*%
%ADD13C,0.010000*%
%ADD14RoundRect,0.051000X0.850000X-0.850000X0.850000X0.850000X-0.850000X0.850000X-0.850000X-0.850000X0*%
%ADD15O,1.802000X1.802000*%
%ADD16C,4.802000*%
G04 APERTURE END LIST*
D10*
X137434000Y-140191000D02*
X137434000Y-143191000D01*
X82450000Y-163150000D02*
X85450000Y-163150000D01*
X79450000Y-140150000D02*
X79450000Y-143150000D01*
X79450000Y-166150000D02*
X79450000Y-169150000D01*
X79450000Y-160150000D02*
X79450000Y-157150000D01*
X137434000Y-160191000D02*
X137434000Y-157191000D01*
X137434000Y-183191000D02*
X137434000Y-180191000D01*
X134454000Y-163201000D02*
X131454000Y-163201000D01*
X82434000Y-137191000D02*
X85434000Y-137191000D01*
X134434000Y-137191000D02*
X131434000Y-137191000D01*
X137434000Y-166191000D02*
X137434000Y-169191000D01*
X79450000Y-183150000D02*
X79450000Y-180150000D01*
X85151348Y-181849537D02*
X84408491Y-181849537D01*
X84808491Y-182306680D01*
X84637062Y-182306680D01*
X84522777Y-182363822D01*
X84465634Y-182420965D01*
X84408491Y-182535251D01*
X84408491Y-182820965D01*
X84465634Y-182935251D01*
X84522777Y-182992394D01*
X84637062Y-183049537D01*
X84979920Y-183049537D01*
X85094205Y-182992394D01*
X85151348Y-182935251D01*
X83837062Y-183049537D02*
X83608491Y-183049537D01*
X83494205Y-182992394D01*
X83437062Y-182935251D01*
X83322777Y-182763822D01*
X83265634Y-182535251D01*
X83265634Y-182078108D01*
X83322777Y-181963822D01*
X83379920Y-181906680D01*
X83494205Y-181849537D01*
X83722777Y-181849537D01*
X83837062Y-181906680D01*
X83894205Y-181963822D01*
X83951348Y-182078108D01*
X83951348Y-182363822D01*
X83894205Y-182478108D01*
X83837062Y-182535251D01*
X83722777Y-182592394D01*
X83494205Y-182592394D01*
X83379920Y-182535251D01*
X83322777Y-182478108D01*
X83265634Y-182363822D01*
X78925062Y-192329537D02*
X79610777Y-192329537D01*
X79267920Y-192329537D02*
X79267920Y-191129537D01*
X79382205Y-191300965D01*
X79496491Y-191415251D01*
X79610777Y-191472394D01*
X134182205Y-191287142D02*
X134125062Y-191230000D01*
X134010777Y-191172857D01*
X133725062Y-191172857D01*
X133610777Y-191230000D01*
X133553634Y-191287142D01*
X133496491Y-191401428D01*
X133496491Y-191515714D01*
X133553634Y-191687142D01*
X134239348Y-192372857D01*
X133496491Y-192372857D01*
X132753634Y-191172857D02*
X132639348Y-191172857D01*
X132525062Y-191230000D01*
X132467920Y-191287142D01*
X132410777Y-191401428D01*
X132353634Y-191630000D01*
X132353634Y-191915714D01*
X132410777Y-192144285D01*
X132467920Y-192258571D01*
X132525062Y-192315714D01*
X132639348Y-192372857D01*
X132753634Y-192372857D01*
X132867920Y-192315714D01*
X132925062Y-192258571D01*
X132982205Y-192144285D01*
X133039348Y-191915714D01*
X133039348Y-191630000D01*
X132982205Y-191401428D01*
X132925062Y-191287142D01*
X132867920Y-191230000D01*
X132753634Y-191172857D01*
X85145785Y-132920742D02*
X85088642Y-132863600D01*
X84974357Y-132806457D01*
X84688642Y-132806457D01*
X84574357Y-132863600D01*
X84517214Y-132920742D01*
X84460071Y-133035028D01*
X84460071Y-133149314D01*
X84517214Y-133320742D01*
X85202928Y-134006457D01*
X84460071Y-134006457D01*
X83317214Y-134006457D02*
X84002928Y-134006457D01*
X83660071Y-134006457D02*
X83660071Y-132806457D01*
X83774357Y-132977885D01*
X83888642Y-133092171D01*
X84002928Y-133149314D01*
X90314685Y-132920742D02*
X90257542Y-132863600D01*
X90143257Y-132806457D01*
X89857542Y-132806457D01*
X89743257Y-132863600D01*
X89686114Y-132920742D01*
X89628971Y-133035028D01*
X89628971Y-133149314D01*
X89686114Y-133320742D01*
X90371828Y-134006457D01*
X89628971Y-134006457D01*
X89228971Y-132806457D02*
X88486114Y-132806457D01*
X88886114Y-133263600D01*
X88714685Y-133263600D01*
X88600400Y-133320742D01*
X88543257Y-133377885D01*
X88486114Y-133492171D01*
X88486114Y-133777885D01*
X88543257Y-133892171D01*
X88600400Y-133949314D01*
X88714685Y-134006457D01*
X89057542Y-134006457D01*
X89171828Y-133949314D01*
X89228971Y-133892171D01*
X128516285Y-132918142D02*
X128459142Y-132861000D01*
X128344857Y-132803857D01*
X128059142Y-132803857D01*
X127944857Y-132861000D01*
X127887714Y-132918142D01*
X127830571Y-133032428D01*
X127830571Y-133146714D01*
X127887714Y-133318142D01*
X128573428Y-134003857D01*
X127830571Y-134003857D01*
X126802000Y-133203857D02*
X126802000Y-134003857D01*
X127087714Y-132746714D02*
X127373428Y-133603857D01*
X126630571Y-133603857D01*
X133528285Y-132918142D02*
X133471142Y-132861000D01*
X133356857Y-132803857D01*
X133071142Y-132803857D01*
X132956857Y-132861000D01*
X132899714Y-132918142D01*
X132842571Y-133032428D01*
X132842571Y-133146714D01*
X132899714Y-133318142D01*
X133585428Y-134003857D01*
X132842571Y-134003857D01*
X131814000Y-132803857D02*
X132042571Y-132803857D01*
X132156857Y-132861000D01*
X132214000Y-132918142D01*
X132328285Y-133089571D01*
X132385428Y-133318142D01*
X132385428Y-133775285D01*
X132328285Y-133889571D01*
X132271142Y-133946714D01*
X132156857Y-134003857D01*
X131928285Y-134003857D01*
X131814000Y-133946714D01*
X131756857Y-133889571D01*
X131699714Y-133775285D01*
X131699714Y-133489571D01*
X131756857Y-133375285D01*
X131814000Y-133318142D01*
X131928285Y-133261000D01*
X132156857Y-133261000D01*
X132271142Y-133318142D01*
X132328285Y-133375285D01*
X132385428Y-133489571D01*
X134722777Y-187635822D02*
X134665634Y-187578680D01*
X134551348Y-187521537D01*
X134265634Y-187521537D01*
X134151348Y-187578680D01*
X134094205Y-187635822D01*
X134037062Y-187750108D01*
X134037062Y-187864394D01*
X134094205Y-188035822D01*
X134779920Y-188721537D01*
X134037062Y-188721537D01*
X84722777Y-189249537D02*
X84722777Y-190049537D01*
X85008491Y-188792394D02*
X85294205Y-189649537D01*
X84551348Y-189649537D01*
X83865634Y-188849537D02*
X83751348Y-188849537D01*
X83637062Y-188906680D01*
X83579920Y-188963822D01*
X83522777Y-189078108D01*
X83465634Y-189306680D01*
X83465634Y-189592394D01*
X83522777Y-189820965D01*
X83579920Y-189935251D01*
X83637062Y-189992394D01*
X83751348Y-190049537D01*
X83865634Y-190049537D01*
X83979920Y-189992394D01*
X84037062Y-189935251D01*
X84094205Y-189820965D01*
X84151348Y-189592394D01*
X84151348Y-189306680D01*
X84094205Y-189078108D01*
X84037062Y-188963822D01*
X83979920Y-188906680D01*
X83865634Y-188849537D01*
D11*
X121648285Y-140369571D02*
X121648285Y-138869571D01*
X121076857Y-138869571D01*
X120934000Y-138941000D01*
X120862571Y-139012428D01*
X120791142Y-139155285D01*
X120791142Y-139369571D01*
X120862571Y-139512428D01*
X120934000Y-139583857D01*
X121076857Y-139655285D01*
X121648285Y-139655285D01*
X120148285Y-140369571D02*
X120148285Y-139369571D01*
X120148285Y-138869571D02*
X120219714Y-138941000D01*
X120148285Y-139012428D01*
X120076857Y-138941000D01*
X120148285Y-138869571D01*
X120148285Y-139012428D01*
X119434000Y-139369571D02*
X119434000Y-140369571D01*
X119434000Y-139512428D02*
X119362571Y-139441000D01*
X119219714Y-139369571D01*
X119005428Y-139369571D01*
X118862571Y-139441000D01*
X118791142Y-139583857D01*
X118791142Y-140369571D01*
X117862571Y-140369571D02*
X118005428Y-140298142D01*
X118076857Y-140226714D01*
X118148285Y-140083857D01*
X118148285Y-139655285D01*
X118076857Y-139512428D01*
X118005428Y-139441000D01*
X117862571Y-139369571D01*
X117648285Y-139369571D01*
X117505428Y-139441000D01*
X117434000Y-139512428D01*
X117362571Y-139655285D01*
X117362571Y-140083857D01*
X117434000Y-140226714D01*
X117505428Y-140298142D01*
X117648285Y-140369571D01*
X117862571Y-140369571D01*
X116076857Y-139369571D02*
X116076857Y-140369571D01*
X116719714Y-139369571D02*
X116719714Y-140155285D01*
X116648285Y-140298142D01*
X116505428Y-140369571D01*
X116291142Y-140369571D01*
X116148285Y-140298142D01*
X116076857Y-140226714D01*
X115576857Y-139369571D02*
X115005428Y-139369571D01*
X115362571Y-138869571D02*
X115362571Y-140155285D01*
X115291142Y-140298142D01*
X115148285Y-140369571D01*
X115005428Y-140369571D01*
X124478142Y-147675571D02*
X124335285Y-147675571D01*
X124192428Y-147747000D01*
X124121000Y-147818428D01*
X124049571Y-147961285D01*
X123978142Y-148247000D01*
X123978142Y-148604142D01*
X124049571Y-148889857D01*
X124121000Y-149032714D01*
X124192428Y-149104142D01*
X124335285Y-149175571D01*
X124478142Y-149175571D01*
X124621000Y-149104142D01*
X124692428Y-149032714D01*
X124763857Y-148889857D01*
X124835285Y-148604142D01*
X124835285Y-148247000D01*
X124763857Y-147961285D01*
X124692428Y-147818428D01*
X124621000Y-147747000D01*
X124478142Y-147675571D01*
X123478142Y-147675571D02*
X122478142Y-147675571D01*
X123121000Y-149175571D01*
X119621000Y-148175571D02*
X120763857Y-148604142D01*
X119621000Y-149032714D01*
X118906714Y-148604142D02*
X117763857Y-148604142D01*
X117049571Y-148175571D02*
X115906714Y-148604142D01*
X117049571Y-149032714D01*
X114192428Y-147675571D02*
X113263857Y-147675571D01*
X113763857Y-148247000D01*
X113549571Y-148247000D01*
X113406714Y-148318428D01*
X113335285Y-148389857D01*
X113263857Y-148532714D01*
X113263857Y-148889857D01*
X113335285Y-149032714D01*
X113406714Y-149104142D01*
X113549571Y-149175571D01*
X113978142Y-149175571D01*
X114121000Y-149104142D01*
X114192428Y-149032714D01*
X112406714Y-148318428D02*
X112549571Y-148247000D01*
X112621000Y-148175571D01*
X112692428Y-148032714D01*
X112692428Y-147961285D01*
X112621000Y-147818428D01*
X112549571Y-147747000D01*
X112406714Y-147675571D01*
X112121000Y-147675571D01*
X111978142Y-147747000D01*
X111906714Y-147818428D01*
X111835285Y-147961285D01*
X111835285Y-148032714D01*
X111906714Y-148175571D01*
X111978142Y-148247000D01*
X112121000Y-148318428D01*
X112406714Y-148318428D01*
X112549571Y-148389857D01*
X112621000Y-148461285D01*
X112692428Y-148604142D01*
X112692428Y-148889857D01*
X112621000Y-149032714D01*
X112549571Y-149104142D01*
X112406714Y-149175571D01*
X112121000Y-149175571D01*
X111978142Y-149104142D01*
X111906714Y-149032714D01*
X111835285Y-148889857D01*
X111835285Y-148604142D01*
X111906714Y-148461285D01*
X111978142Y-148389857D01*
X112121000Y-148318428D01*
X110049571Y-149032714D02*
X109978142Y-149104142D01*
X110049571Y-149175571D01*
X110121000Y-149104142D01*
X110049571Y-149032714D01*
X110049571Y-149175571D01*
X109335285Y-149032714D02*
X109263857Y-149104142D01*
X109335285Y-149175571D01*
X109406714Y-149104142D01*
X109335285Y-149032714D01*
X109335285Y-149175571D01*
X108621000Y-149032714D02*
X108549571Y-149104142D01*
X108621000Y-149175571D01*
X108692428Y-149104142D01*
X108621000Y-149032714D01*
X108621000Y-149175571D01*
X105978142Y-147747000D02*
X106121000Y-147675571D01*
X106335285Y-147675571D01*
X106549571Y-147747000D01*
X106692428Y-147889857D01*
X106763857Y-148032714D01*
X106835285Y-148318428D01*
X106835285Y-148532714D01*
X106763857Y-148818428D01*
X106692428Y-148961285D01*
X106549571Y-149104142D01*
X106335285Y-149175571D01*
X106192428Y-149175571D01*
X105978142Y-149104142D01*
X105906714Y-149032714D01*
X105906714Y-148532714D01*
X106192428Y-148532714D01*
X105263857Y-149175571D02*
X105263857Y-147675571D01*
X104692428Y-147675571D01*
X104549571Y-147747000D01*
X104478142Y-147818428D01*
X104406714Y-147961285D01*
X104406714Y-148175571D01*
X104478142Y-148318428D01*
X104549571Y-148389857D01*
X104692428Y-148461285D01*
X105263857Y-148461285D01*
X103763857Y-149175571D02*
X103763857Y-147675571D01*
X102763857Y-147675571D02*
X102478142Y-147675571D01*
X102335285Y-147747000D01*
X102192428Y-147889857D01*
X102121000Y-148175571D01*
X102121000Y-148675571D01*
X102192428Y-148961285D01*
X102335285Y-149104142D01*
X102478142Y-149175571D01*
X102763857Y-149175571D01*
X102906714Y-149104142D01*
X103049571Y-148961285D01*
X103121000Y-148675571D01*
X103121000Y-148175571D01*
X103049571Y-147889857D01*
X102906714Y-147747000D01*
X102763857Y-147675571D01*
X101549571Y-147818428D02*
X101478142Y-147747000D01*
X101335285Y-147675571D01*
X100978142Y-147675571D01*
X100835285Y-147747000D01*
X100763857Y-147818428D01*
X100692428Y-147961285D01*
X100692428Y-148104142D01*
X100763857Y-148318428D01*
X101621000Y-149175571D01*
X100692428Y-149175571D01*
X99763857Y-147675571D02*
X99621000Y-147675571D01*
X99478142Y-147747000D01*
X99406714Y-147818428D01*
X99335285Y-147961285D01*
X99263857Y-148247000D01*
X99263857Y-148604142D01*
X99335285Y-148889857D01*
X99406714Y-149032714D01*
X99478142Y-149104142D01*
X99621000Y-149175571D01*
X99763857Y-149175571D01*
X99906714Y-149104142D01*
X99978142Y-149032714D01*
X100049571Y-148889857D01*
X100121000Y-148604142D01*
X100121000Y-148247000D01*
X100049571Y-147961285D01*
X99978142Y-147818428D01*
X99906714Y-147747000D01*
X99763857Y-147675571D01*
X124478142Y-150090571D02*
X124335285Y-150090571D01*
X124192428Y-150162000D01*
X124121000Y-150233428D01*
X124049571Y-150376285D01*
X123978142Y-150662000D01*
X123978142Y-151019142D01*
X124049571Y-151304857D01*
X124121000Y-151447714D01*
X124192428Y-151519142D01*
X124335285Y-151590571D01*
X124478142Y-151590571D01*
X124621000Y-151519142D01*
X124692428Y-151447714D01*
X124763857Y-151304857D01*
X124835285Y-151019142D01*
X124835285Y-150662000D01*
X124763857Y-150376285D01*
X124692428Y-150233428D01*
X124621000Y-150162000D01*
X124478142Y-150090571D01*
X123121000Y-150733428D02*
X123263857Y-150662000D01*
X123335285Y-150590571D01*
X123406714Y-150447714D01*
X123406714Y-150376285D01*
X123335285Y-150233428D01*
X123263857Y-150162000D01*
X123121000Y-150090571D01*
X122835285Y-150090571D01*
X122692428Y-150162000D01*
X122621000Y-150233428D01*
X122549571Y-150376285D01*
X122549571Y-150447714D01*
X122621000Y-150590571D01*
X122692428Y-150662000D01*
X122835285Y-150733428D01*
X123121000Y-150733428D01*
X123263857Y-150804857D01*
X123335285Y-150876285D01*
X123406714Y-151019142D01*
X123406714Y-151304857D01*
X123335285Y-151447714D01*
X123263857Y-151519142D01*
X123121000Y-151590571D01*
X122835285Y-151590571D01*
X122692428Y-151519142D01*
X122621000Y-151447714D01*
X122549571Y-151304857D01*
X122549571Y-151019142D01*
X122621000Y-150876285D01*
X122692428Y-150804857D01*
X122835285Y-150733428D01*
X119621000Y-150590571D02*
X120763857Y-151019142D01*
X119621000Y-151447714D01*
X118906714Y-151019142D02*
X117763857Y-151019142D01*
X117049571Y-150590571D02*
X115906714Y-151019142D01*
X117049571Y-151447714D01*
X114192428Y-150090571D02*
X113263857Y-150090571D01*
X113763857Y-150662000D01*
X113549571Y-150662000D01*
X113406714Y-150733428D01*
X113335285Y-150804857D01*
X113263857Y-150947714D01*
X113263857Y-151304857D01*
X113335285Y-151447714D01*
X113406714Y-151519142D01*
X113549571Y-151590571D01*
X113978142Y-151590571D01*
X114121000Y-151519142D01*
X114192428Y-151447714D01*
X111978142Y-150090571D02*
X112263857Y-150090571D01*
X112406714Y-150162000D01*
X112478142Y-150233428D01*
X112621000Y-150447714D01*
X112692428Y-150733428D01*
X112692428Y-151304857D01*
X112621000Y-151447714D01*
X112549571Y-151519142D01*
X112406714Y-151590571D01*
X112121000Y-151590571D01*
X111978142Y-151519142D01*
X111906714Y-151447714D01*
X111835285Y-151304857D01*
X111835285Y-150947714D01*
X111906714Y-150804857D01*
X111978142Y-150733428D01*
X112121000Y-150662000D01*
X112406714Y-150662000D01*
X112549571Y-150733428D01*
X112621000Y-150804857D01*
X112692428Y-150947714D01*
X110049571Y-151447714D02*
X109978142Y-151519142D01*
X110049571Y-151590571D01*
X110121000Y-151519142D01*
X110049571Y-151447714D01*
X110049571Y-151590571D01*
X109335285Y-151447714D02*
X109263857Y-151519142D01*
X109335285Y-151590571D01*
X109406714Y-151519142D01*
X109335285Y-151447714D01*
X109335285Y-151590571D01*
X108621000Y-151447714D02*
X108549571Y-151519142D01*
X108621000Y-151590571D01*
X108692428Y-151519142D01*
X108621000Y-151447714D01*
X108621000Y-151590571D01*
X105978142Y-150162000D02*
X106121000Y-150090571D01*
X106335285Y-150090571D01*
X106549571Y-150162000D01*
X106692428Y-150304857D01*
X106763857Y-150447714D01*
X106835285Y-150733428D01*
X106835285Y-150947714D01*
X106763857Y-151233428D01*
X106692428Y-151376285D01*
X106549571Y-151519142D01*
X106335285Y-151590571D01*
X106192428Y-151590571D01*
X105978142Y-151519142D01*
X105906714Y-151447714D01*
X105906714Y-150947714D01*
X106192428Y-150947714D01*
X105263857Y-151590571D02*
X105263857Y-150090571D01*
X104692428Y-150090571D01*
X104549571Y-150162000D01*
X104478142Y-150233428D01*
X104406714Y-150376285D01*
X104406714Y-150590571D01*
X104478142Y-150733428D01*
X104549571Y-150804857D01*
X104692428Y-150876285D01*
X105263857Y-150876285D01*
X103763857Y-151590571D02*
X103763857Y-150090571D01*
X102763857Y-150090571D02*
X102478142Y-150090571D01*
X102335285Y-150162000D01*
X102192428Y-150304857D01*
X102121000Y-150590571D01*
X102121000Y-151090571D01*
X102192428Y-151376285D01*
X102335285Y-151519142D01*
X102478142Y-151590571D01*
X102763857Y-151590571D01*
X102906714Y-151519142D01*
X103049571Y-151376285D01*
X103121000Y-151090571D01*
X103121000Y-150590571D01*
X103049571Y-150304857D01*
X102906714Y-150162000D01*
X102763857Y-150090571D01*
X100692428Y-151590571D02*
X101549571Y-151590571D01*
X101121000Y-151590571D02*
X101121000Y-150090571D01*
X101263857Y-150304857D01*
X101406714Y-150447714D01*
X101549571Y-150519142D01*
X99406714Y-150090571D02*
X99692428Y-150090571D01*
X99835285Y-150162000D01*
X99906714Y-150233428D01*
X100049571Y-150447714D01*
X100121000Y-150733428D01*
X100121000Y-151304857D01*
X100049571Y-151447714D01*
X99978142Y-151519142D01*
X99835285Y-151590571D01*
X99549571Y-151590571D01*
X99406714Y-151519142D01*
X99335285Y-151447714D01*
X99263857Y-151304857D01*
X99263857Y-150947714D01*
X99335285Y-150804857D01*
X99406714Y-150733428D01*
X99549571Y-150662000D01*
X99835285Y-150662000D01*
X99978142Y-150733428D01*
X100049571Y-150804857D01*
X100121000Y-150947714D01*
X124478142Y-152505571D02*
X124335285Y-152505571D01*
X124192428Y-152577000D01*
X124121000Y-152648428D01*
X124049571Y-152791285D01*
X123978142Y-153077000D01*
X123978142Y-153434142D01*
X124049571Y-153719857D01*
X124121000Y-153862714D01*
X124192428Y-153934142D01*
X124335285Y-154005571D01*
X124478142Y-154005571D01*
X124621000Y-153934142D01*
X124692428Y-153862714D01*
X124763857Y-153719857D01*
X124835285Y-153434142D01*
X124835285Y-153077000D01*
X124763857Y-152791285D01*
X124692428Y-152648428D01*
X124621000Y-152577000D01*
X124478142Y-152505571D01*
X123263857Y-154005571D02*
X122978142Y-154005571D01*
X122835285Y-153934142D01*
X122763857Y-153862714D01*
X122621000Y-153648428D01*
X122549571Y-153362714D01*
X122549571Y-152791285D01*
X122621000Y-152648428D01*
X122692428Y-152577000D01*
X122835285Y-152505571D01*
X123121000Y-152505571D01*
X123263857Y-152577000D01*
X123335285Y-152648428D01*
X123406714Y-152791285D01*
X123406714Y-153148428D01*
X123335285Y-153291285D01*
X123263857Y-153362714D01*
X123121000Y-153434142D01*
X122835285Y-153434142D01*
X122692428Y-153362714D01*
X122621000Y-153291285D01*
X122549571Y-153148428D01*
X119621000Y-153005571D02*
X120763857Y-153434142D01*
X119621000Y-153862714D01*
X118906714Y-153434142D02*
X117763857Y-153434142D01*
X117049571Y-153005571D02*
X115906714Y-153434142D01*
X117049571Y-153862714D01*
X114192428Y-152505571D02*
X113263857Y-152505571D01*
X113763857Y-153077000D01*
X113549571Y-153077000D01*
X113406714Y-153148428D01*
X113335285Y-153219857D01*
X113263857Y-153362714D01*
X113263857Y-153719857D01*
X113335285Y-153862714D01*
X113406714Y-153934142D01*
X113549571Y-154005571D01*
X113978142Y-154005571D01*
X114121000Y-153934142D01*
X114192428Y-153862714D01*
X112692428Y-152648428D02*
X112621000Y-152577000D01*
X112478142Y-152505571D01*
X112121000Y-152505571D01*
X111978142Y-152577000D01*
X111906714Y-152648428D01*
X111835285Y-152791285D01*
X111835285Y-152934142D01*
X111906714Y-153148428D01*
X112763857Y-154005571D01*
X111835285Y-154005571D01*
X110049571Y-153862714D02*
X109978142Y-153934142D01*
X110049571Y-154005571D01*
X110121000Y-153934142D01*
X110049571Y-153862714D01*
X110049571Y-154005571D01*
X109335285Y-153862714D02*
X109263857Y-153934142D01*
X109335285Y-154005571D01*
X109406714Y-153934142D01*
X109335285Y-153862714D01*
X109335285Y-154005571D01*
X108621000Y-153862714D02*
X108549571Y-153934142D01*
X108621000Y-154005571D01*
X108692428Y-153934142D01*
X108621000Y-153862714D01*
X108621000Y-154005571D01*
X105978142Y-152577000D02*
X106121000Y-152505571D01*
X106335285Y-152505571D01*
X106549571Y-152577000D01*
X106692428Y-152719857D01*
X106763857Y-152862714D01*
X106835285Y-153148428D01*
X106835285Y-153362714D01*
X106763857Y-153648428D01*
X106692428Y-153791285D01*
X106549571Y-153934142D01*
X106335285Y-154005571D01*
X106192428Y-154005571D01*
X105978142Y-153934142D01*
X105906714Y-153862714D01*
X105906714Y-153362714D01*
X106192428Y-153362714D01*
X105263857Y-154005571D02*
X105263857Y-152505571D01*
X104692428Y-152505571D01*
X104549571Y-152577000D01*
X104478142Y-152648428D01*
X104406714Y-152791285D01*
X104406714Y-153005571D01*
X104478142Y-153148428D01*
X104549571Y-153219857D01*
X104692428Y-153291285D01*
X105263857Y-153291285D01*
X103763857Y-154005571D02*
X103763857Y-152505571D01*
X102763857Y-152505571D02*
X102478142Y-152505571D01*
X102335285Y-152577000D01*
X102192428Y-152719857D01*
X102121000Y-153005571D01*
X102121000Y-153505571D01*
X102192428Y-153791285D01*
X102335285Y-153934142D01*
X102478142Y-154005571D01*
X102763857Y-154005571D01*
X102906714Y-153934142D01*
X103049571Y-153791285D01*
X103121000Y-153505571D01*
X103121000Y-153005571D01*
X103049571Y-152719857D01*
X102906714Y-152577000D01*
X102763857Y-152505571D01*
X100692428Y-154005571D02*
X101549571Y-154005571D01*
X101121000Y-154005571D02*
X101121000Y-152505571D01*
X101263857Y-152719857D01*
X101406714Y-152862714D01*
X101549571Y-152934142D01*
X100121000Y-152648428D02*
X100049571Y-152577000D01*
X99906714Y-152505571D01*
X99549571Y-152505571D01*
X99406714Y-152577000D01*
X99335285Y-152648428D01*
X99263857Y-152791285D01*
X99263857Y-152934142D01*
X99335285Y-153148428D01*
X100192428Y-154005571D01*
X99263857Y-154005571D01*
X123978142Y-156420571D02*
X124835285Y-156420571D01*
X124406714Y-156420571D02*
X124406714Y-154920571D01*
X124549571Y-155134857D01*
X124692428Y-155277714D01*
X124835285Y-155349142D01*
X123049571Y-154920571D02*
X122906714Y-154920571D01*
X122763857Y-154992000D01*
X122692428Y-155063428D01*
X122621000Y-155206285D01*
X122549571Y-155492000D01*
X122549571Y-155849142D01*
X122621000Y-156134857D01*
X122692428Y-156277714D01*
X122763857Y-156349142D01*
X122906714Y-156420571D01*
X123049571Y-156420571D01*
X123192428Y-156349142D01*
X123263857Y-156277714D01*
X123335285Y-156134857D01*
X123406714Y-155849142D01*
X123406714Y-155492000D01*
X123335285Y-155206285D01*
X123263857Y-155063428D01*
X123192428Y-154992000D01*
X123049571Y-154920571D01*
X119621000Y-155420571D02*
X120763857Y-155849142D01*
X119621000Y-156277714D01*
X118906714Y-155849142D02*
X117763857Y-155849142D01*
X117049571Y-155420571D02*
X115906714Y-155849142D01*
X117049571Y-156277714D01*
X114192428Y-154920571D02*
X113263857Y-154920571D01*
X113763857Y-155492000D01*
X113549571Y-155492000D01*
X113406714Y-155563428D01*
X113335285Y-155634857D01*
X113263857Y-155777714D01*
X113263857Y-156134857D01*
X113335285Y-156277714D01*
X113406714Y-156349142D01*
X113549571Y-156420571D01*
X113978142Y-156420571D01*
X114121000Y-156349142D01*
X114192428Y-156277714D01*
X111835285Y-156420571D02*
X112692428Y-156420571D01*
X112263857Y-156420571D02*
X112263857Y-154920571D01*
X112406714Y-155134857D01*
X112549571Y-155277714D01*
X112692428Y-155349142D01*
X110049571Y-156277714D02*
X109978142Y-156349142D01*
X110049571Y-156420571D01*
X110121000Y-156349142D01*
X110049571Y-156277714D01*
X110049571Y-156420571D01*
X109335285Y-156277714D02*
X109263857Y-156349142D01*
X109335285Y-156420571D01*
X109406714Y-156349142D01*
X109335285Y-156277714D01*
X109335285Y-156420571D01*
X108621000Y-156277714D02*
X108549571Y-156349142D01*
X108621000Y-156420571D01*
X108692428Y-156349142D01*
X108621000Y-156277714D01*
X108621000Y-156420571D01*
X105978142Y-154992000D02*
X106121000Y-154920571D01*
X106335285Y-154920571D01*
X106549571Y-154992000D01*
X106692428Y-155134857D01*
X106763857Y-155277714D01*
X106835285Y-155563428D01*
X106835285Y-155777714D01*
X106763857Y-156063428D01*
X106692428Y-156206285D01*
X106549571Y-156349142D01*
X106335285Y-156420571D01*
X106192428Y-156420571D01*
X105978142Y-156349142D01*
X105906714Y-156277714D01*
X105906714Y-155777714D01*
X106192428Y-155777714D01*
X105263857Y-156420571D02*
X105263857Y-154920571D01*
X104692428Y-154920571D01*
X104549571Y-154992000D01*
X104478142Y-155063428D01*
X104406714Y-155206285D01*
X104406714Y-155420571D01*
X104478142Y-155563428D01*
X104549571Y-155634857D01*
X104692428Y-155706285D01*
X105263857Y-155706285D01*
X103763857Y-156420571D02*
X103763857Y-154920571D01*
X102763857Y-154920571D02*
X102478142Y-154920571D01*
X102335285Y-154992000D01*
X102192428Y-155134857D01*
X102121000Y-155420571D01*
X102121000Y-155920571D01*
X102192428Y-156206285D01*
X102335285Y-156349142D01*
X102478142Y-156420571D01*
X102763857Y-156420571D01*
X102906714Y-156349142D01*
X103049571Y-156206285D01*
X103121000Y-155920571D01*
X103121000Y-155420571D01*
X103049571Y-155134857D01*
X102906714Y-154992000D01*
X102763857Y-154920571D01*
X100835285Y-154920571D02*
X101121000Y-154920571D01*
X101263857Y-154992000D01*
X101335285Y-155063428D01*
X101478142Y-155277714D01*
X101549571Y-155563428D01*
X101549571Y-156134857D01*
X101478142Y-156277714D01*
X101406714Y-156349142D01*
X101263857Y-156420571D01*
X100978142Y-156420571D01*
X100835285Y-156349142D01*
X100763857Y-156277714D01*
X100692428Y-156134857D01*
X100692428Y-155777714D01*
X100763857Y-155634857D01*
X100835285Y-155563428D01*
X100978142Y-155492000D01*
X101263857Y-155492000D01*
X101406714Y-155563428D01*
X101478142Y-155634857D01*
X101549571Y-155777714D01*
X123978142Y-158835571D02*
X124835285Y-158835571D01*
X124406714Y-158835571D02*
X124406714Y-157335571D01*
X124549571Y-157549857D01*
X124692428Y-157692714D01*
X124835285Y-157764142D01*
X122549571Y-158835571D02*
X123406714Y-158835571D01*
X122978142Y-158835571D02*
X122978142Y-157335571D01*
X123121000Y-157549857D01*
X123263857Y-157692714D01*
X123406714Y-157764142D01*
X119621000Y-157835571D02*
X120763857Y-158264142D01*
X119621000Y-158692714D01*
X118906714Y-158264142D02*
X117763857Y-158264142D01*
X117049571Y-157835571D02*
X115906714Y-158264142D01*
X117049571Y-158692714D01*
X114121000Y-157478428D02*
X114049571Y-157407000D01*
X113906714Y-157335571D01*
X113549571Y-157335571D01*
X113406714Y-157407000D01*
X113335285Y-157478428D01*
X113263857Y-157621285D01*
X113263857Y-157764142D01*
X113335285Y-157978428D01*
X114192428Y-158835571D01*
X113263857Y-158835571D01*
X112549571Y-158835571D02*
X112263857Y-158835571D01*
X112121000Y-158764142D01*
X112049571Y-158692714D01*
X111906714Y-158478428D01*
X111835285Y-158192714D01*
X111835285Y-157621285D01*
X111906714Y-157478428D01*
X111978142Y-157407000D01*
X112121000Y-157335571D01*
X112406714Y-157335571D01*
X112549571Y-157407000D01*
X112621000Y-157478428D01*
X112692428Y-157621285D01*
X112692428Y-157978428D01*
X112621000Y-158121285D01*
X112549571Y-158192714D01*
X112406714Y-158264142D01*
X112121000Y-158264142D01*
X111978142Y-158192714D01*
X111906714Y-158121285D01*
X111835285Y-157978428D01*
X110049571Y-158692714D02*
X109978142Y-158764142D01*
X110049571Y-158835571D01*
X110121000Y-158764142D01*
X110049571Y-158692714D01*
X110049571Y-158835571D01*
X109335285Y-158692714D02*
X109263857Y-158764142D01*
X109335285Y-158835571D01*
X109406714Y-158764142D01*
X109335285Y-158692714D01*
X109335285Y-158835571D01*
X108621000Y-158692714D02*
X108549571Y-158764142D01*
X108621000Y-158835571D01*
X108692428Y-158764142D01*
X108621000Y-158692714D01*
X108621000Y-158835571D01*
X105978142Y-157407000D02*
X106121000Y-157335571D01*
X106335285Y-157335571D01*
X106549571Y-157407000D01*
X106692428Y-157549857D01*
X106763857Y-157692714D01*
X106835285Y-157978428D01*
X106835285Y-158192714D01*
X106763857Y-158478428D01*
X106692428Y-158621285D01*
X106549571Y-158764142D01*
X106335285Y-158835571D01*
X106192428Y-158835571D01*
X105978142Y-158764142D01*
X105906714Y-158692714D01*
X105906714Y-158192714D01*
X106192428Y-158192714D01*
X105263857Y-158835571D02*
X105263857Y-157335571D01*
X104692428Y-157335571D01*
X104549571Y-157407000D01*
X104478142Y-157478428D01*
X104406714Y-157621285D01*
X104406714Y-157835571D01*
X104478142Y-157978428D01*
X104549571Y-158049857D01*
X104692428Y-158121285D01*
X105263857Y-158121285D01*
X103763857Y-158835571D02*
X103763857Y-157335571D01*
X102763857Y-157335571D02*
X102478142Y-157335571D01*
X102335285Y-157407000D01*
X102192428Y-157549857D01*
X102121000Y-157835571D01*
X102121000Y-158335571D01*
X102192428Y-158621285D01*
X102335285Y-158764142D01*
X102478142Y-158835571D01*
X102763857Y-158835571D01*
X102906714Y-158764142D01*
X103049571Y-158621285D01*
X103121000Y-158335571D01*
X103121000Y-157835571D01*
X103049571Y-157549857D01*
X102906714Y-157407000D01*
X102763857Y-157335571D01*
X100763857Y-157335571D02*
X101478142Y-157335571D01*
X101549571Y-158049857D01*
X101478142Y-157978428D01*
X101335285Y-157907000D01*
X100978142Y-157907000D01*
X100835285Y-157978428D01*
X100763857Y-158049857D01*
X100692428Y-158192714D01*
X100692428Y-158549857D01*
X100763857Y-158692714D01*
X100835285Y-158764142D01*
X100978142Y-158835571D01*
X101335285Y-158835571D01*
X101478142Y-158764142D01*
X101549571Y-158692714D01*
X123978142Y-161250571D02*
X124835285Y-161250571D01*
X124406714Y-161250571D02*
X124406714Y-159750571D01*
X124549571Y-159964857D01*
X124692428Y-160107714D01*
X124835285Y-160179142D01*
X123478142Y-159750571D02*
X122549571Y-159750571D01*
X123049571Y-160322000D01*
X122835285Y-160322000D01*
X122692428Y-160393428D01*
X122621000Y-160464857D01*
X122549571Y-160607714D01*
X122549571Y-160964857D01*
X122621000Y-161107714D01*
X122692428Y-161179142D01*
X122835285Y-161250571D01*
X123263857Y-161250571D01*
X123406714Y-161179142D01*
X123478142Y-161107714D01*
X119621000Y-160250571D02*
X120763857Y-160679142D01*
X119621000Y-161107714D01*
X118906714Y-160679142D02*
X117763857Y-160679142D01*
X117049571Y-160250571D02*
X115906714Y-160679142D01*
X117049571Y-161107714D01*
X114121000Y-159893428D02*
X114049571Y-159822000D01*
X113906714Y-159750571D01*
X113549571Y-159750571D01*
X113406714Y-159822000D01*
X113335285Y-159893428D01*
X113263857Y-160036285D01*
X113263857Y-160179142D01*
X113335285Y-160393428D01*
X114192428Y-161250571D01*
X113263857Y-161250571D01*
X112692428Y-159893428D02*
X112621000Y-159822000D01*
X112478142Y-159750571D01*
X112121000Y-159750571D01*
X111978142Y-159822000D01*
X111906714Y-159893428D01*
X111835285Y-160036285D01*
X111835285Y-160179142D01*
X111906714Y-160393428D01*
X112763857Y-161250571D01*
X111835285Y-161250571D01*
X110049571Y-161107714D02*
X109978142Y-161179142D01*
X110049571Y-161250571D01*
X110121000Y-161179142D01*
X110049571Y-161107714D01*
X110049571Y-161250571D01*
X109335285Y-161107714D02*
X109263857Y-161179142D01*
X109335285Y-161250571D01*
X109406714Y-161179142D01*
X109335285Y-161107714D01*
X109335285Y-161250571D01*
X108621000Y-161107714D02*
X108549571Y-161179142D01*
X108621000Y-161250571D01*
X108692428Y-161179142D01*
X108621000Y-161107714D01*
X108621000Y-161250571D01*
X105978142Y-159822000D02*
X106121000Y-159750571D01*
X106335285Y-159750571D01*
X106549571Y-159822000D01*
X106692428Y-159964857D01*
X106763857Y-160107714D01*
X106835285Y-160393428D01*
X106835285Y-160607714D01*
X106763857Y-160893428D01*
X106692428Y-161036285D01*
X106549571Y-161179142D01*
X106335285Y-161250571D01*
X106192428Y-161250571D01*
X105978142Y-161179142D01*
X105906714Y-161107714D01*
X105906714Y-160607714D01*
X106192428Y-160607714D01*
X105263857Y-161250571D02*
X105263857Y-159750571D01*
X104692428Y-159750571D01*
X104549571Y-159822000D01*
X104478142Y-159893428D01*
X104406714Y-160036285D01*
X104406714Y-160250571D01*
X104478142Y-160393428D01*
X104549571Y-160464857D01*
X104692428Y-160536285D01*
X105263857Y-160536285D01*
X103763857Y-161250571D02*
X103763857Y-159750571D01*
X102763857Y-159750571D02*
X102478142Y-159750571D01*
X102335285Y-159822000D01*
X102192428Y-159964857D01*
X102121000Y-160250571D01*
X102121000Y-160750571D01*
X102192428Y-161036285D01*
X102335285Y-161179142D01*
X102478142Y-161250571D01*
X102763857Y-161250571D01*
X102906714Y-161179142D01*
X103049571Y-161036285D01*
X103121000Y-160750571D01*
X103121000Y-160250571D01*
X103049571Y-159964857D01*
X102906714Y-159822000D01*
X102763857Y-159750571D01*
X101549571Y-159893428D02*
X101478142Y-159822000D01*
X101335285Y-159750571D01*
X100978142Y-159750571D01*
X100835285Y-159822000D01*
X100763857Y-159893428D01*
X100692428Y-160036285D01*
X100692428Y-160179142D01*
X100763857Y-160393428D01*
X101621000Y-161250571D01*
X100692428Y-161250571D01*
X99335285Y-159750571D02*
X100049571Y-159750571D01*
X100121000Y-160464857D01*
X100049571Y-160393428D01*
X99906714Y-160322000D01*
X99549571Y-160322000D01*
X99406714Y-160393428D01*
X99335285Y-160464857D01*
X99263857Y-160607714D01*
X99263857Y-160964857D01*
X99335285Y-161107714D01*
X99406714Y-161179142D01*
X99549571Y-161250571D01*
X99906714Y-161250571D01*
X100049571Y-161179142D01*
X100121000Y-161107714D01*
X98621000Y-160679142D02*
X97478142Y-160679142D01*
X95906714Y-161250571D02*
X96406714Y-160536285D01*
X96763857Y-161250571D02*
X96763857Y-159750571D01*
X96192428Y-159750571D01*
X96049571Y-159822000D01*
X95978142Y-159893428D01*
X95906714Y-160036285D01*
X95906714Y-160250571D01*
X95978142Y-160393428D01*
X96049571Y-160464857D01*
X96192428Y-160536285D01*
X96763857Y-160536285D01*
X94692428Y-161179142D02*
X94835285Y-161250571D01*
X95121000Y-161250571D01*
X95263857Y-161179142D01*
X95335285Y-161036285D01*
X95335285Y-160464857D01*
X95263857Y-160322000D01*
X95121000Y-160250571D01*
X94835285Y-160250571D01*
X94692428Y-160322000D01*
X94621000Y-160464857D01*
X94621000Y-160607714D01*
X95335285Y-160750571D01*
X94049571Y-161179142D02*
X93906714Y-161250571D01*
X93621000Y-161250571D01*
X93478142Y-161179142D01*
X93406714Y-161036285D01*
X93406714Y-160964857D01*
X93478142Y-160822000D01*
X93621000Y-160750571D01*
X93835285Y-160750571D01*
X93978142Y-160679142D01*
X94049571Y-160536285D01*
X94049571Y-160464857D01*
X93978142Y-160322000D01*
X93835285Y-160250571D01*
X93621000Y-160250571D01*
X93478142Y-160322000D01*
X92192428Y-161179142D02*
X92335285Y-161250571D01*
X92621000Y-161250571D01*
X92763857Y-161179142D01*
X92835285Y-161036285D01*
X92835285Y-160464857D01*
X92763857Y-160322000D01*
X92621000Y-160250571D01*
X92335285Y-160250571D01*
X92192428Y-160322000D01*
X92121000Y-160464857D01*
X92121000Y-160607714D01*
X92835285Y-160750571D01*
X91692428Y-160250571D02*
X91121000Y-160250571D01*
X91478142Y-159750571D02*
X91478142Y-161036285D01*
X91406714Y-161179142D01*
X91263857Y-161250571D01*
X91121000Y-161250571D01*
X123978142Y-163665571D02*
X124835285Y-163665571D01*
X124406714Y-163665571D02*
X124406714Y-162165571D01*
X124549571Y-162379857D01*
X124692428Y-162522714D01*
X124835285Y-162594142D01*
X122692428Y-162665571D02*
X122692428Y-163665571D01*
X123049571Y-162094142D02*
X123406714Y-163165571D01*
X122478142Y-163165571D01*
X119621000Y-162665571D02*
X120763857Y-163094142D01*
X119621000Y-163522714D01*
X118906714Y-163094142D02*
X117763857Y-163094142D01*
X117049571Y-162665571D02*
X115906714Y-163094142D01*
X117049571Y-163522714D01*
X114121000Y-162308428D02*
X114049571Y-162237000D01*
X113906714Y-162165571D01*
X113549571Y-162165571D01*
X113406714Y-162237000D01*
X113335285Y-162308428D01*
X113263857Y-162451285D01*
X113263857Y-162594142D01*
X113335285Y-162808428D01*
X114192428Y-163665571D01*
X113263857Y-163665571D01*
X112763857Y-162165571D02*
X111835285Y-162165571D01*
X112335285Y-162737000D01*
X112121000Y-162737000D01*
X111978142Y-162808428D01*
X111906714Y-162879857D01*
X111835285Y-163022714D01*
X111835285Y-163379857D01*
X111906714Y-163522714D01*
X111978142Y-163594142D01*
X112121000Y-163665571D01*
X112549571Y-163665571D01*
X112692428Y-163594142D01*
X112763857Y-163522714D01*
X110049571Y-163522714D02*
X109978142Y-163594142D01*
X110049571Y-163665571D01*
X110121000Y-163594142D01*
X110049571Y-163522714D01*
X110049571Y-163665571D01*
X109335285Y-163522714D02*
X109263857Y-163594142D01*
X109335285Y-163665571D01*
X109406714Y-163594142D01*
X109335285Y-163522714D01*
X109335285Y-163665571D01*
X108621000Y-163522714D02*
X108549571Y-163594142D01*
X108621000Y-163665571D01*
X108692428Y-163594142D01*
X108621000Y-163522714D01*
X108621000Y-163665571D01*
X105978142Y-162237000D02*
X106121000Y-162165571D01*
X106335285Y-162165571D01*
X106549571Y-162237000D01*
X106692428Y-162379857D01*
X106763857Y-162522714D01*
X106835285Y-162808428D01*
X106835285Y-163022714D01*
X106763857Y-163308428D01*
X106692428Y-163451285D01*
X106549571Y-163594142D01*
X106335285Y-163665571D01*
X106192428Y-163665571D01*
X105978142Y-163594142D01*
X105906714Y-163522714D01*
X105906714Y-163022714D01*
X106192428Y-163022714D01*
X105263857Y-163665571D02*
X105263857Y-162165571D01*
X104692428Y-162165571D01*
X104549571Y-162237000D01*
X104478142Y-162308428D01*
X104406714Y-162451285D01*
X104406714Y-162665571D01*
X104478142Y-162808428D01*
X104549571Y-162879857D01*
X104692428Y-162951285D01*
X105263857Y-162951285D01*
X103763857Y-163665571D02*
X103763857Y-162165571D01*
X102763857Y-162165571D02*
X102478142Y-162165571D01*
X102335285Y-162237000D01*
X102192428Y-162379857D01*
X102121000Y-162665571D01*
X102121000Y-163165571D01*
X102192428Y-163451285D01*
X102335285Y-163594142D01*
X102478142Y-163665571D01*
X102763857Y-163665571D01*
X102906714Y-163594142D01*
X103049571Y-163451285D01*
X103121000Y-163165571D01*
X103121000Y-162665571D01*
X103049571Y-162379857D01*
X102906714Y-162237000D01*
X102763857Y-162165571D01*
X100692428Y-163665571D02*
X101549571Y-163665571D01*
X101121000Y-163665571D02*
X101121000Y-162165571D01*
X101263857Y-162379857D01*
X101406714Y-162522714D01*
X101549571Y-162594142D01*
X99263857Y-163665571D02*
X100121000Y-163665571D01*
X99692428Y-163665571D02*
X99692428Y-162165571D01*
X99835285Y-162379857D01*
X99978142Y-162522714D01*
X100121000Y-162594142D01*
X98621000Y-163094142D02*
X97478142Y-163094142D01*
X95906714Y-163522714D02*
X95978142Y-163594142D01*
X96192428Y-163665571D01*
X96335285Y-163665571D01*
X96549571Y-163594142D01*
X96692428Y-163451285D01*
X96763857Y-163308428D01*
X96835285Y-163022714D01*
X96835285Y-162808428D01*
X96763857Y-162522714D01*
X96692428Y-162379857D01*
X96549571Y-162237000D01*
X96335285Y-162165571D01*
X96192428Y-162165571D01*
X95978142Y-162237000D01*
X95906714Y-162308428D01*
X94549571Y-163665571D02*
X95263857Y-163665571D01*
X95263857Y-162165571D01*
X94049571Y-163665571D02*
X94049571Y-162165571D01*
X93192428Y-163665571D02*
X93835285Y-162808428D01*
X93192428Y-162165571D02*
X94049571Y-163022714D01*
X123978142Y-166080571D02*
X124835285Y-166080571D01*
X124406714Y-166080571D02*
X124406714Y-164580571D01*
X124549571Y-164794857D01*
X124692428Y-164937714D01*
X124835285Y-165009142D01*
X122621000Y-164580571D02*
X123335285Y-164580571D01*
X123406714Y-165294857D01*
X123335285Y-165223428D01*
X123192428Y-165152000D01*
X122835285Y-165152000D01*
X122692428Y-165223428D01*
X122621000Y-165294857D01*
X122549571Y-165437714D01*
X122549571Y-165794857D01*
X122621000Y-165937714D01*
X122692428Y-166009142D01*
X122835285Y-166080571D01*
X123192428Y-166080571D01*
X123335285Y-166009142D01*
X123406714Y-165937714D01*
X119621000Y-165080571D02*
X120763857Y-165509142D01*
X119621000Y-165937714D01*
X118906714Y-165509142D02*
X117763857Y-165509142D01*
X117049571Y-165080571D02*
X115906714Y-165509142D01*
X117049571Y-165937714D01*
X114120999Y-164723428D02*
X114049571Y-164652000D01*
X113906714Y-164580571D01*
X113549571Y-164580571D01*
X113406714Y-164652000D01*
X113335285Y-164723428D01*
X113263857Y-164866285D01*
X113263857Y-165009142D01*
X113335285Y-165223428D01*
X114192428Y-166080571D01*
X113263857Y-166080571D01*
X111835285Y-166080571D02*
X112692428Y-166080571D01*
X112263857Y-166080571D02*
X112263857Y-164580571D01*
X112406714Y-164794857D01*
X112549571Y-164937714D01*
X112692428Y-165009142D01*
X110049571Y-165937714D02*
X109978142Y-166009142D01*
X110049571Y-166080571D01*
X110120999Y-166009142D01*
X110049571Y-165937714D01*
X110049571Y-166080571D01*
X109335285Y-165937714D02*
X109263857Y-166009142D01*
X109335285Y-166080571D01*
X109406714Y-166009142D01*
X109335285Y-165937714D01*
X109335285Y-166080571D01*
X108620999Y-165937714D02*
X108549571Y-166009142D01*
X108620999Y-166080571D01*
X108692428Y-166009142D01*
X108620999Y-165937714D01*
X108620999Y-166080571D01*
X105978142Y-164652000D02*
X106120999Y-164580571D01*
X106335285Y-164580571D01*
X106549571Y-164652000D01*
X106692428Y-164794857D01*
X106763857Y-164937714D01*
X106835285Y-165223428D01*
X106835285Y-165437714D01*
X106763857Y-165723428D01*
X106692428Y-165866285D01*
X106549571Y-166009142D01*
X106335285Y-166080571D01*
X106192428Y-166080571D01*
X105978142Y-166009142D01*
X105906714Y-165937714D01*
X105906714Y-165437714D01*
X106192428Y-165437714D01*
X105263857Y-166080571D02*
X105263857Y-164580571D01*
X104692428Y-164580571D01*
X104549571Y-164652000D01*
X104478142Y-164723428D01*
X104406714Y-164866285D01*
X104406714Y-165080571D01*
X104478142Y-165223428D01*
X104549571Y-165294857D01*
X104692428Y-165366285D01*
X105263857Y-165366285D01*
X103763857Y-166080571D02*
X103763857Y-164580571D01*
X102763857Y-164580571D02*
X102478142Y-164580571D01*
X102335285Y-164652000D01*
X102192428Y-164794857D01*
X102120999Y-165080571D01*
X102120999Y-165580571D01*
X102192428Y-165866285D01*
X102335285Y-166009142D01*
X102478142Y-166080571D01*
X102763857Y-166080571D01*
X102906714Y-166009142D01*
X103049571Y-165866285D01*
X103120999Y-165580571D01*
X103120999Y-165080571D01*
X103049571Y-164794857D01*
X102906714Y-164652000D01*
X102763857Y-164580571D01*
X101406714Y-166080571D02*
X101120999Y-166080571D01*
X100978142Y-166009142D01*
X100906714Y-165937714D01*
X100763857Y-165723428D01*
X100692428Y-165437714D01*
X100692428Y-164866285D01*
X100763857Y-164723428D01*
X100835285Y-164652000D01*
X100978142Y-164580571D01*
X101263857Y-164580571D01*
X101406714Y-164652000D01*
X101478142Y-164723428D01*
X101549571Y-164866285D01*
X101549571Y-165223428D01*
X101478142Y-165366285D01*
X101406714Y-165437714D01*
X101263857Y-165509142D01*
X100978142Y-165509142D01*
X100835285Y-165437714D01*
X100763857Y-165366285D01*
X100692428Y-165223428D01*
X100049571Y-165509142D02*
X98906714Y-165509142D01*
X98192428Y-166080571D02*
X98192428Y-164580571D01*
X97692428Y-165652000D01*
X97192428Y-164580571D01*
X97192428Y-166080571D01*
X96478142Y-166080571D02*
X96478142Y-164580571D01*
X95835285Y-166009142D02*
X95620999Y-166080571D01*
X95263857Y-166080571D01*
X95120999Y-166009142D01*
X95049571Y-165937714D01*
X94978142Y-165794857D01*
X94978142Y-165652000D01*
X95049571Y-165509142D01*
X95120999Y-165437714D01*
X95263857Y-165366285D01*
X95549571Y-165294857D01*
X95692428Y-165223428D01*
X95763857Y-165152000D01*
X95835285Y-165009142D01*
X95835285Y-164866285D01*
X95763857Y-164723428D01*
X95692428Y-164652000D01*
X95549571Y-164580571D01*
X95192428Y-164580571D01*
X94978142Y-164652000D01*
X94049571Y-164580571D02*
X93763857Y-164580571D01*
X93620999Y-164652000D01*
X93478142Y-164794857D01*
X93406714Y-165080571D01*
X93406714Y-165580571D01*
X93478142Y-165866285D01*
X93620999Y-166009142D01*
X93763857Y-166080571D01*
X94049571Y-166080571D01*
X94192428Y-166009142D01*
X94335285Y-165866285D01*
X94406714Y-165580571D01*
X94406714Y-165080571D01*
X94335285Y-164794857D01*
X94192428Y-164652000D01*
X94049571Y-164580571D01*
X123978142Y-168495571D02*
X124835285Y-168495571D01*
X124406714Y-168495571D02*
X124406714Y-166995571D01*
X124549571Y-167209857D01*
X124692428Y-167352714D01*
X124835285Y-167424142D01*
X122692428Y-166995571D02*
X122978142Y-166995571D01*
X123121000Y-167067000D01*
X123192428Y-167138428D01*
X123335285Y-167352714D01*
X123406714Y-167638428D01*
X123406714Y-168209857D01*
X123335285Y-168352714D01*
X123263857Y-168424142D01*
X123121000Y-168495571D01*
X122835285Y-168495571D01*
X122692428Y-168424142D01*
X122621000Y-168352714D01*
X122549571Y-168209857D01*
X122549571Y-167852714D01*
X122621000Y-167709857D01*
X122692428Y-167638428D01*
X122835285Y-167567000D01*
X123121000Y-167567000D01*
X123263857Y-167638428D01*
X123335285Y-167709857D01*
X123406714Y-167852714D01*
X119621000Y-167495571D02*
X120763857Y-167924142D01*
X119621000Y-168352714D01*
X118906714Y-167924142D02*
X117763857Y-167924142D01*
X117049571Y-167495571D02*
X115906714Y-167924142D01*
X117049571Y-168352714D01*
X113263857Y-168495571D02*
X114121000Y-168495571D01*
X113692428Y-168495571D02*
X113692428Y-166995571D01*
X113835285Y-167209857D01*
X113978142Y-167352714D01*
X114121000Y-167424142D01*
X112549571Y-168495571D02*
X112263857Y-168495571D01*
X112121000Y-168424142D01*
X112049571Y-168352714D01*
X111906714Y-168138428D01*
X111835285Y-167852714D01*
X111835285Y-167281285D01*
X111906714Y-167138428D01*
X111978142Y-167067000D01*
X112121000Y-166995571D01*
X112406714Y-166995571D01*
X112549571Y-167067000D01*
X112621000Y-167138428D01*
X112692428Y-167281285D01*
X112692428Y-167638428D01*
X112621000Y-167781285D01*
X112549571Y-167852714D01*
X112406714Y-167924142D01*
X112121000Y-167924142D01*
X111978142Y-167852714D01*
X111906714Y-167781285D01*
X111835285Y-167638428D01*
X110049571Y-168352714D02*
X109978142Y-168424142D01*
X110049571Y-168495571D01*
X110121000Y-168424142D01*
X110049571Y-168352714D01*
X110049571Y-168495571D01*
X109335285Y-168352714D02*
X109263857Y-168424142D01*
X109335285Y-168495571D01*
X109406714Y-168424142D01*
X109335285Y-168352714D01*
X109335285Y-168495571D01*
X108621000Y-168352714D02*
X108549571Y-168424142D01*
X108621000Y-168495571D01*
X108692428Y-168424142D01*
X108621000Y-168352714D01*
X108621000Y-168495571D01*
X105978142Y-167067000D02*
X106121000Y-166995571D01*
X106335285Y-166995571D01*
X106549571Y-167067000D01*
X106692428Y-167209857D01*
X106763857Y-167352714D01*
X106835285Y-167638428D01*
X106835285Y-167852714D01*
X106763857Y-168138428D01*
X106692428Y-168281285D01*
X106549571Y-168424142D01*
X106335285Y-168495571D01*
X106192428Y-168495571D01*
X105978142Y-168424142D01*
X105906714Y-168352714D01*
X105906714Y-167852714D01*
X106192428Y-167852714D01*
X105263857Y-168495571D02*
X105263857Y-166995571D01*
X104692428Y-166995571D01*
X104549571Y-167067000D01*
X104478142Y-167138428D01*
X104406714Y-167281285D01*
X104406714Y-167495571D01*
X104478142Y-167638428D01*
X104549571Y-167709857D01*
X104692428Y-167781285D01*
X105263857Y-167781285D01*
X103763857Y-168495571D02*
X103763857Y-166995571D01*
X102763857Y-166995571D02*
X102478142Y-166995571D01*
X102335285Y-167067000D01*
X102192428Y-167209857D01*
X102121000Y-167495571D01*
X102121000Y-167995571D01*
X102192428Y-168281285D01*
X102335285Y-168424142D01*
X102478142Y-168495571D01*
X102763857Y-168495571D01*
X102906714Y-168424142D01*
X103049571Y-168281285D01*
X103121000Y-167995571D01*
X103121000Y-167495571D01*
X103049571Y-167209857D01*
X102906714Y-167067000D01*
X102763857Y-166995571D01*
X100692428Y-168495571D02*
X101549571Y-168495571D01*
X101121000Y-168495571D02*
X101121000Y-166995571D01*
X101263857Y-167209857D01*
X101406714Y-167352714D01*
X101549571Y-167424142D01*
X99763857Y-166995571D02*
X99621000Y-166995571D01*
X99478142Y-167067000D01*
X99406714Y-167138428D01*
X99335285Y-167281285D01*
X99263857Y-167567000D01*
X99263857Y-167924142D01*
X99335285Y-168209857D01*
X99406714Y-168352714D01*
X99478142Y-168424142D01*
X99621000Y-168495571D01*
X99763857Y-168495571D01*
X99906714Y-168424142D01*
X99978142Y-168352714D01*
X100049571Y-168209857D01*
X100121000Y-167924142D01*
X100121000Y-167567000D01*
X100049571Y-167281285D01*
X99978142Y-167138428D01*
X99906714Y-167067000D01*
X99763857Y-166995571D01*
X98621000Y-167924142D02*
X97478142Y-167924142D01*
X96763857Y-168495571D02*
X96763857Y-166995571D01*
X96263857Y-168067000D01*
X95763857Y-166995571D01*
X95763857Y-168495571D01*
X94763857Y-166995571D02*
X94478142Y-166995571D01*
X94335285Y-167067000D01*
X94192428Y-167209857D01*
X94121000Y-167495571D01*
X94121000Y-167995571D01*
X94192428Y-168281285D01*
X94335285Y-168424142D01*
X94478142Y-168495571D01*
X94763857Y-168495571D01*
X94906714Y-168424142D01*
X95049571Y-168281285D01*
X95121000Y-167995571D01*
X95121000Y-167495571D01*
X95049571Y-167209857D01*
X94906714Y-167067000D01*
X94763857Y-166995571D01*
X93549571Y-168424142D02*
X93335285Y-168495571D01*
X92978142Y-168495571D01*
X92835285Y-168424142D01*
X92763857Y-168352714D01*
X92692428Y-168209857D01*
X92692428Y-168067000D01*
X92763857Y-167924142D01*
X92835285Y-167852714D01*
X92978142Y-167781285D01*
X93263857Y-167709857D01*
X93406714Y-167638428D01*
X93478142Y-167567000D01*
X93549571Y-167424142D01*
X93549571Y-167281285D01*
X93478142Y-167138428D01*
X93406714Y-167067000D01*
X93263857Y-166995571D01*
X92906714Y-166995571D01*
X92692428Y-167067000D01*
X92049571Y-168495571D02*
X92049571Y-166995571D01*
X123978142Y-170910571D02*
X124835285Y-170910571D01*
X124406714Y-170910571D02*
X124406714Y-169410571D01*
X124549571Y-169624857D01*
X124692428Y-169767714D01*
X124835285Y-169839142D01*
X123478142Y-169410571D02*
X122478142Y-169410571D01*
X123121000Y-170910571D01*
X119621000Y-169910571D02*
X120763857Y-170339142D01*
X119621000Y-170767714D01*
X118906714Y-170339142D02*
X117763857Y-170339142D01*
X117049571Y-169910571D02*
X115906714Y-170339142D01*
X117049571Y-170767714D01*
X114121000Y-169553428D02*
X114049571Y-169482000D01*
X113906714Y-169410571D01*
X113549571Y-169410571D01*
X113406714Y-169482000D01*
X113335285Y-169553428D01*
X113263857Y-169696285D01*
X113263857Y-169839142D01*
X113335285Y-170053428D01*
X114192428Y-170910571D01*
X113263857Y-170910571D01*
X111978142Y-169910571D02*
X111978142Y-170910571D01*
X112335285Y-169339142D02*
X112692428Y-170410571D01*
X111763857Y-170410571D01*
X110049571Y-170767714D02*
X109978142Y-170839142D01*
X110049571Y-170910571D01*
X110121000Y-170839142D01*
X110049571Y-170767714D01*
X110049571Y-170910571D01*
X109335285Y-170767714D02*
X109263857Y-170839142D01*
X109335285Y-170910571D01*
X109406714Y-170839142D01*
X109335285Y-170767714D01*
X109335285Y-170910571D01*
X108621000Y-170767714D02*
X108549571Y-170839142D01*
X108621000Y-170910571D01*
X108692428Y-170839142D01*
X108621000Y-170767714D01*
X108621000Y-170910571D01*
X105978142Y-169482000D02*
X106121000Y-169410571D01*
X106335285Y-169410571D01*
X106549571Y-169482000D01*
X106692428Y-169624857D01*
X106763857Y-169767714D01*
X106835285Y-170053428D01*
X106835285Y-170267714D01*
X106763857Y-170553428D01*
X106692428Y-170696285D01*
X106549571Y-170839142D01*
X106335285Y-170910571D01*
X106192428Y-170910571D01*
X105978142Y-170839142D01*
X105906714Y-170767714D01*
X105906714Y-170267714D01*
X106192428Y-170267714D01*
X105263857Y-170910571D02*
X105263857Y-169410571D01*
X104692428Y-169410571D01*
X104549571Y-169482000D01*
X104478142Y-169553428D01*
X104406714Y-169696285D01*
X104406714Y-169910571D01*
X104478142Y-170053428D01*
X104549571Y-170124857D01*
X104692428Y-170196285D01*
X105263857Y-170196285D01*
X103763857Y-170910571D02*
X103763857Y-169410571D01*
X102763857Y-169410571D02*
X102478142Y-169410571D01*
X102335285Y-169482000D01*
X102192428Y-169624857D01*
X102121000Y-169910571D01*
X102121000Y-170410571D01*
X102192428Y-170696285D01*
X102335285Y-170839142D01*
X102478142Y-170910571D01*
X102763857Y-170910571D01*
X102906714Y-170839142D01*
X103049571Y-170696285D01*
X103121000Y-170410571D01*
X103121000Y-169910571D01*
X103049571Y-169624857D01*
X102906714Y-169482000D01*
X102763857Y-169410571D01*
X101263857Y-170053428D02*
X101406714Y-169982000D01*
X101478142Y-169910571D01*
X101549571Y-169767714D01*
X101549571Y-169696285D01*
X101478142Y-169553428D01*
X101406714Y-169482000D01*
X101263857Y-169410571D01*
X100978142Y-169410571D01*
X100835285Y-169482000D01*
X100763857Y-169553428D01*
X100692428Y-169696285D01*
X100692428Y-169767714D01*
X100763857Y-169910571D01*
X100835285Y-169982000D01*
X100978142Y-170053428D01*
X101263857Y-170053428D01*
X101406714Y-170124857D01*
X101478142Y-170196285D01*
X101549571Y-170339142D01*
X101549571Y-170624857D01*
X101478142Y-170767714D01*
X101406714Y-170839142D01*
X101263857Y-170910571D01*
X100978142Y-170910571D01*
X100835285Y-170839142D01*
X100763857Y-170767714D01*
X100692428Y-170624857D01*
X100692428Y-170339142D01*
X100763857Y-170196285D01*
X100835285Y-170124857D01*
X100978142Y-170053428D01*
X100049571Y-170339142D02*
X98906714Y-170339142D01*
X98192428Y-170910571D02*
X98192428Y-169410571D01*
X97335285Y-170910571D01*
X97335285Y-169410571D01*
X96692428Y-170839142D02*
X96478142Y-170910571D01*
X96121000Y-170910571D01*
X95978142Y-170839142D01*
X95906714Y-170767714D01*
X95835285Y-170624857D01*
X95835285Y-170482000D01*
X95906714Y-170339142D01*
X95978142Y-170267714D01*
X96121000Y-170196285D01*
X96406714Y-170124857D01*
X96549571Y-170053428D01*
X96621000Y-169982000D01*
X96692428Y-169839142D01*
X96692428Y-169696285D01*
X96621000Y-169553428D01*
X96549571Y-169482000D01*
X96406714Y-169410571D01*
X96049571Y-169410571D01*
X95835285Y-169482000D01*
X95263857Y-170839142D02*
X95049571Y-170910571D01*
X94692428Y-170910571D01*
X94549571Y-170839142D01*
X94478142Y-170767714D01*
X94406714Y-170624857D01*
X94406714Y-170482000D01*
X94478142Y-170339142D01*
X94549571Y-170267714D01*
X94692428Y-170196285D01*
X94978142Y-170124857D01*
X95121000Y-170053428D01*
X95192428Y-169982000D01*
X95263857Y-169839142D01*
X95263857Y-169696285D01*
X95192428Y-169553428D01*
X95121000Y-169482000D01*
X94978142Y-169410571D01*
X94621000Y-169410571D01*
X94406714Y-169482000D01*
X124835285Y-171968428D02*
X124763857Y-171897000D01*
X124621000Y-171825571D01*
X124263857Y-171825571D01*
X124121000Y-171897000D01*
X124049571Y-171968428D01*
X123978142Y-172111285D01*
X123978142Y-172254142D01*
X124049571Y-172468428D01*
X124906714Y-173325571D01*
X123978142Y-173325571D01*
X122549571Y-173325571D02*
X123406714Y-173325571D01*
X122978142Y-173325571D02*
X122978142Y-171825571D01*
X123121000Y-172039857D01*
X123263857Y-172182714D01*
X123406714Y-172254142D01*
X119621000Y-172325571D02*
X120763857Y-172754142D01*
X119621000Y-173182714D01*
X118906714Y-172754142D02*
X117763857Y-172754142D01*
X117049571Y-172325571D02*
X115906714Y-172754142D01*
X117049571Y-173182714D01*
X113763857Y-171825571D02*
X113621000Y-171825571D01*
X113478142Y-171897000D01*
X113406714Y-171968428D01*
X113335285Y-172111285D01*
X113263857Y-172397000D01*
X113263857Y-172754142D01*
X113335285Y-173039857D01*
X113406714Y-173182714D01*
X113478142Y-173254142D01*
X113621000Y-173325571D01*
X113763857Y-173325571D01*
X113906714Y-173254142D01*
X113978142Y-173182714D01*
X114049571Y-173039857D01*
X114121000Y-172754142D01*
X114121000Y-172397000D01*
X114049571Y-172111285D01*
X113978142Y-171968428D01*
X113906714Y-171897000D01*
X113763857Y-171825571D01*
X112692428Y-171968428D02*
X112621000Y-171897000D01*
X112478142Y-171825571D01*
X112121000Y-171825571D01*
X111978142Y-171897000D01*
X111906714Y-171968428D01*
X111835285Y-172111285D01*
X111835285Y-172254142D01*
X111906714Y-172468428D01*
X112763857Y-173325571D01*
X111835285Y-173325571D01*
X110049571Y-173182714D02*
X109978142Y-173254142D01*
X110049571Y-173325571D01*
X110121000Y-173254142D01*
X110049571Y-173182714D01*
X110049571Y-173325571D01*
X109335285Y-173182714D02*
X109263857Y-173254142D01*
X109335285Y-173325571D01*
X109406714Y-173254142D01*
X109335285Y-173182714D01*
X109335285Y-173325571D01*
X108621000Y-173182714D02*
X108549571Y-173254142D01*
X108621000Y-173325571D01*
X108692428Y-173254142D01*
X108621000Y-173182714D01*
X108621000Y-173325571D01*
X106049571Y-171825571D02*
X106763857Y-171825571D01*
X106835285Y-172539857D01*
X106763857Y-172468428D01*
X106621000Y-172397000D01*
X106263857Y-172397000D01*
X106121000Y-172468428D01*
X106049571Y-172539857D01*
X105978142Y-172682714D01*
X105978142Y-173039857D01*
X106049571Y-173182714D01*
X106121000Y-173254142D01*
X106263857Y-173325571D01*
X106621000Y-173325571D01*
X106763857Y-173254142D01*
X106835285Y-173182714D01*
X105549571Y-171825571D02*
X105049571Y-173325571D01*
X104549571Y-171825571D01*
D10*
X138661142Y-154956680D02*
X139232571Y-155356680D01*
X138661142Y-155642394D02*
X139861142Y-155642394D01*
X139861142Y-155185251D01*
X139804000Y-155070965D01*
X139746857Y-155013822D01*
X139632571Y-154956680D01*
X139461142Y-154956680D01*
X139346857Y-155013822D01*
X139289714Y-155070965D01*
X139232571Y-155185251D01*
X139232571Y-155642394D01*
X138661142Y-153928108D02*
X139289714Y-153928108D01*
X139404000Y-153985251D01*
X139461142Y-154099537D01*
X139461142Y-154328108D01*
X139404000Y-154442394D01*
X138718285Y-153928108D02*
X138661142Y-154042394D01*
X138661142Y-154328108D01*
X138718285Y-154442394D01*
X138832571Y-154499537D01*
X138946857Y-154499537D01*
X139061142Y-154442394D01*
X139118285Y-154328108D01*
X139118285Y-154042394D01*
X139175428Y-153928108D01*
X138718285Y-153413822D02*
X138661142Y-153299537D01*
X138661142Y-153070965D01*
X138718285Y-152956680D01*
X138832571Y-152899537D01*
X138889714Y-152899537D01*
X139004000Y-152956680D01*
X139061142Y-153070965D01*
X139061142Y-153242394D01*
X139118285Y-153356680D01*
X139232571Y-153413822D01*
X139289714Y-153413822D01*
X139404000Y-153356680D01*
X139461142Y-153242394D01*
X139461142Y-153070965D01*
X139404000Y-152956680D01*
X139461142Y-152385251D02*
X138261142Y-152385251D01*
X139404000Y-152385251D02*
X139461142Y-152270965D01*
X139461142Y-152042394D01*
X139404000Y-151928108D01*
X139346857Y-151870965D01*
X139232571Y-151813822D01*
X138889714Y-151813822D01*
X138775428Y-151870965D01*
X138718285Y-151928108D01*
X138661142Y-152042394D01*
X138661142Y-152270965D01*
X138718285Y-152385251D01*
X138661142Y-151299537D02*
X139861142Y-151299537D01*
X139404000Y-151299537D02*
X139461142Y-151185251D01*
X139461142Y-150956680D01*
X139404000Y-150842394D01*
X139346857Y-150785251D01*
X139232571Y-150728108D01*
X138889714Y-150728108D01*
X138775428Y-150785251D01*
X138718285Y-150842394D01*
X138661142Y-150956680D01*
X138661142Y-151185251D01*
X138718285Y-151299537D01*
X138718285Y-149756680D02*
X138661142Y-149870965D01*
X138661142Y-150099537D01*
X138718285Y-150213822D01*
X138832571Y-150270965D01*
X139289714Y-150270965D01*
X139404000Y-150213822D01*
X139461142Y-150099537D01*
X139461142Y-149870965D01*
X139404000Y-149756680D01*
X139289714Y-149699537D01*
X139175428Y-149699537D01*
X139061142Y-150270965D01*
X138661142Y-149185251D02*
X139461142Y-149185251D01*
X139232571Y-149185251D02*
X139346857Y-149128108D01*
X139404000Y-149070965D01*
X139461142Y-148956680D01*
X139461142Y-148842394D01*
X138661142Y-148442394D02*
X139461142Y-148442394D01*
X139232571Y-148442394D02*
X139346857Y-148385251D01*
X139404000Y-148328108D01*
X139461142Y-148213822D01*
X139461142Y-148099537D01*
X139461142Y-147813822D02*
X138661142Y-147528108D01*
X139461142Y-147242394D02*
X138661142Y-147528108D01*
X138375428Y-147642394D01*
X138318285Y-147699537D01*
X138261142Y-147813822D01*
X138661142Y-145870965D02*
X139861142Y-145870965D01*
X139861142Y-145413822D01*
X139804000Y-145299537D01*
X139746857Y-145242394D01*
X139632571Y-145185251D01*
X139461142Y-145185251D01*
X139346857Y-145242394D01*
X139289714Y-145299537D01*
X139232571Y-145413822D01*
X139232571Y-145870965D01*
X138661142Y-144670965D02*
X139461142Y-144670965D01*
X139861142Y-144670965D02*
X139804000Y-144728108D01*
X139746857Y-144670965D01*
X139804000Y-144613822D01*
X139861142Y-144670965D01*
X139746857Y-144670965D01*
D11*
X129843857Y-144369571D02*
X129843857Y-143369571D01*
X129843857Y-142869571D02*
X129915285Y-142941000D01*
X129843857Y-143012428D01*
X129772428Y-142941000D01*
X129843857Y-142869571D01*
X129843857Y-143012428D01*
X128272428Y-144226714D02*
X128343857Y-144298142D01*
X128558142Y-144369571D01*
X128701000Y-144369571D01*
X128915285Y-144298142D01*
X129058142Y-144155285D01*
X129129571Y-144012428D01*
X129201000Y-143726714D01*
X129201000Y-143512428D01*
X129129571Y-143226714D01*
X129058142Y-143083857D01*
X128915285Y-142941000D01*
X128701000Y-142869571D01*
X128558142Y-142869571D01*
X128343857Y-142941000D01*
X128272428Y-143012428D01*
X127415285Y-143512428D02*
X127558142Y-143441000D01*
X127629571Y-143369571D01*
X127701000Y-143226714D01*
X127701000Y-143155285D01*
X127629571Y-143012428D01*
X127558142Y-142941000D01*
X127415285Y-142869571D01*
X127129571Y-142869571D01*
X126986714Y-142941000D01*
X126915285Y-143012428D01*
X126843857Y-143155285D01*
X126843857Y-143226714D01*
X126915285Y-143369571D01*
X126986714Y-143441000D01*
X127129571Y-143512428D01*
X127415285Y-143512428D01*
X127558142Y-143583857D01*
X127629571Y-143655285D01*
X127701000Y-143798142D01*
X127701000Y-144083857D01*
X127629571Y-144226714D01*
X127558142Y-144298142D01*
X127415285Y-144369571D01*
X127129571Y-144369571D01*
X126986714Y-144298142D01*
X126915285Y-144226714D01*
X126843857Y-144083857D01*
X126843857Y-143798142D01*
X126915285Y-143655285D01*
X126986714Y-143583857D01*
X127129571Y-143512428D01*
X125986714Y-143512428D02*
X126129571Y-143441000D01*
X126201000Y-143369571D01*
X126272428Y-143226714D01*
X126272428Y-143155285D01*
X126201000Y-143012428D01*
X126129571Y-142941000D01*
X125986714Y-142869571D01*
X125701000Y-142869571D01*
X125558142Y-142941000D01*
X125486714Y-143012428D01*
X125415285Y-143155285D01*
X125415285Y-143226714D01*
X125486714Y-143369571D01*
X125558142Y-143441000D01*
X125701000Y-143512428D01*
X125986714Y-143512428D01*
X126129571Y-143583857D01*
X126201000Y-143655285D01*
X126272428Y-143798142D01*
X126272428Y-144083857D01*
X126201000Y-144226714D01*
X126129571Y-144298142D01*
X125986714Y-144369571D01*
X125701000Y-144369571D01*
X125558142Y-144298142D01*
X125486714Y-144226714D01*
X125415285Y-144083857D01*
X125415285Y-143798142D01*
X125486714Y-143655285D01*
X125558142Y-143583857D01*
X125701000Y-143512428D01*
X124486714Y-142869571D02*
X124343857Y-142869571D01*
X124201000Y-142941000D01*
X124129571Y-143012428D01*
X124058142Y-143155285D01*
X123986714Y-143441000D01*
X123986714Y-143798142D01*
X124058142Y-144083857D01*
X124129571Y-144226714D01*
X124201000Y-144298142D01*
X124343857Y-144369571D01*
X124486714Y-144369571D01*
X124629571Y-144298142D01*
X124701000Y-144226714D01*
X124772428Y-144083857D01*
X124843857Y-143798142D01*
X124843857Y-143441000D01*
X124772428Y-143155285D01*
X124701000Y-143012428D01*
X124629571Y-142941000D01*
X124486714Y-142869571D01*
X123415285Y-143941000D02*
X122701000Y-143941000D01*
X123558142Y-144369571D02*
X123058142Y-142869571D01*
X122558142Y-144369571D01*
X113201000Y-144369571D02*
X113701000Y-143655285D01*
X114058142Y-144369571D02*
X114058142Y-142869571D01*
X113486714Y-142869571D01*
X113343857Y-142941000D01*
X113272428Y-143012428D01*
X113201000Y-143155285D01*
X113201000Y-143369571D01*
X113272428Y-143512428D01*
X113343857Y-143583857D01*
X113486714Y-143655285D01*
X114058142Y-143655285D01*
X111915285Y-144369571D02*
X111915285Y-143583857D01*
X111986714Y-143441000D01*
X112129571Y-143369571D01*
X112415285Y-143369571D01*
X112558142Y-143441000D01*
X111915285Y-144298142D02*
X112058142Y-144369571D01*
X112415285Y-144369571D01*
X112558142Y-144298142D01*
X112629571Y-144155285D01*
X112629571Y-144012428D01*
X112558142Y-143869571D01*
X112415285Y-143798142D01*
X112058142Y-143798142D01*
X111915285Y-143726714D01*
X111272428Y-144298142D02*
X111129571Y-144369571D01*
X110843857Y-144369571D01*
X110701000Y-144298142D01*
X110629571Y-144155285D01*
X110629571Y-144083857D01*
X110701000Y-143941000D01*
X110843857Y-143869571D01*
X111058142Y-143869571D01*
X111201000Y-143798142D01*
X111272428Y-143655285D01*
X111272428Y-143583857D01*
X111201000Y-143441000D01*
X111058142Y-143369571D01*
X110843857Y-143369571D01*
X110701000Y-143441000D01*
X109986714Y-143369571D02*
X109986714Y-144869571D01*
X109986714Y-143441000D02*
X109843857Y-143369571D01*
X109558142Y-143369571D01*
X109415285Y-143441000D01*
X109343857Y-143512428D01*
X109272428Y-143655285D01*
X109272428Y-144083857D01*
X109343857Y-144226714D01*
X109415285Y-144298142D01*
X109558142Y-144369571D01*
X109843857Y-144369571D01*
X109986714Y-144298142D01*
X108629571Y-144369571D02*
X108629571Y-142869571D01*
X108629571Y-143441000D02*
X108486714Y-143369571D01*
X108201000Y-143369571D01*
X108058142Y-143441000D01*
X107986714Y-143512428D01*
X107915285Y-143655285D01*
X107915285Y-144083857D01*
X107986714Y-144226714D01*
X108058142Y-144298142D01*
X108201000Y-144369571D01*
X108486714Y-144369571D01*
X108629571Y-144298142D01*
X106701000Y-144298142D02*
X106843857Y-144369571D01*
X107129571Y-144369571D01*
X107272428Y-144298142D01*
X107343857Y-144155285D01*
X107343857Y-143583857D01*
X107272428Y-143441000D01*
X107129571Y-143369571D01*
X106843857Y-143369571D01*
X106701000Y-143441000D01*
X106629571Y-143583857D01*
X106629571Y-143726714D01*
X107343857Y-143869571D01*
X105986714Y-144369571D02*
X105986714Y-143369571D01*
X105986714Y-143655285D02*
X105915285Y-143512428D01*
X105843857Y-143441000D01*
X105701000Y-143369571D01*
X105558142Y-143369571D01*
X105058142Y-144369571D02*
X105058142Y-143369571D01*
X105058142Y-143655285D02*
X104986714Y-143512428D01*
X104915285Y-143441000D01*
X104772428Y-143369571D01*
X104629571Y-143369571D01*
X104272428Y-143369571D02*
X103915285Y-144369571D01*
X103558142Y-143369571D02*
X103915285Y-144369571D01*
X104058142Y-144726714D01*
X104129571Y-144798142D01*
X104272428Y-144869571D01*
D10*
X138627142Y-179456680D02*
X139198571Y-179856680D01*
X138627142Y-180142394D02*
X139827142Y-180142394D01*
X139827142Y-179685251D01*
X139770000Y-179570965D01*
X139712857Y-179513822D01*
X139598571Y-179456680D01*
X139427142Y-179456680D01*
X139312857Y-179513822D01*
X139255714Y-179570965D01*
X139198571Y-179685251D01*
X139198571Y-180142394D01*
X138627142Y-178428108D02*
X139255714Y-178428108D01*
X139370000Y-178485251D01*
X139427142Y-178599537D01*
X139427142Y-178828108D01*
X139370000Y-178942394D01*
X138684285Y-178428108D02*
X138627142Y-178542394D01*
X138627142Y-178828108D01*
X138684285Y-178942394D01*
X138798571Y-178999537D01*
X138912857Y-178999537D01*
X139027142Y-178942394D01*
X139084285Y-178828108D01*
X139084285Y-178542394D01*
X139141428Y-178428108D01*
X138684285Y-177913822D02*
X138627142Y-177799537D01*
X138627142Y-177570965D01*
X138684285Y-177456680D01*
X138798571Y-177399537D01*
X138855714Y-177399537D01*
X138970000Y-177456680D01*
X139027142Y-177570965D01*
X139027142Y-177742394D01*
X139084285Y-177856680D01*
X139198571Y-177913822D01*
X139255714Y-177913822D01*
X139370000Y-177856680D01*
X139427142Y-177742394D01*
X139427142Y-177570965D01*
X139370000Y-177456680D01*
X139427142Y-176885251D02*
X138227142Y-176885251D01*
X139370000Y-176885251D02*
X139427142Y-176770965D01*
X139427142Y-176542394D01*
X139370000Y-176428108D01*
X139312857Y-176370965D01*
X139198571Y-176313822D01*
X138855714Y-176313822D01*
X138741428Y-176370965D01*
X138684285Y-176428108D01*
X138627142Y-176542394D01*
X138627142Y-176770965D01*
X138684285Y-176885251D01*
X138627142Y-175799537D02*
X139827142Y-175799537D01*
X139370000Y-175799537D02*
X139427142Y-175685251D01*
X139427142Y-175456680D01*
X139370000Y-175342394D01*
X139312857Y-175285251D01*
X139198571Y-175228108D01*
X138855714Y-175228108D01*
X138741428Y-175285251D01*
X138684285Y-175342394D01*
X138627142Y-175456680D01*
X138627142Y-175685251D01*
X138684285Y-175799537D01*
X138684285Y-174256680D02*
X138627142Y-174370965D01*
X138627142Y-174599537D01*
X138684285Y-174713822D01*
X138798571Y-174770965D01*
X139255714Y-174770965D01*
X139370000Y-174713822D01*
X139427142Y-174599537D01*
X139427142Y-174370965D01*
X139370000Y-174256680D01*
X139255714Y-174199537D01*
X139141428Y-174199537D01*
X139027142Y-174770965D01*
X138627142Y-173685251D02*
X139427142Y-173685251D01*
X139198571Y-173685251D02*
X139312857Y-173628108D01*
X139370000Y-173570965D01*
X139427142Y-173456680D01*
X139427142Y-173342394D01*
X138627142Y-172942394D02*
X139427142Y-172942394D01*
X139198571Y-172942394D02*
X139312857Y-172885251D01*
X139370000Y-172828108D01*
X139427142Y-172713822D01*
X139427142Y-172599537D01*
X139427142Y-172313822D02*
X138627142Y-172028108D01*
X139427142Y-171742394D02*
X138627142Y-172028108D01*
X138341428Y-172142394D01*
X138284285Y-172199537D01*
X138227142Y-172313822D01*
X138627142Y-170370965D02*
X139827142Y-170370965D01*
X139827142Y-169913822D01*
X139770000Y-169799537D01*
X139712857Y-169742394D01*
X139598571Y-169685251D01*
X139427142Y-169685251D01*
X139312857Y-169742394D01*
X139255714Y-169799537D01*
X139198571Y-169913822D01*
X139198571Y-170370965D01*
X138627142Y-169170965D02*
X139427142Y-169170965D01*
X139827142Y-169170965D02*
X139770000Y-169228108D01*
X139712857Y-169170965D01*
X139770000Y-169113822D01*
X139827142Y-169170965D01*
X139712857Y-169170965D01*
X137895142Y-176485251D02*
X137895142Y-175685251D01*
X136695142Y-176485251D01*
X136695142Y-175685251D01*
X136752285Y-174770965D02*
X136695142Y-174885251D01*
X136695142Y-175113822D01*
X136752285Y-175228108D01*
X136866571Y-175285251D01*
X137323714Y-175285251D01*
X137438000Y-175228108D01*
X137495142Y-175113822D01*
X137495142Y-174885251D01*
X137438000Y-174770965D01*
X137323714Y-174713822D01*
X137209428Y-174713822D01*
X137095142Y-175285251D01*
X136695142Y-174199537D02*
X137495142Y-174199537D01*
X137266571Y-174199537D02*
X137380857Y-174142394D01*
X137438000Y-174085251D01*
X137495142Y-173970965D01*
X137495142Y-173856680D01*
X136695142Y-173285251D02*
X136752285Y-173399537D01*
X136809428Y-173456680D01*
X136923714Y-173513822D01*
X137266571Y-173513822D01*
X137380857Y-173456680D01*
X137438000Y-173399537D01*
X137495142Y-173285251D01*
X137495142Y-173113822D01*
X137438000Y-172999537D01*
X137380857Y-172942394D01*
X137266571Y-172885251D01*
X136923714Y-172885251D01*
X136809428Y-172942394D01*
X136752285Y-172999537D01*
X136695142Y-173113822D01*
X136695142Y-173285251D01*
X134237062Y-184971537D02*
X134922777Y-184971537D01*
X134579920Y-184971537D02*
X134579920Y-183771537D01*
X134694205Y-183942965D01*
X134808491Y-184057251D01*
X134922777Y-184114394D01*
D12*
X133897920Y-183598680D02*
X132567920Y-183598680D01*
X133897920Y-188798680D02*
X82977920Y-188798680D01*
X133897920Y-184928680D02*
X133897920Y-183598680D01*
X131297920Y-186198680D02*
X131297920Y-183598680D01*
X82977920Y-188798680D02*
X82977920Y-183598680D01*
X133897920Y-186198680D02*
X131297920Y-186198680D01*
X131297920Y-183598680D02*
X82977920Y-183598680D01*
X133897920Y-188798680D02*
X133897920Y-186198680D01*
G36*
X87067195Y-176125611D02*
G01*
X87151015Y-176570235D01*
X87769587Y-176825231D01*
X88140627Y-176572926D01*
X88214064Y-176523186D01*
X88311419Y-176457898D01*
X88395707Y-176402134D01*
X88462551Y-176358758D01*
X88507574Y-176330633D01*
X88526398Y-176320622D01*
X88537959Y-176327741D01*
X88572516Y-176357574D01*
X88624814Y-176406532D01*
X88690420Y-176470120D01*
X88764903Y-176543843D01*
X88843833Y-176623205D01*
X88922776Y-176703711D01*
X88997304Y-176780865D01*
X89062983Y-176850173D01*
X89115383Y-176907137D01*
X89150073Y-176947264D01*
X89162621Y-176966057D01*
X89159702Y-176974131D01*
X89139491Y-177010149D01*
X89102583Y-177069424D01*
X89051970Y-177147310D01*
X88990645Y-177239161D01*
X88921599Y-177340330D01*
X88883707Y-177395506D01*
X88818526Y-177491564D01*
X88762643Y-177575397D01*
X88719037Y-177642457D01*
X88690689Y-177688199D01*
X88680577Y-177708076D01*
X88680743Y-177709177D01*
X88689663Y-177734374D01*
X88710126Y-177785827D01*
X88739280Y-177856815D01*
X88774273Y-177940615D01*
X88812252Y-178030508D01*
X88850365Y-178119771D01*
X88885759Y-178201683D01*
X88915582Y-178269523D01*
X88936981Y-178316570D01*
X88947104Y-178336102D01*
X88953094Y-178337835D01*
X88989486Y-178345649D01*
X89054347Y-178358595D01*
X89142485Y-178375659D01*
X89248707Y-178395831D01*
X89367822Y-178418098D01*
X89430603Y-178429903D01*
X89545832Y-178452428D01*
X89646582Y-178473230D01*
X89727346Y-178491115D01*
X89782618Y-178504888D01*
X89806891Y-178513354D01*
X89811251Y-178521746D01*
X89818483Y-178562752D01*
X89824166Y-178631048D01*
X89828302Y-178720209D01*
X89830897Y-178823808D01*
X89831956Y-178935420D01*
X89831481Y-179048618D01*
X89829479Y-179156976D01*
X89825953Y-179254069D01*
X89820907Y-179333470D01*
X89814347Y-179388752D01*
X89806276Y-179413490D01*
X89801378Y-179416280D01*
X89764850Y-179428249D01*
X89701485Y-179444085D01*
X89618606Y-179462054D01*
X89523538Y-179480421D01*
X89491462Y-179486271D01*
X89343313Y-179513478D01*
X89226881Y-179535343D01*
X89138129Y-179552773D01*
X89073023Y-179566676D01*
X89027526Y-179577957D01*
X88997602Y-179587523D01*
X88979214Y-179596281D01*
X88968327Y-179605137D01*
X88967062Y-179606623D01*
X88949258Y-179637611D01*
X88922914Y-179694314D01*
X88890581Y-179770079D01*
X88854813Y-179858254D01*
X88818164Y-179952187D01*
X88783186Y-180045227D01*
X88752433Y-180130721D01*
X88728458Y-180202016D01*
X88713815Y-180252462D01*
X88711056Y-180275406D01*
X88712901Y-180278383D01*
X88731995Y-180307173D01*
X88767904Y-180360275D01*
X88817298Y-180432797D01*
X88876847Y-180519847D01*
X88943223Y-180616534D01*
X88961440Y-180643136D01*
X89025497Y-180738555D01*
X89080857Y-180823892D01*
X89124359Y-180894085D01*
X89152844Y-180944074D01*
X89163152Y-180968796D01*
X89160931Y-180975296D01*
X89137778Y-181007324D01*
X89092097Y-181059625D01*
X89027161Y-181128679D01*
X88946239Y-181210966D01*
X88852605Y-181302966D01*
X88799085Y-181354461D01*
X88714462Y-181434663D01*
X88640395Y-181503358D01*
X88580861Y-181556932D01*
X88539837Y-181591765D01*
X88521301Y-181604243D01*
X88508566Y-181599618D01*
X88469356Y-181577737D01*
X88412415Y-181541953D01*
X88345170Y-181496797D01*
X88297358Y-181463845D01*
X88201905Y-181398407D01*
X88100045Y-181328908D01*
X88007008Y-181265755D01*
X87824752Y-181142480D01*
X87671761Y-181225200D01*
X87635737Y-181244293D01*
X87570223Y-181276952D01*
X87519560Y-181299499D01*
X87492484Y-181307906D01*
X87483623Y-181297110D01*
X87461619Y-181256003D01*
X87429119Y-181188229D01*
X87387930Y-181098089D01*
X87339862Y-180989885D01*
X87286722Y-180867917D01*
X87230319Y-180736488D01*
X87172462Y-180599898D01*
X87114958Y-180462447D01*
X87059617Y-180328438D01*
X87008246Y-180202171D01*
X86962655Y-180087948D01*
X86924652Y-179990070D01*
X86896044Y-179912837D01*
X86878641Y-179860551D01*
X86874251Y-179837513D01*
X86874548Y-179836840D01*
X86894997Y-179815543D01*
X86937770Y-179782188D01*
X86994037Y-179743691D01*
X87011797Y-179731936D01*
X87146934Y-179620415D01*
X87258776Y-179487586D01*
X87344675Y-179338978D01*
X87401982Y-179180120D01*
X87428051Y-179016540D01*
X87420233Y-178853768D01*
X87388564Y-178708995D01*
X87331702Y-178562804D01*
X87248808Y-178432383D01*
X87135051Y-178308493D01*
X87090353Y-178268915D01*
X86945855Y-178171403D01*
X86789758Y-178105730D01*
X86626587Y-178071310D01*
X86460863Y-178067554D01*
X86297112Y-178093874D01*
X86139856Y-178149683D01*
X85993618Y-178234394D01*
X85862924Y-178347417D01*
X85752294Y-178488167D01*
X85731025Y-178523022D01*
X85658730Y-178682335D01*
X85620335Y-178848232D01*
X85614834Y-179016417D01*
X85641221Y-179182593D01*
X85698490Y-179342464D01*
X85785637Y-179491733D01*
X85901656Y-179626103D01*
X86045542Y-179741279D01*
X86050214Y-179744382D01*
X86105884Y-179783613D01*
X86147609Y-179816966D01*
X86166666Y-179837513D01*
X86164262Y-179853621D01*
X86149311Y-179900524D01*
X86122801Y-179973219D01*
X86086540Y-180067405D01*
X86042336Y-180178778D01*
X85991996Y-180303038D01*
X85937327Y-180435882D01*
X85880138Y-180573007D01*
X85822236Y-180710112D01*
X85765430Y-180842895D01*
X85711526Y-180967054D01*
X85662332Y-181078286D01*
X85619657Y-181172289D01*
X85585307Y-181244762D01*
X85561091Y-181291402D01*
X85548817Y-181307906D01*
X85538609Y-181305671D01*
X85498506Y-181289606D01*
X85439238Y-181261439D01*
X85369539Y-181225200D01*
X85216549Y-181142480D01*
X85034293Y-181265755D01*
X84980447Y-181302259D01*
X84880294Y-181370464D01*
X84780445Y-181438778D01*
X84696131Y-181496797D01*
X84649599Y-181528416D01*
X84589120Y-181567700D01*
X84544277Y-181594592D01*
X84522375Y-181604563D01*
X84512965Y-181600330D01*
X84478951Y-181574401D01*
X84426515Y-181528750D01*
X84360221Y-181467866D01*
X84284633Y-181396241D01*
X84204316Y-181318363D01*
X84123833Y-181238725D01*
X84047749Y-181161815D01*
X83980627Y-181092125D01*
X83927032Y-181034144D01*
X83891528Y-180992364D01*
X83878679Y-180971273D01*
X83879420Y-180967261D01*
X83894713Y-180934600D01*
X83927382Y-180878092D01*
X83974270Y-180802843D01*
X84032221Y-180713955D01*
X84098077Y-180616534D01*
X84116547Y-180589662D01*
X84181402Y-180495103D01*
X84238529Y-180411507D01*
X84284598Y-180343764D01*
X84316279Y-180296766D01*
X84330244Y-180275406D01*
X84330588Y-180274491D01*
X84326466Y-180248358D01*
X84310727Y-180195420D01*
X84285924Y-180122327D01*
X84254609Y-180035732D01*
X84219337Y-179942288D01*
X84182660Y-179848645D01*
X84147132Y-179761457D01*
X84115306Y-179687375D01*
X84089736Y-179633051D01*
X84072973Y-179605137D01*
X84071294Y-179603404D01*
X84059292Y-179594636D01*
X84039023Y-179585795D01*
X84006449Y-179575972D01*
X83957536Y-179564263D01*
X83888247Y-179549760D01*
X83794545Y-179531556D01*
X83672396Y-179508746D01*
X83517762Y-179480421D01*
X83485690Y-179474460D01*
X83393813Y-179456032D01*
X83316527Y-179438572D01*
X83261156Y-179423813D01*
X83235025Y-179413490D01*
X83230653Y-179404877D01*
X83223365Y-179363506D01*
X83217589Y-179294921D01*
X83213330Y-179205548D01*
X83210593Y-179101815D01*
X83209382Y-178990145D01*
X83209702Y-178876967D01*
X83211556Y-178768706D01*
X83214950Y-178671788D01*
X83219887Y-178592639D01*
X83226372Y-178537686D01*
X83234409Y-178513354D01*
X83242616Y-178509759D01*
X83283439Y-178498428D01*
X83352444Y-178482402D01*
X83444123Y-178462875D01*
X83552970Y-178441042D01*
X83673478Y-178418098D01*
X83739277Y-178405839D01*
X83852055Y-178384581D01*
X83949127Y-178365967D01*
X84025302Y-178351008D01*
X84075389Y-178340716D01*
X84094196Y-178336102D01*
X84094903Y-178335151D01*
X84106881Y-178310990D01*
X84129714Y-178260374D01*
X84160550Y-178190018D01*
X84196533Y-178106638D01*
X84234811Y-178016950D01*
X84272529Y-177927669D01*
X84306833Y-177845512D01*
X84334869Y-177777193D01*
X84353784Y-177729428D01*
X84360723Y-177708934D01*
X84357662Y-177701723D01*
X84337292Y-177667408D01*
X84300342Y-177609650D01*
X84249780Y-177532979D01*
X84188577Y-177441928D01*
X84119701Y-177341030D01*
X84081914Y-177285773D01*
X84016702Y-177188895D01*
X83960791Y-177103873D01*
X83917161Y-177035342D01*
X83888797Y-176987940D01*
X83878679Y-176966303D01*
X83885710Y-176954567D01*
X83915117Y-176919498D01*
X83963361Y-176866425D01*
X84026013Y-176799844D01*
X84098645Y-176724254D01*
X84176828Y-176644152D01*
X84256134Y-176564034D01*
X84332133Y-176488398D01*
X84400398Y-176421742D01*
X84456500Y-176368562D01*
X84496010Y-176333356D01*
X84514499Y-176320622D01*
X84524763Y-176325573D01*
X84562450Y-176348537D01*
X84623268Y-176387618D01*
X84702833Y-176439952D01*
X84796763Y-176502676D01*
X84900674Y-176572926D01*
X85271714Y-176825231D01*
X85581000Y-176697733D01*
X85890285Y-176570235D01*
X85974106Y-176125611D01*
X86057926Y-175680987D01*
X86983374Y-175680987D01*
X87067195Y-176125611D01*
G37*
D13*
X87067195Y-176125611D02*
X87151015Y-176570235D01*
X87769587Y-176825231D01*
X88140627Y-176572926D01*
X88214064Y-176523186D01*
X88311419Y-176457898D01*
X88395707Y-176402134D01*
X88462551Y-176358758D01*
X88507574Y-176330633D01*
X88526398Y-176320622D01*
X88537959Y-176327741D01*
X88572516Y-176357574D01*
X88624814Y-176406532D01*
X88690420Y-176470120D01*
X88764903Y-176543843D01*
X88843833Y-176623205D01*
X88922776Y-176703711D01*
X88997304Y-176780865D01*
X89062983Y-176850173D01*
X89115383Y-176907137D01*
X89150073Y-176947264D01*
X89162621Y-176966057D01*
X89159702Y-176974131D01*
X89139491Y-177010149D01*
X89102583Y-177069424D01*
X89051970Y-177147310D01*
X88990645Y-177239161D01*
X88921599Y-177340330D01*
X88883707Y-177395506D01*
X88818526Y-177491564D01*
X88762643Y-177575397D01*
X88719037Y-177642457D01*
X88690689Y-177688199D01*
X88680577Y-177708076D01*
X88680743Y-177709177D01*
X88689663Y-177734374D01*
X88710126Y-177785827D01*
X88739280Y-177856815D01*
X88774273Y-177940615D01*
X88812252Y-178030508D01*
X88850365Y-178119771D01*
X88885759Y-178201683D01*
X88915582Y-178269523D01*
X88936981Y-178316570D01*
X88947104Y-178336102D01*
X88953094Y-178337835D01*
X88989486Y-178345649D01*
X89054347Y-178358595D01*
X89142485Y-178375659D01*
X89248707Y-178395831D01*
X89367822Y-178418098D01*
X89430603Y-178429903D01*
X89545832Y-178452428D01*
X89646582Y-178473230D01*
X89727346Y-178491115D01*
X89782618Y-178504888D01*
X89806891Y-178513354D01*
X89811251Y-178521746D01*
X89818483Y-178562752D01*
X89824166Y-178631048D01*
X89828302Y-178720209D01*
X89830897Y-178823808D01*
X89831956Y-178935420D01*
X89831481Y-179048618D01*
X89829479Y-179156976D01*
X89825953Y-179254069D01*
X89820907Y-179333470D01*
X89814347Y-179388752D01*
X89806276Y-179413490D01*
X89801378Y-179416280D01*
X89764850Y-179428249D01*
X89701485Y-179444085D01*
X89618606Y-179462054D01*
X89523538Y-179480421D01*
X89491462Y-179486271D01*
X89343313Y-179513478D01*
X89226881Y-179535343D01*
X89138129Y-179552773D01*
X89073023Y-179566676D01*
X89027526Y-179577957D01*
X88997602Y-179587523D01*
X88979214Y-179596281D01*
X88968327Y-179605137D01*
X88967062Y-179606623D01*
X88949258Y-179637611D01*
X88922914Y-179694314D01*
X88890581Y-179770079D01*
X88854813Y-179858254D01*
X88818164Y-179952187D01*
X88783186Y-180045227D01*
X88752433Y-180130721D01*
X88728458Y-180202016D01*
X88713815Y-180252462D01*
X88711056Y-180275406D01*
X88712901Y-180278383D01*
X88731995Y-180307173D01*
X88767904Y-180360275D01*
X88817298Y-180432797D01*
X88876847Y-180519847D01*
X88943223Y-180616534D01*
X88961440Y-180643136D01*
X89025497Y-180738555D01*
X89080857Y-180823892D01*
X89124359Y-180894085D01*
X89152844Y-180944074D01*
X89163152Y-180968796D01*
X89160931Y-180975296D01*
X89137778Y-181007324D01*
X89092097Y-181059625D01*
X89027161Y-181128679D01*
X88946239Y-181210966D01*
X88852605Y-181302966D01*
X88799085Y-181354461D01*
X88714462Y-181434663D01*
X88640395Y-181503358D01*
X88580861Y-181556932D01*
X88539837Y-181591765D01*
X88521301Y-181604243D01*
X88508566Y-181599618D01*
X88469356Y-181577737D01*
X88412415Y-181541953D01*
X88345170Y-181496797D01*
X88297358Y-181463845D01*
X88201905Y-181398407D01*
X88100045Y-181328908D01*
X88007008Y-181265755D01*
X87824752Y-181142480D01*
X87671761Y-181225200D01*
X87635737Y-181244293D01*
X87570223Y-181276952D01*
X87519560Y-181299499D01*
X87492484Y-181307906D01*
X87483623Y-181297110D01*
X87461619Y-181256003D01*
X87429119Y-181188229D01*
X87387930Y-181098089D01*
X87339862Y-180989885D01*
X87286722Y-180867917D01*
X87230319Y-180736488D01*
X87172462Y-180599898D01*
X87114958Y-180462447D01*
X87059617Y-180328438D01*
X87008246Y-180202171D01*
X86962655Y-180087948D01*
X86924652Y-179990070D01*
X86896044Y-179912837D01*
X86878641Y-179860551D01*
X86874251Y-179837513D01*
X86874548Y-179836840D01*
X86894997Y-179815543D01*
X86937770Y-179782188D01*
X86994037Y-179743691D01*
X87011797Y-179731936D01*
X87146934Y-179620415D01*
X87258776Y-179487586D01*
X87344675Y-179338978D01*
X87401982Y-179180120D01*
X87428051Y-179016540D01*
X87420233Y-178853768D01*
X87388564Y-178708995D01*
X87331702Y-178562804D01*
X87248808Y-178432383D01*
X87135051Y-178308493D01*
X87090353Y-178268915D01*
X86945855Y-178171403D01*
X86789758Y-178105730D01*
X86626587Y-178071310D01*
X86460863Y-178067554D01*
X86297112Y-178093874D01*
X86139856Y-178149683D01*
X85993618Y-178234394D01*
X85862924Y-178347417D01*
X85752294Y-178488167D01*
X85731025Y-178523022D01*
X85658730Y-178682335D01*
X85620335Y-178848232D01*
X85614834Y-179016417D01*
X85641221Y-179182593D01*
X85698490Y-179342464D01*
X85785637Y-179491733D01*
X85901656Y-179626103D01*
X86045542Y-179741279D01*
X86050214Y-179744382D01*
X86105884Y-179783613D01*
X86147609Y-179816966D01*
X86166666Y-179837513D01*
X86164262Y-179853621D01*
X86149311Y-179900524D01*
X86122801Y-179973219D01*
X86086540Y-180067405D01*
X86042336Y-180178778D01*
X85991996Y-180303038D01*
X85937327Y-180435882D01*
X85880138Y-180573007D01*
X85822236Y-180710112D01*
X85765430Y-180842895D01*
X85711526Y-180967054D01*
X85662332Y-181078286D01*
X85619657Y-181172289D01*
X85585307Y-181244762D01*
X85561091Y-181291402D01*
X85548817Y-181307906D01*
X85538609Y-181305671D01*
X85498506Y-181289606D01*
X85439238Y-181261439D01*
X85369539Y-181225200D01*
X85216549Y-181142480D01*
X85034293Y-181265755D01*
X84980447Y-181302259D01*
X84880294Y-181370464D01*
X84780445Y-181438778D01*
X84696131Y-181496797D01*
X84649599Y-181528416D01*
X84589120Y-181567700D01*
X84544277Y-181594592D01*
X84522375Y-181604563D01*
X84512965Y-181600330D01*
X84478951Y-181574401D01*
X84426515Y-181528750D01*
X84360221Y-181467866D01*
X84284633Y-181396241D01*
X84204316Y-181318363D01*
X84123833Y-181238725D01*
X84047749Y-181161815D01*
X83980627Y-181092125D01*
X83927032Y-181034144D01*
X83891528Y-180992364D01*
X83878679Y-180971273D01*
X83879420Y-180967261D01*
X83894713Y-180934600D01*
X83927382Y-180878092D01*
X83974270Y-180802843D01*
X84032221Y-180713955D01*
X84098077Y-180616534D01*
X84116547Y-180589662D01*
X84181402Y-180495103D01*
X84238529Y-180411507D01*
X84284598Y-180343764D01*
X84316279Y-180296766D01*
X84330244Y-180275406D01*
X84330588Y-180274491D01*
X84326466Y-180248358D01*
X84310727Y-180195420D01*
X84285924Y-180122327D01*
X84254609Y-180035732D01*
X84219337Y-179942288D01*
X84182660Y-179848645D01*
X84147132Y-179761457D01*
X84115306Y-179687375D01*
X84089736Y-179633051D01*
X84072973Y-179605137D01*
X84071294Y-179603404D01*
X84059292Y-179594636D01*
X84039023Y-179585795D01*
X84006449Y-179575972D01*
X83957536Y-179564263D01*
X83888247Y-179549760D01*
X83794545Y-179531556D01*
X83672396Y-179508746D01*
X83517762Y-179480421D01*
X83485690Y-179474460D01*
X83393813Y-179456032D01*
X83316527Y-179438572D01*
X83261156Y-179423813D01*
X83235025Y-179413490D01*
X83230653Y-179404877D01*
X83223365Y-179363506D01*
X83217589Y-179294921D01*
X83213330Y-179205548D01*
X83210593Y-179101815D01*
X83209382Y-178990145D01*
X83209702Y-178876967D01*
X83211556Y-178768706D01*
X83214950Y-178671788D01*
X83219887Y-178592639D01*
X83226372Y-178537686D01*
X83234409Y-178513354D01*
X83242616Y-178509759D01*
X83283439Y-178498428D01*
X83352444Y-178482402D01*
X83444123Y-178462875D01*
X83552970Y-178441042D01*
X83673478Y-178418098D01*
X83739277Y-178405839D01*
X83852055Y-178384581D01*
X83949127Y-178365967D01*
X84025302Y-178351008D01*
X84075389Y-178340716D01*
X84094196Y-178336102D01*
X84094903Y-178335151D01*
X84106881Y-178310990D01*
X84129714Y-178260374D01*
X84160550Y-178190018D01*
X84196533Y-178106638D01*
X84234811Y-178016950D01*
X84272529Y-177927669D01*
X84306833Y-177845512D01*
X84334869Y-177777193D01*
X84353784Y-177729428D01*
X84360723Y-177708934D01*
X84357662Y-177701723D01*
X84337292Y-177667408D01*
X84300342Y-177609650D01*
X84249780Y-177532979D01*
X84188577Y-177441928D01*
X84119701Y-177341030D01*
X84081914Y-177285773D01*
X84016702Y-177188895D01*
X83960791Y-177103873D01*
X83917161Y-177035342D01*
X83888797Y-176987940D01*
X83878679Y-176966303D01*
X83885710Y-176954567D01*
X83915117Y-176919498D01*
X83963361Y-176866425D01*
X84026013Y-176799844D01*
X84098645Y-176724254D01*
X84176828Y-176644152D01*
X84256134Y-176564034D01*
X84332133Y-176488398D01*
X84400398Y-176421742D01*
X84456500Y-176368562D01*
X84496010Y-176333356D01*
X84514499Y-176320622D01*
X84524763Y-176325573D01*
X84562450Y-176348537D01*
X84623268Y-176387618D01*
X84702833Y-176439952D01*
X84796763Y-176502676D01*
X84900674Y-176572926D01*
X85271714Y-176825231D01*
X85581000Y-176697733D01*
X85890285Y-176570235D01*
X85974106Y-176125611D01*
X86057926Y-175680987D01*
X86983374Y-175680987D01*
X87067195Y-176125611D01*
%LPC*%
D14*
X84320400Y-130463600D03*
D15*
X86860400Y-130463600D03*
X89400400Y-130463600D03*
D14*
X127534000Y-130461000D03*
D15*
X130074000Y-130461000D03*
X132614000Y-130461000D03*
D14*
X81767920Y-191786680D03*
D15*
X84307920Y-191786680D03*
X86847920Y-191786680D03*
X89387920Y-191786680D03*
X91927920Y-191786680D03*
X94467920Y-191786680D03*
X97007920Y-191786680D03*
X99547920Y-191786680D03*
X102087920Y-191786680D03*
X104627920Y-191786680D03*
X107167920Y-191786680D03*
X109707920Y-191786680D03*
X112247920Y-191786680D03*
X114787920Y-191786680D03*
X117327920Y-191786680D03*
X119867920Y-191786680D03*
X122407920Y-191786680D03*
X124947920Y-191786680D03*
X127487920Y-191786680D03*
X130027920Y-191786680D03*
D16*
X137479920Y-137206680D03*
X79479920Y-137206680D03*
X137479920Y-186206680D03*
X79479920Y-186206680D03*
D14*
X132567920Y-184928680D03*
D15*
X132567920Y-187468680D03*
X130027920Y-184928680D03*
X130027920Y-187468680D03*
X127487920Y-184928680D03*
X127487920Y-187468680D03*
X124947920Y-184928680D03*
X124947920Y-187468680D03*
X122407920Y-184928680D03*
X122407920Y-187468680D03*
X119867920Y-184928680D03*
X119867920Y-187468680D03*
X117327920Y-184928680D03*
X117327920Y-187468680D03*
X114787920Y-184928680D03*
X114787920Y-187468680D03*
X112247920Y-184928680D03*
X112247920Y-187468680D03*
X109707920Y-184928680D03*
X109707920Y-187468680D03*
X107167920Y-184928680D03*
X107167920Y-187468680D03*
X104627920Y-184928680D03*
X104627920Y-187468680D03*
X102087920Y-184928680D03*
X102087920Y-187468680D03*
X99547920Y-184928680D03*
X99547920Y-187468680D03*
X97007920Y-184928680D03*
X97007920Y-187468680D03*
X94467920Y-184928680D03*
X94467920Y-187468680D03*
X91927920Y-184928680D03*
X91927920Y-187468680D03*
X89387920Y-184928680D03*
X89387920Y-187468680D03*
X86847920Y-184928680D03*
X86847920Y-187468680D03*
X84307920Y-184928680D03*
X84307920Y-187468680D03*
M02*
